<svg class="animated" id="freepik_stories-ok" xmlns="http://www.w3.org/2000/svg" xmlns:xlink="http://www.w3.org/1999/xlink" viewBox="0 0 500 500" version="1.1" xmlns:svgjs="http://svgjs.com/svgjs"><style>svg#freepik_stories-ok:not(.animated) .animable {opacity: 0;}svg#freepik_stories-ok.animated #freepik--background-simple--inject-2 {animation: 1.5s Infinite  linear floating;animation-delay: 0s;}svg#freepik_stories-ok.animated #freepik--Plants--inject-2 {animation: 1.5s Infinite  linear wind;animation-delay: 0s;}            @keyframes floating {                0% {                    opacity: 1;                    transform: translateY(0px);                }                50% {                    transform: translateY(-10px);                }                100% {                    opacity: 1;                    transform: translateY(0px);                }            }                    @keyframes wind {                0% {                    transform: rotate( 0deg );                }                25% {                    transform: rotate( 1deg );                }                75% {                    transform: rotate( -1deg );                }            }        .animator-hidden { display: none; }</style><g id="freepik--background-simple--inject-2" style="transform-origin: 248.253px 234.573px 0px;" class="animable"><path d="M448,127.31s-29.05-58.17-93.21-66.79-109,33.39-156.18,54.94c-24.72,11.28-53,6.9-79.21,12.36C35.45,145.28,3.83,254.68,38.79,316.89c30.27,53.86,83.53,81.86,164.65,88.33s138,14,210.65-38.78S481.88,203.79,448,127.31Z" style="fill: #FFC100; transform-origin: 248.253px 234.573px 0px;" id="elxcnddsejbhk" class="animable"></path><g id="eln4kyowzb35"><path d="M448,127.31s-29.05-58.17-93.21-66.79-109,33.39-156.18,54.94c-24.72,11.28-53,6.9-79.21,12.36C35.45,145.28,3.83,254.68,38.79,316.89c30.27,53.86,83.53,81.86,164.65,88.33s138,14,210.65-38.78S481.88,203.79,448,127.31Z" style="fill: rgb(255, 255, 255); opacity: 0.7; transform-origin: 248.253px 234.573px 0px;" class="animable" id="elb19llce3fcb"></path></g></g><g id="freepik--Plants--inject-2" style="transform-origin: 407.305px 330.694px 0px;" class="animable"><path d="M434.78,383.65c3.46-19.89,36.32-57.94,26.81-81.29s-32.87,51-41.52,51.89-.86-33.73,11.25-66.59,21.62-67.46,0-80.43-20.76,89.94-25.95,86.48,3.46-46.7-2.59-73.51-19.89-5.19-19.89,26,9.51,48.43,2.59,51-28.15-7.1-27.67,26.81,26.81,74.38,17.29,69.19-26.81-25.08-23.35,6.92c2.45,22.62,20,44.36,30.1,55.17h46.24c7.05-7.25,20.75-22.53,30-40.47C471.1,389.71,431.32,403.55,434.78,383.65Z" style="fill: #FFC100; transform-origin: 407.305px 330.694px 0px;" id="elwulw519wc5" class="animable"></path><path d="M378.56,453.27C370,441,366,426,362,412c-2-9-2-19,5-25,7-5,11,4,15,8,3-2,1-5,1-7a386.63,386.63,0,0,1-3-48c0-10,4-18,8-27,2-3,4-6,7-7s6,0,7,3c2,7,2,14,3,21,2-2,1-5,1-7,4-29,1-57,10-85,1-2,4-4,6-3,7,1,7,10,7,16,4,29-5,57-8,86,0,2-1,4,1,6,1-7,5-14,7-21,1-3,3-7,6-9,2-1,4,0,6,2,4,6,5,12,4,19-3,17-9,31-16,46l-3,9c-1,6-5,13-1,18,7-1,9-9,15-13s8,1,9,5c4,20-3,38-13.08,54.23" style="fill: none; stroke: rgb(38, 50, 56); stroke-linecap: round; stroke-linejoin: round; transform-origin: 405.497px 344.002px 0px;" id="elnl3wef9m8ks" class="animable"></path><path d="M406.57,449.45s-2.33-46.73,3.51-89.36" style="fill: none; stroke: rgb(38, 50, 56); stroke-linecap: round; stroke-linejoin: round; transform-origin: 408.096px 404.77px 0px;" id="elb3nsfg2comp" class="animable"></path><polyline points="387.3 419.66 406.57 440.69 423.51 426.08" style="fill: none; stroke: rgb(38, 50, 56); stroke-linecap: round; stroke-linejoin: round; transform-origin: 405.405px 430.175px 0px;" id="eluuc8y9rg2mn" class="animable"></polyline><polyline points="401.31 367.1 406.57 393.96 421.76 367.1" style="fill: none; stroke: rgb(38, 50, 56); stroke-linecap: round; stroke-linejoin: round; transform-origin: 411.535px 380.53px 0px;" id="elbzxigu6bqlr" class="animable"></polyline><line x1="410.66" y1="353.08" x2="414.16" y2="327.97" style="fill: none; stroke: rgb(38, 50, 56); stroke-linecap: round; stroke-linejoin: round; transform-origin: 412.41px 340.525px 0px;" id="elsknb07v2q1c" class="animable"></line></g><g id="freepik--Window--inject-2" style="transform-origin: 141.725px 238.49px 0px;" class="animable animator-hidden"><rect x="70.87" y="148.31" width="62.98" height="78.73" style="fill: none; stroke: rgb(38, 50, 56); stroke-linecap: round; stroke-linejoin: round; transform-origin: 102.36px 187.675px 0px;" id="elyx4z2dwtnkg" class="animable"></rect><rect x="149.6" y="148.31" width="62.98" height="78.73" style="fill: none; stroke: rgb(38, 50, 56); stroke-linecap: round; stroke-linejoin: round; transform-origin: 181.09px 187.675px 0px;" id="el5s72yrbf8y8" class="animable"></rect><rect x="70.87" y="239.92" width="62.98" height="78.73" style="fill: none; stroke: rgb(38, 50, 56); stroke-linecap: round; stroke-linejoin: round; transform-origin: 102.36px 279.285px 0px;" id="el57so1d8pnla" class="animable"></rect><rect x="149.6" y="239.92" width="62.98" height="78.73" style="fill: none; stroke: rgb(38, 50, 56); stroke-linecap: round; stroke-linejoin: round; transform-origin: 181.09px 279.285px 0px;" id="elsrnrk1oocw" class="animable"></rect><rect x="70.87" y="331.53" width="62.98" height="78.73" style="fill: none; stroke: rgb(38, 50, 56); stroke-linecap: round; stroke-linejoin: round; transform-origin: 102.36px 370.895px 0px;" id="elcre0718qn4w" class="animable"></rect><rect x="149.6" y="331.53" width="62.98" height="78.73" style="fill: none; stroke: rgb(38, 50, 56); stroke-linecap: round; stroke-linejoin: round; transform-origin: 181.09px 370.895px 0px;" id="el9gs37gjr2m" class="animable"></rect><path d="M142.44,66.72h0A70.14,70.14,0,0,0,72.3,136.86H212.58A70.14,70.14,0,0,0,142.44,66.72Z" style="fill: none; stroke: rgb(38, 50, 56); stroke-linecap: round; stroke-linejoin: round; transform-origin: 142.44px 101.79px 0px;" id="eldpc25q6spi" class="animable"></path></g><g id="freepik--Character--inject-2" style="transform-origin: 216.688px 273.592px 0px;" class="animable"><path d="M233.15,104.32s0-15-25.75-12-36.54,25.75-44.32,30.54-22.16,9-22.76,16.17,6,10.18-.6,15.57S123,164.81,125.35,172s9,14.37,6,19.17-11.38,9.58-3.6,15,11.38,6.59,11.38,13.77-3,12,4.2,14.38,11.37-2.4,15.57,6.58,8.38,11.38,15.57,9.58,17.36-4.79,21-2.39,15,9,19.76,5.39,9-9,16.17-6,13.18,7.19,16.17,1.8,0-6.59,11.38-9,15.57-1.79,15.57-11.37-.6-12,4.79-16.17,10.18-2.4,8.39-12.58-5.39-12.58-3.6-22.76-3-13.77-6.59-16.77-7.78-8.38-6.58-13.77,10.18-6,1.19-15.57-13.17-6.59-15-13.78S249.32,94.74,233.15,104.32Z" style="fill: rgb(38, 50, 56); stroke: rgb(38, 50, 56); stroke-linecap: round; stroke-linejoin: round; transform-origin: 206.306px 173.23px 0px;" id="elgpks1sui6cc" class="animable"></path><path d="M210.16,122.35c-3.69,5.84-6.54,12.43-12.48,18-8.58,8-30.56,15-31.63,22.52s2.68,11.79-4.82,18.22-19.3,8-19.3,14.48,3.21,8.58,1.61,13.4" style="fill: none; stroke: rgb(97, 97, 97); stroke-miterlimit: 10; transform-origin: 176.045px 165.66px 0px;" id="elwpc6of1kilh" class="animable"></path><path d="M226.1,115.15s-2.68-7-10.19,0c-.58.54-1.13,1.1-1.65,1.67" style="fill: none; stroke: rgb(97, 97, 97); stroke-miterlimit: 10; transform-origin: 220.18px 114.429px 0px;" id="elz267sxc0vdg" class="animable"></path><path d="M165.54,145.79c-6.6,1.6-11.81,2.75-12.35,7.43-1.08,9.11.53,15-5.9,17.69s-15,7-12.33,12.33,3.21,7,2.68,9.11" style="fill: none; stroke: rgb(97, 97, 97); stroke-miterlimit: 10; transform-origin: 150px 169.07px 0px;" id="elf1c3k159krm" class="animable"></path><path d="M225,106.57S210,96.93,202,105.5s-4.29,19.3-16.62,31.1a31.3,31.3,0,0,1-10.86,6.59" style="fill: none; stroke: rgb(97, 97, 97); stroke-miterlimit: 10; transform-origin: 199.76px 122.57px 0px;" id="el7bnrzql4swv" class="animable"></path><path d="M277.17,182.6a9.72,9.72,0,0,0,3.61,3.32" style="fill: none; stroke: rgb(97, 97, 97); stroke-miterlimit: 10; transform-origin: 278.975px 184.26px 0px;" id="elde3v42suv" class="animable"></path><path d="M235.75,120s13.4-4.29,16.61,3.21,4.83,20.91,10.73,23.06,8.57,5.36,8.57,17.15a37.78,37.78,0,0,0,1.68,11.21" style="fill: none; stroke: rgb(97, 97, 97); stroke-miterlimit: 10; transform-origin: 254.545px 146.704px 0px;" id="elyknk55qz89g" class="animable"></path><path d="M148.9,215.4c4.29-7,10.18-4.28,10.72-11.79s-3.75-9.65.53-14.47,11.26-7,11.26-7" style="fill: none; stroke: rgb(97, 97, 97); stroke-miterlimit: 10; transform-origin: 160.155px 198.77px 0px;" id="elktas97c26w" class="animable"></path><path d="M154.79,230.42a25.35,25.35,0,0,1-5.1-5.73" style="fill: none; stroke: rgb(97, 97, 97); stroke-miterlimit: 10; transform-origin: 152.24px 227.555px 0px;" id="ellhjezz9nxqa" class="animable"></path><path d="M303.22,455.26s1.79-24.55-9-49.11S281,379.82,281,372.63s7.22-15.58,8.42-31.75.6-24,.6-24,25.75,40.72,43.72,43.12,28.75-14.37,22.16-37.13-35.34-41.32-46.71-56.3-37.14-15-50.31-15-19.76-4.79-22.16-13.77-2.39-27-2.39-27-15.58,9.58-41.93-1.2c0,0,2.4,32.94-.6,37.73S184.64,257,166.67,257s-32.94,3.6-41.32,12-43.12,41.92-52.1,55.1-4.2,27.55,6.58,32.94,21.56.59,29.35-6.59,32.34-29.95,32.34-29.95,0,13.78,6.59,33.54,12,17.37,7.18,31.74-14.37,18.57-17.36,37.13a176.46,176.46,0,0,0-2.4,32.34" style="fill: #FFC100; transform-origin: 213.195px 332.43px 0px;" id="elsojxw07how" class="animable"></path><g style="clip-path: url(&quot;#freepik--clip-path--inject-2&quot;); transform-origin: 213.15px 332.79px 0px;" id="elobc3zqjmgzc" class="animable"><g id="eli3v1i79bmsp"><g style="opacity: 0.2; transform-origin: 213.15px 332.79px 0px;" class="animable" id="elz7oz2pwiv6g"><path d="M263.92,270.35c-.41,0-1.91,1,0,3.91C265.83,271.37,264.33,270.35,263.92,270.35Z" id="ele3rnfxrxyi" style="transform-origin: 263.92px 272.305px 0px;" class="animable"></path><path d="M311.92,270.35c-.41,0-1.91,1,0,3.91C313.83,271.37,312.33,270.35,311.92,270.35Z" id="elkcmzeon9y89" style="transform-origin: 311.92px 272.305px 0px;" class="animable"></path><path d="M311.92,294.35c-.41,0-1.91,1,0,3.91C313.83,295.37,312.33,294.35,311.92,294.35Z" id="elbhwf071u199" style="transform-origin: 311.92px 296.305px 0px;" class="animable"></path><path d="M263.92,294.35c-.41,0-1.91,1,0,3.91C265.83,295.37,264.33,294.35,263.92,294.35Z" id="el6vro93jhk0u" style="transform-origin: 263.92px 296.305px 0px;" class="animable"></path><path d="M287.92,282.35c-.41,0-1.91,1,0,3.91C289.83,283.37,288.33,282.35,287.92,282.35Z" id="els8vnlrbcuk" style="transform-origin: 287.92px 284.305px 0px;" class="animable"></path><path d="M287.92,258.35c-.41,0-1.91,1,0,3.91C289.83,259.37,288.33,258.35,287.92,258.35Z" id="el0cmjp3wal59c" style="transform-origin: 287.92px 260.305px 0px;" class="animable"></path><path d="M265,274.86c3.46.19,3.58-1.62,3.38-2S266.49,271.75,265,274.86Z" id="el7pnio4sg8o8" style="transform-origin: 266.72px 273.689px 0px;" class="animable"></path><path d="M315.93,274.17l-1.33-1.37a4.75,4.75,0,0,0-1.64,2.06A4,4,0,0,0,315.93,274.17Z" id="elcdrf8l9ra5g" style="transform-origin: 314.445px 273.856px 0px;" class="animable"></path><path d="M289,286.86c3.46.19,3.58-1.62,3.38-2S290.49,283.75,289,286.86Z" id="elveqixxpa8yn" style="transform-origin: 290.72px 285.689px 0px;" class="animable"></path><path d="M289,262.86c3.46.19,3.58-1.62,3.38-2S290.49,259.75,289,262.86Z" id="el96zbndom3o7" style="transform-origin: 290.72px 261.689px 0px;" class="animable"></path><path d="M307.5,272.89c-.2.35-.07,2.16,3.38,2C309.35,271.75,307.71,272.53,307.5,272.89Z" id="elt7bqgd6tat" style="transform-origin: 309.161px 273.717px 0px;" class="animable"></path><path d="M307.5,296.89a1.24,1.24,0,0,0,.52,1.37h0a4.2,4.2,0,0,0,2.86.6,5.57,5.57,0,0,0-.32-.6C309.13,295.86,307.7,296.55,307.5,296.89Z" id="elu8lmi70pl7" style="transform-origin: 309.168px 297.718px 0px;" class="animable"></path><path d="M283.5,284.89c-.2.35-.07,2.16,3.38,2C285.35,283.75,283.71,284.53,283.5,284.89Z" id="elj2lnwxbxvt" style="transform-origin: 285.161px 285.717px 0px;" class="animable"></path><path d="M283.5,260.89c-.2.35-.07,2.16,3.38,2C285.35,259.75,283.71,260.53,283.5,260.89Z" id="elf6ormpu4imo" style="transform-origin: 285.161px 261.717px 0px;" class="animable"></path><path d="M263.92,342.35c-.41,0-1.91,1,0,3.91C265.83,343.37,264.33,342.35,263.92,342.35Z" id="elpsjd5penase" style="transform-origin: 263.92px 344.305px 0px;" class="animable"></path><path d="M311.92,342.35c-.3,0-1.16.54-.89,1.93.42.45.84.9,1.27,1.34C313.6,343.22,312.3,342.35,311.92,342.35Z" id="elokprxdbzudq" style="transform-origin: 311.921px 343.985px 0px;" class="animable"></path><path d="M263.92,366.35c-.41,0-1.91,1,0,3.91C265.83,367.37,264.33,366.35,263.92,366.35Z" id="eleqls874dj5" style="transform-origin: 263.92px 368.305px 0px;" class="animable"></path><path d="M335.92,354.35c-.41,0-1.91,1,0,3.91C337.83,355.37,336.33,354.35,335.92,354.35Z" id="el144d37myg8u" style="transform-origin: 335.92px 356.305px 0px;" class="animable"></path><path d="M263.92,318.35c-.41,0-1.91,1,0,3.91C265.83,319.37,264.33,318.35,263.92,318.35Z" id="elaj2j0ayhd2b" style="transform-origin: 263.92px 320.305px 0px;" class="animable"></path><path d="M311.92,318.35c-.41,0-1.91,1,0,3.91C313.83,319.37,312.33,318.35,311.92,318.35Z" id="elhr5zdutjsf" style="transform-origin: 311.92px 320.305px 0px;" class="animable"></path><path d="M287.92,330.35c-.41,0-1.91,1,0,3.91C289.83,331.37,288.33,330.35,287.92,330.35Z" id="elmev5ag4j6b" style="transform-origin: 287.92px 332.305px 0px;" class="animable"></path><path d="M335.92,330.35c-.41,0-1.91,1,0,3.91C337.83,331.37,336.33,330.35,335.92,330.35Z" id="elm1b2gsihuap" style="transform-origin: 335.92px 332.305px 0px;" class="animable"></path><path d="M287.92,306.35c-.41,0-1.91,1,0,3.91C289.83,307.37,288.33,306.35,287.92,306.35Z" id="elcyi1cgntriq" style="transform-origin: 287.92px 308.305px 0px;" class="animable"></path><path d="M335.92,306.35c-.41,0-1.91,1,0,3.91C337.83,307.37,336.33,306.35,335.92,306.35Z" id="elgnb109yvjp5" style="transform-origin: 335.92px 308.305px 0px;" class="animable"></path><path d="M265,346.86c3.46.19,3.58-1.62,3.38-2S266.49,343.75,265,346.86Z" id="el0w1l0zo8l18" style="transform-origin: 266.72px 345.689px 0px;" class="animable"></path><path d="M313.15,346.5l.36.37c2.91,0,3-1.65,2.83-2S314.62,343.82,313.15,346.5Z" id="eloi5zcx8961" style="transform-origin: 314.771px 345.695px 0px;" class="animable"></path><path d="M267.58,368.53a1.82,1.82,0,0,0-1.2.42,4,4,0,0,0-.56.54,5.7,5.7,0,0,0-.54.77.21.21,0,0,1,0,.06c-.09.16-.19.34-.28.54a4.18,4.18,0,0,0,2.86-.6h0a1.8,1.8,0,0,0,.2-.18,1.56,1.56,0,0,0,.25-.36.73.73,0,0,0-.69-1.19Z" id="elmcvzaia62c8" style="transform-origin: 266.742px 369.712px 0px;" class="animable"></path><path d="M337,358.86c3.45.19,3.58-1.62,3.38-2S338.49,355.75,337,358.86Z" id="elaos2rd46low" style="transform-origin: 338.719px 357.689px 0px;" class="animable"></path><path d="M265,322.86c3.46.19,3.58-1.62,3.38-2S266.49,319.75,265,322.86Z" id="elzk1v3g9b9cj" style="transform-origin: 266.72px 321.689px 0px;" class="animable"></path><path d="M316.34,320.89c-.21-.36-1.85-1.14-3.38,2C316.41,323.05,316.54,321.24,316.34,320.89Z" id="el4ju9aqlc5nr" style="transform-origin: 314.679px 321.717px 0px;" class="animable"></path><path d="M289,334.86a8.4,8.4,0,0,0,.87,0c0-.5.05-1,.07-1.46A6.36,6.36,0,0,0,289,334.86Z" id="el3jyqtqjx9qj" style="transform-origin: 289.47px 334.136px 0px;" class="animable"></path><path d="M337,334.86c3.45.19,3.58-1.62,3.38-2S338.49,331.75,337,334.86Z" id="elzu6psrpwq7n" style="transform-origin: 338.719px 333.689px 0px;" class="animable"></path><path d="M289,310.86c3.46.19,3.58-1.62,3.38-2S290.49,307.75,289,310.86Z" id="el0z8g8ccmoxr" style="transform-origin: 290.72px 309.689px 0px;" class="animable"></path><path d="M337,310.86c3.45.19,3.58-1.62,3.38-2S338.49,307.75,337,310.86Z" id="elhn766vt95x" style="transform-origin: 338.719px 309.689px 0px;" class="animable"></path><path d="M285.29,358.78l.55-1.49c-1.16-1.2-2.18-.68-2.34-.4S283.39,358.43,285.29,358.78Z" id="eluq7gngo838" style="transform-origin: 284.641px 357.657px 0px;" class="animable"></path><path d="M355.5,344.89a1.29,1.29,0,0,0,.67,1.48c.21-.58.39-1.18.56-1.79A1.17,1.17,0,0,0,355.5,344.89Z" id="elue5dh5wfy7" style="transform-origin: 356.094px 345.444px 0px;" class="animable"></path><path d="M331.5,356.89c-.21.35-.07,2.16,3.38,2C333.35,355.75,331.71,356.53,331.5,356.89Z" id="eld0xgh24mgp5" style="transform-origin: 333.159px 357.717px 0px;" class="animable"></path><path d="M307.5,320.89c-.2.35-.07,2.16,3.38,2C309.35,319.75,307.71,320.53,307.5,320.89Z" id="elnl2u7sfolj" style="transform-origin: 309.161px 321.717px 0px;" class="animable"></path><path d="M283.5,332.89c-.2.35-.07,2.16,3.38,2C285.35,331.75,283.71,332.53,283.5,332.89Z" id="eleiewp6sncxc" style="transform-origin: 285.161px 333.717px 0px;" class="animable"></path><path d="M331.5,332.89c-.21.35-.07,2.16,3.38,2C333.35,331.75,331.71,332.53,331.5,332.89Z" id="elcl03ys4bthh" style="transform-origin: 333.159px 333.717px 0px;" class="animable"></path><path d="M283.5,308.89c-.2.35-.07,2.16,3.38,2C285.35,307.75,283.71,308.53,283.5,308.89Z" id="el2wnps09e5kp" style="transform-origin: 285.161px 309.717px 0px;" class="animable"></path><path d="M331.5,308.89c-.21.35-.07,2.16,3.38,2C333.35,307.75,331.71,308.53,331.5,308.89Z" id="elq8vojt8d0jl" style="transform-origin: 333.159px 309.717px 0px;" class="animable"></path><path d="M315.82,298.26h0a1.24,1.24,0,0,0,.52-1.37c-.2-.34-1.63-1-3.06,1.37h0a5.57,5.57,0,0,0-.32.6A4.18,4.18,0,0,0,315.82,298.26Z" id="elrimgyv4ljzg" style="transform-origin: 314.672px 297.724px 0px;" class="animable"></path><path d="M267.82,298.26h0a1.24,1.24,0,0,0,.52-1.37c-.2-.34-1.63-1-3.06,1.37h0a5.57,5.57,0,0,0-.32.6A4.18,4.18,0,0,0,267.82,298.26Z" id="el2i7h2p37vjj" style="transform-origin: 266.672px 297.724px 0px;" class="animable"></path><path d="M263.92,414.35c-.41,0-1.91,1,0,3.91C265.83,415.37,264.33,414.35,263.92,414.35Z" id="elgbtwwmj5cc5" style="transform-origin: 263.92px 416.305px 0px;" class="animable"></path><path d="M263.92,438.35c-.41,0-1.91,1,0,3.91C265.83,439.37,264.33,438.35,263.92,438.35Z" id="elc9ielz2irte" style="transform-origin: 263.92px 440.305px 0px;" class="animable"></path><path d="M287.92,426.35c-.41,0-1.91,1,0,3.91C289.83,427.37,288.33,426.35,287.92,426.35Z" id="elsbcycwrstkl" style="transform-origin: 287.92px 428.305px 0px;" class="animable"></path><path d="M263.92,390.35c-.41,0-1.91,1,0,3.91C265.83,391.37,264.33,390.35,263.92,390.35Z" id="elnkvug1je6b9" style="transform-origin: 263.92px 392.305px 0px;" class="animable"></path><path d="M287.92,402.35c-.41,0-1.91,1,0,3.91C289.83,403.37,288.33,402.35,287.92,402.35Z" id="el2cbmj7767gs" style="transform-origin: 287.92px 404.305px 0px;" class="animable"></path><path d="M265,418.86c3.46.19,3.58-1.62,3.38-2S266.49,415.75,265,418.86Z" id="elgh4iyvwdxgn" style="transform-origin: 266.72px 417.689px 0px;" class="animable"></path><path d="M267.58,440.53h-.21a1.66,1.66,0,0,0-.73.23l-.26.18a4.62,4.62,0,0,0-1.1,1.31h0a5.57,5.57,0,0,0-.32.6,4.18,4.18,0,0,0,2.86-.6h0a1.24,1.24,0,0,0,.52-1.37A1,1,0,0,0,267.58,440.53Z" id="elb7guj082gv" style="transform-origin: 266.672px 441.714px 0px;" class="animable"></path><path d="M289,430.86c3.46.19,3.58-1.62,3.38-2S290.49,427.75,289,430.86Z" id="elke4b5tvbt4j" style="transform-origin: 290.72px 429.689px 0px;" class="animable"></path><path d="M265,394.86c3.46.19,3.58-1.62,3.38-2S266.49,391.75,265,394.86Z" id="eljo6ivdrel8" style="transform-origin: 266.72px 393.689px 0px;" class="animable"></path><path d="M289,406.86c3.46.19,3.58-1.62,3.38-2S290.49,403.75,289,406.86Z" id="elm67db0xd4d" style="transform-origin: 290.72px 405.689px 0px;" class="animable"></path><path d="M283.5,428.89c-.2.35-.07,2.16,3.38,2C285.35,427.75,283.71,428.53,283.5,428.89Z" id="eljx5jhfc0eu" style="transform-origin: 285.161px 429.717px 0px;" class="animable"></path><path d="M283.5,404.89c-.2.35-.07,2.16,3.38,2C285.35,403.75,283.71,404.53,283.5,404.89Z" id="elkidlvvz3woh" style="transform-origin: 285.161px 405.717px 0px;" class="animable"></path><path d="M287.92,450.35c-.41,0-1.91,1,0,3.91C289.83,451.37,288.33,450.35,287.92,450.35Z" id="el0aq38t9n5p3" style="transform-origin: 287.92px 452.305px 0px;" class="animable"></path><path d="M289,454.86c3.46.19,3.58-1.62,3.38-2S290.49,451.75,289,454.86Z" id="elbxq02n0i02n" style="transform-origin: 290.72px 453.689px 0px;" class="animable"></path><path d="M283.5,452.89c-.2.35-.07,2.16,3.38,2C285.35,451.75,283.71,452.53,283.5,452.89Z" id="elnpf1gb1vf38" style="transform-origin: 285.161px 453.717px 0px;" class="animable"></path><path d="M215.92,222.35c-.41,0-1.91,1,0,3.91C217.83,223.37,216.33,222.35,215.92,222.35Z" id="elrnmev5673u" style="transform-origin: 215.92px 224.305px 0px;" class="animable"></path><path d="M192.49,210.68c0,.54.08,1.29.14,2.23A2.09,2.09,0,0,0,192.49,210.68Z" id="elmj7huy7tesn" style="transform-origin: 192.689px 211.795px 0px;" class="animable"></path><path d="M219.58,224.53a1.82,1.82,0,0,0-1.2.42,4,4,0,0,0-.56.54,5.7,5.7,0,0,0-.54.77l0,.06c-.09.16-.19.34-.28.54a4.18,4.18,0,0,0,2.86-.6h0a1.8,1.8,0,0,0,.2-.18,1.56,1.56,0,0,0,.25-.36,1,1,0,0,0,.07-.83A1,1,0,0,0,219.58,224.53Z" id="eleyzvsl1d7su" style="transform-origin: 218.72px 225.718px 0px;" class="animable"></path><path d="M193,214.86c3.46.19,3.58-1.62,3.38-2S194.49,211.75,193,214.86Z" id="elbllno1ex93" style="transform-origin: 194.72px 213.689px 0px;" class="animable"></path><path d="M168.84,271.46a1.34,1.34,0,0,0-.13-.44h0a1.45,1.45,0,0,0-.1-.18h0a1.19,1.19,0,0,0-.23-.26h0a.93.93,0,0,0-.24-.15h0a.43.43,0,0,0-.4,0c-.46.2-1.21,1-.37,2.86a8.25,8.25,0,0,0,.57,1,8.25,8.25,0,0,0,.57-1,3.58,3.58,0,0,0,.38-1.51,2.46,2.46,0,0,0,0-.28Z" id="elj9818iym12f" style="transform-origin: 167.942px 272.335px 0px;" class="animable"></path><path d="M215.92,270.35c-.41,0-1.91,1,0,3.91C217.83,271.37,216.33,270.35,215.92,270.35Z" id="el1979rz5tdxt" style="transform-origin: 215.92px 272.305px 0px;" class="animable"></path><path d="M215.92,294.35c-.41,0-1.91,1,0,3.91C217.83,295.37,216.33,294.35,215.92,294.35Z" id="elvsdid60x8v" style="transform-origin: 215.92px 296.305px 0px;" class="animable"></path><path d="M168.84,295.46a1.34,1.34,0,0,0-.13-.44h0a1.45,1.45,0,0,0-.1-.18h0a1.19,1.19,0,0,0-.23-.26h0a.93.93,0,0,0-.24-.15h0a.43.43,0,0,0-.4,0c-.46.2-1.21,1-.37,2.86a8.25,8.25,0,0,0,.57,1,8.25,8.25,0,0,0,.57-1,3.58,3.58,0,0,0,.38-1.51,2.46,2.46,0,0,0,0-.28Z" id="eldsrfgli1akm" style="transform-origin: 167.942px 296.335px 0px;" class="animable"></path><path d="M191.92,282.35c-.41,0-1.91,1,0,3.91C193.83,283.37,192.33,282.35,191.92,282.35Z" id="elhqjxzwv9yf7" style="transform-origin: 191.92px 284.305px 0px;" class="animable"></path><path d="M239.92,282.35c-.41,0-1.91,1,0,3.91C241.83,283.37,240.33,282.35,239.92,282.35Z" id="elgxtjxuicstv" style="transform-origin: 239.92px 284.305px 0px;" class="animable"></path><path d="M215.92,246.35c-.41,0-1.91,1,0,3.91C217.83,247.37,216.33,246.35,215.92,246.35Z" id="elyrqxf9c5fn" style="transform-origin: 215.92px 248.305px 0px;" class="animable"></path><path d="M191.92,258.35c-.41,0-1.91,1,0,3.91C193.83,259.37,192.33,258.35,191.92,258.35Z" id="elq8e8ka6g3te" style="transform-origin: 191.92px 260.305px 0px;" class="animable"></path><path d="M239.92,258.35c-.41,0-1.91,1,0,3.91C241.83,259.37,240.33,258.35,239.92,258.35Z" id="el5y0ime71dmi" style="transform-origin: 239.92px 260.305px 0px;" class="animable"></path><path d="M169,274.86c3.46.19,3.58-1.62,3.38-2S170.49,271.75,169,274.86Z" id="elzfvib6rsc2" style="transform-origin: 170.72px 273.689px 0px;" class="animable"></path><path d="M217,274.86c3.45.19,3.58-1.62,3.38-2S218.49,271.75,217,274.86Z" id="eluucp2att8xg" style="transform-origin: 218.719px 273.689px 0px;" class="animable"></path><path d="M193,286.86c3.46.19,3.58-1.62,3.38-2S194.49,283.75,193,286.86Z" id="elgn734uh2da7" style="transform-origin: 194.72px 285.689px 0px;" class="animable"></path><path d="M241,286.86c3.45.19,3.58-1.62,3.38-2S242.49,283.75,241,286.86Z" id="elhqg4ewyjppl" style="transform-origin: 242.719px 285.689px 0px;" class="animable"></path><path d="M217,250.86c3.45.19,3.58-1.62,3.38-2S218.49,247.75,217,250.86Z" id="eln9x3opxabl7" style="transform-origin: 218.719px 249.689px 0px;" class="animable"></path><path d="M193,262.86c3.46.19,3.58-1.62,3.38-2S194.49,259.75,193,262.86Z" id="el6hc98iw6kxu" style="transform-origin: 194.72px 261.689px 0px;" class="animable"></path><path d="M241,262.86c3.45.19,3.58-1.62,3.38-2S242.49,259.75,241,262.86Z" id="elenqr20lgt5" style="transform-origin: 242.719px 261.689px 0px;" class="animable"></path><path d="M196.34,236.89c-.2-.34-1.66-1-3.11,1.45,0,.18,0,.35,0,.52C196.41,239,196.54,237.23,196.34,236.89Z" id="el0jvzf6vrc22b" style="transform-origin: 194.815px 237.707px 0px;" class="animable"></path><path d="M211.5,272.89c-.2.35-.07,2.16,3.38,2C213.35,271.75,211.71,272.53,211.5,272.89Z" id="eldofb2s4laou" style="transform-origin: 213.161px 273.717px 0px;" class="animable"></path><path d="M211.5,296.89a1.24,1.24,0,0,0,.52,1.37h0a4.2,4.2,0,0,0,2.86.6,5.57,5.57,0,0,0-.32-.6C213.13,295.86,211.7,296.55,211.5,296.89Z" id="elluobodnqem" style="transform-origin: 213.168px 297.719px 0px;" class="animable"></path><path d="M187.5,284.89c-.2.35-.07,2.16,3.38,2C189.35,283.75,187.71,284.53,187.5,284.89Z" id="ell4camz63pth" style="transform-origin: 189.161px 285.717px 0px;" class="animable"></path><path d="M259.5,272.89c-.21.35-.07,2.16,3.38,2C261.35,271.75,259.71,272.53,259.5,272.89Z" id="elsvsz26shdx9" style="transform-origin: 261.159px 273.717px 0px;" class="animable"></path><path d="M262.56,298.26c-1.43-2.4-2.86-1.71-3.06-1.37a1.24,1.24,0,0,0,.52,1.37h0a4.18,4.18,0,0,0,2.86.6,5.57,5.57,0,0,0-.32-.6Z" id="eltydz2bqj27d" style="transform-origin: 261.168px 297.719px 0px;" class="animable"></path><path d="M235.5,284.89c-.21.35-.07,2.16,3.38,2C237.35,283.75,235.71,284.53,235.5,284.89Z" id="elacm8tlx1hpl" style="transform-origin: 237.159px 285.717px 0px;" class="animable"></path><path d="M211.5,248.89c-.2.35-.07,2.16,3.38,2C213.35,247.75,211.71,248.53,211.5,248.89Z" id="elyliwqj2gctn" style="transform-origin: 213.161px 249.717px 0px;" class="animable"></path><path d="M187.5,260.89c-.2.35-.07,2.16,3.38,2C189.35,259.75,187.71,260.53,187.5,260.89Z" id="eltk3nzyc1z4i" style="transform-origin: 189.161px 261.717px 0px;" class="animable"></path><path d="M235.5,260.89c-.21.35-.07,2.16,3.38,2C237.35,259.75,235.71,260.53,235.5,260.89Z" id="elgdrocncouw" style="transform-origin: 237.159px 261.717px 0px;" class="animable"></path><path d="M237,238.71c-.09-.28-.18-.55-.26-.84s-.22-.87-.32-1.34a1.06,1.06,0,0,0-.92.36C235.34,237.16,235.39,238.3,237,238.71Z" id="elqn9v6r5ube" style="transform-origin: 236.22px 237.617px 0px;" class="animable"></path><path d="M214.56,226.26a5.7,5.7,0,0,0-.54-.77,3.5,3.5,0,0,0-.56-.54,1.82,1.82,0,0,0-1.2-.42,1,1,0,0,0-.76.36,1,1,0,0,0,.07.83,1.56,1.56,0,0,0,.25.36l.2.18h0a4.2,4.2,0,0,0,2.86.6c-.09-.2-.19-.38-.28-.54Z" id="elfofjvxg9p7w" style="transform-origin: 213.161px 225.718px 0px;" class="animable"></path><path d="M168.84,343.46a1.34,1.34,0,0,0-.13-.44h0a1.45,1.45,0,0,0-.1-.18h0a1.19,1.19,0,0,0-.23-.26h0a.93.93,0,0,0-.24-.15h0a.43.43,0,0,0-.4,0c-.46.2-1.21,1-.37,2.86a8.25,8.25,0,0,0,.57,1,8.25,8.25,0,0,0,.57-1,3.58,3.58,0,0,0,.38-1.51,2.46,2.46,0,0,0,0-.28Z" id="elmt220dkimmi" style="transform-origin: 167.942px 344.335px 0px;" class="animable"></path><path d="M215.92,342.35c-.41,0-1.91,1,0,3.91C217.83,343.37,216.33,342.35,215.92,342.35Z" id="elggk71j0zrf" style="transform-origin: 215.92px 344.305px 0px;" class="animable"></path><path d="M215.92,366.35c-.41,0-1.91,1,0,3.91C217.83,367.37,216.33,366.35,215.92,366.35Z" id="elkcbr0og0rnk" style="transform-origin: 215.92px 368.305px 0px;" class="animable"></path><path d="M168.84,367.46a1.34,1.34,0,0,0-.13-.44h0a1.45,1.45,0,0,0-.1-.18h0a1.19,1.19,0,0,0-.23-.26h0a.93.93,0,0,0-.24-.15h0a.42.42,0,0,0-.4,0c-.46.2-1.21,1-.37,2.86a8.25,8.25,0,0,0,.57,1,8.25,8.25,0,0,0,.57-1,3.58,3.58,0,0,0,.38-1.51,2.46,2.46,0,0,0,0-.28Z" id="elidx2iqbdm5g" style="transform-origin: 167.942px 368.335px 0px;" class="animable"></path><path d="M191.92,354.35c-.41,0-1.91,1,0,3.91C193.83,355.37,192.33,354.35,191.92,354.35Z" id="el3vgdhy9ngmt" style="transform-origin: 191.92px 356.305px 0px;" class="animable"></path><path d="M239.92,354.35c-.41,0-1.91,1,0,3.91C241.83,355.37,240.33,354.35,239.92,354.35Z" id="elgtfatn56d39" style="transform-origin: 239.92px 356.305px 0px;" class="animable"></path><path d="M168.84,319.46a1.34,1.34,0,0,0-.13-.44h0a1.45,1.45,0,0,0-.1-.18h0a1.19,1.19,0,0,0-.23-.26h0a.93.93,0,0,0-.24-.15h0a.43.43,0,0,0-.4,0c-.46.2-1.21,1-.37,2.86a8.25,8.25,0,0,0,.57,1,8.25,8.25,0,0,0,.57-1,3.58,3.58,0,0,0,.38-1.51,2.46,2.46,0,0,0,0-.28Z" id="el3dlxqhozu8f" style="transform-origin: 167.942px 320.335px 0px;" class="animable"></path><path d="M215.92,318.35c-.41,0-1.91,1,0,3.91C217.83,319.37,216.33,318.35,215.92,318.35Z" id="el9ywihhz1dr" style="transform-origin: 215.92px 320.305px 0px;" class="animable"></path><path d="M191.92,330.35c-.41,0-1.91,1,0,3.91C193.83,331.37,192.33,330.35,191.92,330.35Z" id="el27kfks8ws9m" style="transform-origin: 191.92px 332.305px 0px;" class="animable"></path><path d="M239.92,330.35c-.41,0-1.91,1,0,3.91C241.83,331.37,240.33,330.35,239.92,330.35Z" id="elk36mubhodo" style="transform-origin: 239.92px 332.305px 0px;" class="animable"></path><path d="M191.92,306.35c-.41,0-1.91,1,0,3.91C193.83,307.37,192.33,306.35,191.92,306.35Z" id="elducb4bvme8d" style="transform-origin: 191.92px 308.305px 0px;" class="animable"></path><path d="M239.92,306.35c-.41,0-1.91,1,0,3.91C241.83,307.37,240.33,306.35,239.92,306.35Z" id="elm0xln8sffd" style="transform-origin: 239.92px 308.305px 0px;" class="animable"></path><path d="M169,346.86c3.46.19,3.58-1.62,3.38-2S170.49,343.75,169,346.86Z" id="elmulxcvzcg7" style="transform-origin: 170.72px 345.689px 0px;" class="animable"></path><path d="M217,346.86c3.45.19,3.58-1.62,3.38-2S218.49,343.75,217,346.86Z" id="el1nc7ml1iutg" style="transform-origin: 218.719px 345.689px 0px;" class="animable"></path><path d="M219.58,368.53a1.82,1.82,0,0,0-1.2.42,4,4,0,0,0-.56.54,5.7,5.7,0,0,0-.54.77l0,.06c-.09.16-.19.34-.28.54a4.18,4.18,0,0,0,2.86-.6h0a1.8,1.8,0,0,0,.2-.18,1.56,1.56,0,0,0,.25-.36,1,1,0,0,0,.07-.83A1,1,0,0,0,219.58,368.53Z" id="el231ln4vfakv" style="transform-origin: 218.72px 369.718px 0px;" class="animable"></path><path d="M171.58,368.53a1.82,1.82,0,0,0-1.2.42,4,4,0,0,0-.56.54,5.7,5.7,0,0,0-.54.77l0,.06c-.09.16-.19.34-.28.54a4.18,4.18,0,0,0,2.86-.6h0a1.8,1.8,0,0,0,.2-.18,1.56,1.56,0,0,0,.25-.36.73.73,0,0,0-.69-1.19Z" id="elfx2jowpkcj" style="transform-origin: 170.742px 369.712px 0px;" class="animable"></path><path d="M193,358.86c3.46.19,3.58-1.62,3.38-2S194.49,355.75,193,358.86Z" id="elma79m6nj0ua" style="transform-origin: 194.72px 357.689px 0px;" class="animable"></path><path d="M241,358.86c3.45.19,3.58-1.62,3.38-2S242.49,355.75,241,358.86Z" id="el2tuzpd32nze" style="transform-origin: 242.719px 357.689px 0px;" class="animable"></path><path d="M169,322.86c3.46.19,3.58-1.62,3.38-2S170.49,319.75,169,322.86Z" id="eldkhth4vj4ce" style="transform-origin: 170.72px 321.689px 0px;" class="animable"></path><path d="M217,322.86c3.45.19,3.58-1.62,3.38-2S218.49,319.75,217,322.86Z" id="elch100x1vi24" style="transform-origin: 218.719px 321.689px 0px;" class="animable"></path><path d="M193,334.86c3.46.19,3.58-1.62,3.38-2S194.49,331.75,193,334.86Z" id="el1hasnio0orq" style="transform-origin: 194.72px 333.689px 0px;" class="animable"></path><path d="M241,334.86c3.45.19,3.58-1.62,3.38-2S242.49,331.75,241,334.86Z" id="el7tadb7lctw6" style="transform-origin: 242.719px 333.689px 0px;" class="animable"></path><path d="M193,310.86c3.46.19,3.58-1.62,3.38-2S194.49,307.75,193,310.86Z" id="el0gun9k5f1b6" style="transform-origin: 194.72px 309.689px 0px;" class="animable"></path><path d="M241,310.86c3.45.19,3.58-1.62,3.38-2S242.49,307.75,241,310.86Z" id="el2ysgh3zfsuz" style="transform-origin: 242.719px 309.689px 0px;" class="animable"></path><path d="M211.5,344.89c-.2.35-.07,2.16,3.38,2C213.35,343.75,211.71,344.53,211.5,344.89Z" id="elx1xrml0sg2" style="transform-origin: 213.161px 345.717px 0px;" class="animable"></path><path d="M187.5,356.89c-.2.35-.07,2.16,3.38,2C189.35,355.75,187.71,356.53,187.5,356.89Z" id="el7exd6nbbo8h" style="transform-origin: 189.161px 357.717px 0px;" class="animable"></path><path d="M259.5,344.89c-.21.35-.07,2.16,3.38,2C261.35,343.75,259.71,344.53,259.5,344.89Z" id="elh3ufo7rqkz" style="transform-origin: 261.159px 345.717px 0px;" class="animable"></path><path d="M235.5,356.89c-.21.35-.07,2.16,3.38,2C237.35,355.75,235.71,356.53,235.5,356.89Z" id="el7h1hlkj7es6" style="transform-origin: 237.159px 357.717px 0px;" class="animable"></path><path d="M173.59,373.26s26,6.67,58.66-18.66,45.34-15.34,44,2.66-29.33,34.67-41.33,36.67C215.19,397.22,197.59,402.6,173.59,373.26Z" id="el3qzhe3pc6g6" style="transform-origin: 224.968px 367.962px 0px;" class="animable"></path><path d="M211.5,320.89c-.2.35-.07,2.16,3.38,2C213.35,319.75,211.71,320.53,211.5,320.89Z" id="elb212s2dmjih" style="transform-origin: 213.161px 321.717px 0px;" class="animable"></path><path d="M187.5,332.89c-.2.35-.07,2.16,3.38,2C189.35,331.75,187.71,332.53,187.5,332.89Z" id="eleo7gtl4168p" style="transform-origin: 189.161px 333.717px 0px;" class="animable"></path><path d="M259.5,320.89c-.21.35-.07,2.16,3.38,2C261.35,319.75,259.71,320.53,259.5,320.89Z" id="eli2eppbyw94k" style="transform-origin: 261.159px 321.717px 0px;" class="animable"></path><path d="M235.5,332.89c-.21.35-.07,2.16,3.38,2C237.35,331.75,235.71,332.53,235.5,332.89Z" id="elgfcy41sxuv7" style="transform-origin: 237.159px 333.717px 0px;" class="animable"></path><path d="M187.5,308.89c-.2.35-.07,2.16,3.38,2C189.35,307.75,187.71,308.53,187.5,308.89Z" id="el3riiagvz2gd" style="transform-origin: 189.161px 309.717px 0px;" class="animable"></path><path d="M235.5,308.89c-.21.35-.07,2.16,3.38,2C237.35,307.75,235.71,308.53,235.5,308.89Z" id="el5jhrx2q7n3i" style="transform-origin: 237.159px 309.717px 0px;" class="animable"></path><path d="M219.82,298.26h0a1.24,1.24,0,0,0,.52-1.37c-.2-.34-1.63-1-3.06,1.37h0a5.57,5.57,0,0,0-.32.6A4.18,4.18,0,0,0,219.82,298.26Z" id="el2hyr53z8bnb" style="transform-origin: 218.672px 297.724px 0px;" class="animable"></path><path d="M171.82,298.26h0a1.24,1.24,0,0,0,.52-1.37c-.2-.34-1.63-1-3.06,1.37h0a5.57,5.57,0,0,0-.32.6A4.18,4.18,0,0,0,171.82,298.26Z" id="el9015ob21uzg" style="transform-origin: 170.672px 297.724px 0px;" class="animable"></path><path d="M168.84,415.46a1.34,1.34,0,0,0-.13-.44h0a1.45,1.45,0,0,0-.1-.18h0a1.19,1.19,0,0,0-.23-.26h0a.93.93,0,0,0-.24-.15h0a.42.42,0,0,0-.4,0c-.46.2-1.21,1-.37,2.86a8.25,8.25,0,0,0,.57,1,8.25,8.25,0,0,0,.57-1,3.58,3.58,0,0,0,.38-1.51,2.46,2.46,0,0,0,0-.28Z" id="elhl02uwwp87g" style="transform-origin: 167.942px 416.335px 0px;" class="animable"></path><path d="M215.92,414.35c-.41,0-1.91,1,0,3.91C217.83,415.37,216.33,414.35,215.92,414.35Z" id="el4ltqhehvi79" style="transform-origin: 215.92px 416.305px 0px;" class="animable"></path><path d="M215.92,438.35c-.41,0-1.91,1,0,3.91C217.83,439.37,216.33,438.35,215.92,438.35Z" id="elhblpkdqxwdv" style="transform-origin: 215.92px 440.305px 0px;" class="animable"></path><path d="M168.84,439.46a1.34,1.34,0,0,0-.13-.44h0a1.45,1.45,0,0,0-.1-.18h0a1.19,1.19,0,0,0-.23-.26h0a.93.93,0,0,0-.24-.15h0a.42.42,0,0,0-.4,0c-.46.2-1.21,1-.37,2.86a8.25,8.25,0,0,0,.57,1,8.25,8.25,0,0,0,.57-1,3.58,3.58,0,0,0,.38-1.51,2.46,2.46,0,0,0,0-.28Z" id="elxcbkbpxlun" style="transform-origin: 167.942px 440.335px 0px;" class="animable"></path><path d="M191.92,426.35c-.41,0-1.91,1,0,3.91C193.83,427.37,192.33,426.35,191.92,426.35Z" id="elkatnnw7f64" style="transform-origin: 191.92px 428.305px 0px;" class="animable"></path><path d="M239.92,426.35c-.41,0-1.91,1,0,3.91C241.83,427.37,240.33,426.35,239.92,426.35Z" id="elpto9ek1vn" style="transform-origin: 239.92px 428.305px 0px;" class="animable"></path><path d="M168.84,391.46a1.34,1.34,0,0,0-.13-.44h0a1.45,1.45,0,0,0-.1-.18h0a1.19,1.19,0,0,0-.23-.26h0a.93.93,0,0,0-.24-.15h0a.42.42,0,0,0-.4,0c-.46.2-1.21,1-.37,2.86a8.25,8.25,0,0,0,.57,1,8.25,8.25,0,0,0,.57-1,3.58,3.58,0,0,0,.38-1.51,2.46,2.46,0,0,0,0-.28Z" id="el677yaxmyz5" style="transform-origin: 167.942px 392.335px 0px;" class="animable"></path><path d="M215.92,390.35c-.41,0-1.91,1,0,3.91C217.83,391.37,216.33,390.35,215.92,390.35Z" id="el2aix1epypf6" style="transform-origin: 215.92px 392.305px 0px;" class="animable"></path><path d="M191.92,402.35c-.41,0-1.91,1,0,3.91C193.83,403.37,192.33,402.35,191.92,402.35Z" id="elfryipvjm655" style="transform-origin: 191.92px 404.305px 0px;" class="animable"></path><path d="M239.92,402.35c-.41,0-1.91,1,0,3.91C241.83,403.37,240.33,402.35,239.92,402.35Z" id="el7eobj0qp7mv" style="transform-origin: 239.92px 404.305px 0px;" class="animable"></path><path d="M191.92,378.35c-.41,0-1.91,1,0,3.91C193.83,379.37,192.33,378.35,191.92,378.35Z" id="elniuta0vvct" style="transform-origin: 191.92px 380.305px 0px;" class="animable"></path><path d="M239.92,378.35c-.41,0-1.91,1,0,3.91C241.83,379.37,240.33,378.35,239.92,378.35Z" id="ellmor0tgsz6h" style="transform-origin: 239.92px 380.305px 0px;" class="animable"></path><path d="M169,418.86c3.46.19,3.58-1.62,3.38-2S170.49,415.75,169,418.86Z" id="elzbor1qhz2sn" style="transform-origin: 170.72px 417.689px 0px;" class="animable"></path><path d="M217,418.86c3.45.19,3.58-1.62,3.38-2S218.49,415.75,217,418.86Z" id="eludfj892615g" style="transform-origin: 218.719px 417.689px 0px;" class="animable"></path><path d="M219.58,440.53h-.21a1.66,1.66,0,0,0-.73.23l-.26.18a4.62,4.62,0,0,0-1.1,1.31h0a5.57,5.57,0,0,0-.32.6,4.18,4.18,0,0,0,2.86-.6h0a1.24,1.24,0,0,0,.52-1.37A1,1,0,0,0,219.58,440.53Z" id="elk7708qqieu" style="transform-origin: 218.672px 441.714px 0px;" class="animable"></path><path d="M171.58,440.53h-.21a1.66,1.66,0,0,0-.73.23l-.26.18a4.62,4.62,0,0,0-1.1,1.31h0a5.57,5.57,0,0,0-.32.6,4.18,4.18,0,0,0,2.86-.6h0a1.24,1.24,0,0,0,.52-1.37A1,1,0,0,0,171.58,440.53Z" id="el77txznk39d8" style="transform-origin: 170.672px 441.714px 0px;" class="animable"></path><path d="M193,430.86c3.46.19,3.58-1.62,3.38-2S194.49,427.75,193,430.86Z" id="el39g4ltqozlr" style="transform-origin: 194.72px 429.689px 0px;" class="animable"></path><path d="M241,430.86c3.45.19,3.58-1.62,3.38-2S242.49,427.75,241,430.86Z" id="el31pwzcxnhj2" style="transform-origin: 242.719px 429.689px 0px;" class="animable"></path><path d="M169,394.86c3.46.19,3.58-1.62,3.38-2S170.49,391.75,169,394.86Z" id="elebtun8t1rm5" style="transform-origin: 170.72px 393.689px 0px;" class="animable"></path><path d="M217,394.86c3.45.19,3.58-1.62,3.38-2S218.49,391.75,217,394.86Z" id="elbi0gley2wu6" style="transform-origin: 218.719px 393.689px 0px;" class="animable"></path><path d="M193,406.86c3.46.19,3.58-1.62,3.38-2S194.49,403.75,193,406.86Z" id="elpi3gwn1gmt" style="transform-origin: 194.72px 405.689px 0px;" class="animable"></path><path d="M241,406.86c3.45.19,3.58-1.62,3.38-2S242.49,403.75,241,406.86Z" id="el9aq7io1kjpg" style="transform-origin: 242.719px 405.689px 0px;" class="animable"></path><path d="M193,382.86c3.46.19,3.58-1.62,3.38-2S194.49,379.75,193,382.86Z" id="el21y18i87rh6" style="transform-origin: 194.72px 381.689px 0px;" class="animable"></path><path d="M241,382.86c3.45.19,3.58-1.62,3.38-2S242.49,379.75,241,382.86Z" id="elhr2z98gc5sr" style="transform-origin: 242.719px 381.689px 0px;" class="animable"></path><path d="M211.5,416.89c-.2.35-.07,2.16,3.38,2C213.35,415.75,211.71,416.53,211.5,416.89Z" id="elo5z0ya5cp6" style="transform-origin: 213.161px 417.717px 0px;" class="animable"></path><path d="M213.46,441l-.26-.18a1.62,1.62,0,0,0-.73-.23h-.21a1,1,0,0,0-.76.36,1.24,1.24,0,0,0,.52,1.37h0a4.2,4.2,0,0,0,2.86.6,5.57,5.57,0,0,0-.32-.6A4.46,4.46,0,0,0,213.46,441Z" id="elvtja56efzr8" style="transform-origin: 213.168px 441.778px 0px;" class="animable"></path><path d="M187.5,428.89c-.2.35-.07,2.16,3.38,2C189.35,427.75,187.71,428.53,187.5,428.89Z" id="elj4jjyruchdj" style="transform-origin: 189.161px 429.717px 0px;" class="animable"></path><path d="M259.5,416.89c-.21.35-.07,2.16,3.38,2C261.35,415.75,259.71,416.53,259.5,416.89Z" id="el66o0f2pw7dh" style="transform-origin: 261.159px 417.717px 0px;" class="animable"></path><path d="M262.56,442.26a4.62,4.62,0,0,0-1.1-1.31l-.26-.18a1.66,1.66,0,0,0-.73-.23h-.21a1,1,0,0,0-.76.36,1.24,1.24,0,0,0,.52,1.37h0a4.18,4.18,0,0,0,2.86.6,5.57,5.57,0,0,0-.32-.6Z" id="el5mbd5ksa5gk" style="transform-origin: 261.168px 441.729px 0px;" class="animable"></path><path d="M235.5,428.89c-.21.35-.07,2.16,3.38,2C237.35,427.75,235.71,428.53,235.5,428.89Z" id="elnqlprwkykli" style="transform-origin: 237.159px 429.717px 0px;" class="animable"></path><path d="M211.5,392.89c-.2.35-.07,2.16,3.38,2C213.35,391.75,211.71,392.53,211.5,392.89Z" id="elvaqp3oci8ys" style="transform-origin: 213.161px 393.717px 0px;" class="animable"></path><path d="M187.5,404.89c-.2.35-.07,2.16,3.38,2C189.35,403.75,187.71,404.53,187.5,404.89Z" id="el2qn5ucw01jr" style="transform-origin: 189.161px 405.717px 0px;" class="animable"></path><path d="M259.5,392.89c-.21.35-.07,2.16,3.38,2C261.35,391.75,259.71,392.53,259.5,392.89Z" id="elih77d2awenq" style="transform-origin: 261.159px 393.717px 0px;" class="animable"></path><path d="M235.5,404.89c-.21.35-.07,2.16,3.38,2C237.35,403.75,235.71,404.53,235.5,404.89Z" id="el79tu30q9bw3" style="transform-origin: 237.159px 405.717px 0px;" class="animable"></path><path d="M187.5,380.89c-.2.35-.07,2.16,3.38,2C189.35,379.75,187.71,380.53,187.5,380.89Z" id="elqu1y0wtmxhj" style="transform-origin: 189.161px 381.717px 0px;" class="animable"></path><path d="M235.5,380.89c-.21.35-.07,2.16,3.38,2C237.35,379.75,235.71,380.53,235.5,380.89Z" id="el7tzh5wgb2e9" style="transform-origin: 237.159px 381.717px 0px;" class="animable"></path><path d="M214.56,370.26a5.7,5.7,0,0,0-.54-.77,3.5,3.5,0,0,0-.56-.54,1.82,1.82,0,0,0-1.2-.42,1,1,0,0,0-.76.36,1,1,0,0,0,.07.83,1.56,1.56,0,0,0,.25.36l.2.18h0a4.2,4.2,0,0,0,2.86.6c-.09-.2-.19-.38-.28-.54Z" id="eltxdw2nnw29k" style="transform-origin: 213.161px 369.718px 0px;" class="animable"></path><path d="M262.56,370.26a5.7,5.7,0,0,0-.54-.77,4,4,0,0,0-.56-.54,1.82,1.82,0,0,0-1.2-.42,1,1,0,0,0-.76.36,1,1,0,0,0,.07.83,1.56,1.56,0,0,0,.25.36,1.8,1.8,0,0,0,.2.18h0a4.18,4.18,0,0,0,2.86.6c-.09-.2-.19-.38-.28-.54A.21.21,0,0,1,262.56,370.26Z" id="elnub03a8wtpm" style="transform-origin: 261.16px 369.718px 0px;" class="animable"></path><path d="M191.92,450.35c-.41,0-1.91,1,0,3.91C193.83,451.37,192.33,450.35,191.92,450.35Z" id="elzc0s3x3zalj" style="transform-origin: 191.92px 452.305px 0px;" class="animable"></path><path d="M239.92,450.35c-.41,0-1.91,1,0,3.91C241.83,451.37,240.33,450.35,239.92,450.35Z" id="eluqvlpsqfgs" style="transform-origin: 239.92px 452.305px 0px;" class="animable"></path><path d="M193,454.86c3.46.19,3.58-1.62,3.38-2S194.49,451.75,193,454.86Z" id="elsk4gevlyh1p" style="transform-origin: 194.72px 453.689px 0px;" class="animable"></path><path d="M241,454.86c3.45.19,3.58-1.62,3.38-2S242.49,451.75,241,454.86Z" id="elzynd22avgjd" style="transform-origin: 242.719px 453.689px 0px;" class="animable"></path><path d="M187.5,452.89c-.2.35-.07,2.16,3.38,2C189.35,451.75,187.71,452.53,187.5,452.89Z" id="elaul8vykrvjj" style="transform-origin: 189.161px 453.717px 0px;" class="animable"></path><path d="M235.5,452.89c-.21.35-.07,2.16,3.38,2C237.35,451.75,235.71,452.53,235.5,452.89Z" id="eli4zm8849c4d" style="transform-origin: 237.159px 453.717px 0px;" class="animable"></path><path d="M119.92,294.35c-.41,0-1.91,1,0,3.91C121.83,295.37,120.33,294.35,119.92,294.35Z" id="elepcwp0h5nlh" style="transform-origin: 119.92px 296.305px 0px;" class="animable"></path><path d="M143.92,282.35c-.41,0-1.91,1,0,3.91C145.83,283.37,144.33,282.35,143.92,282.35Z" id="elgpfx857toh" style="transform-origin: 143.92px 284.305px 0px;" class="animable"></path><path d="M144.8,259.27l-1.83.47a4.65,4.65,0,0,0,.95,2.52C144.85,260.86,145,259.89,144.8,259.27Z" id="eln1cmb8ojlb" style="transform-origin: 143.924px 260.765px 0px;" class="animable"></path><path d="M121,274.86c3.45.19,3.58-1.62,3.38-2S122.49,271.75,121,274.86Z" id="ell75ni76y2y" style="transform-origin: 122.719px 273.689px 0px;" class="animable"></path><path d="M145,286.86c3.45.19,3.58-1.62,3.38-2S146.49,283.75,145,286.86Z" id="eltiqivmdrd2p" style="transform-origin: 146.719px 285.689px 0px;" class="animable"></path><path d="M145,262.86c3.45.19,3.58-1.62,3.38-2S146.49,259.75,145,262.86Z" id="elcr9d8whb4zm" style="transform-origin: 146.719px 261.689px 0px;" class="animable"></path><path d="M115.5,296.89a1.24,1.24,0,0,0,.52,1.37h0a4.2,4.2,0,0,0,2.86.6,5.57,5.57,0,0,0-.32-.6C117.13,295.86,115.7,296.55,115.5,296.89Z" id="elvc0zd0qzx2k" style="transform-origin: 117.168px 297.719px 0px;" class="animable"></path><path d="M163.5,272.89c-.21.35-.07,2.16,3.38,2C165.35,271.75,163.71,272.53,163.5,272.89Z" id="elccpc41u6bpi" style="transform-origin: 165.159px 273.717px 0px;" class="animable"></path><path d="M166.56,298.26c-1.43-2.4-2.86-1.71-3.06-1.37a1.24,1.24,0,0,0,.52,1.37h0a4.18,4.18,0,0,0,2.86.6,5.57,5.57,0,0,0-.32-.6Z" id="elxrf943gchno" style="transform-origin: 165.168px 297.719px 0px;" class="animable"></path><path d="M139.5,284.89c-.21.35-.07,2.16,3.38,2C141.35,283.75,139.71,284.53,139.5,284.89Z" id="elgr2f9hejb5" style="transform-origin: 141.159px 285.717px 0px;" class="animable"></path><path d="M140.23,260.54l-.52.16a.66.66,0,0,0-.21.19c-.21.35-.07,2.16,3.38,2C141.91,260.88,140.9,260.48,140.23,260.54Z" id="el4na5p4hg44h" style="transform-origin: 141.159px 261.717px 0px;" class="animable"></path><path d="M71.92,342.35c-.41,0-1.91,1,0,3.91C73.83,343.37,72.33,342.35,71.92,342.35Z" id="elxs6gejidmcp" style="transform-origin: 71.92px 344.305px 0px;" class="animable"></path><path d="M95.92,354.35c-.41,0-1.91,1,0,3.91C97.83,355.37,96.33,354.35,95.92,354.35Z" id="elocifevkioo" style="transform-origin: 95.92px 356.305px 0px;" class="animable"></path><path d="M119.92,318.35c-.41,0-1.91,1,0,3.91C121.83,319.37,120.33,318.35,119.92,318.35Z" id="elncol7vjgeoh" style="transform-origin: 119.92px 320.305px 0px;" class="animable"></path><path d="M95.92,330.35c-.41,0-1.91,1,0,3.91C97.83,331.37,96.33,330.35,95.92,330.35Z" id="el1oddlbjsbdi" style="transform-origin: 95.92px 332.305px 0px;" class="animable"></path><path d="M143.92,330.35c-.41,0-1.91,1,0,3.91C145.83,331.37,144.33,330.35,143.92,330.35Z" id="elhvyzf5ebj1l" style="transform-origin: 143.92px 332.305px 0px;" class="animable"></path><path d="M95.92,306.35c-.41,0-1.91,1,0,3.91C97.83,307.37,96.33,306.35,95.92,306.35Z" id="elpzenf22pqk" style="transform-origin: 95.92px 308.305px 0px;" class="animable"></path><path d="M143.92,306.35c-.41,0-1.91,1,0,3.91C145.83,307.37,144.33,306.35,143.92,306.35Z" id="elogi6swlklpf" style="transform-origin: 143.92px 308.305px 0px;" class="animable"></path><path d="M73,346.86c3.46.19,3.59-1.62,3.38-2S74.49,343.75,73,346.86Z" id="elhryqr3gwdum" style="transform-origin: 74.7215px 345.689px 0px;" class="animable"></path><path d="M97.55,357.84c.89-.33,1.76-.7,2.62-1.12C99.75,356.44,98.67,356.25,97.55,357.84Z" id="el1idtl1hbwtb" style="transform-origin: 98.86px 357.186px 0px;" class="animable"></path><path d="M76.34,320.89a.84.84,0,0,0-.47-.3c-.62.79-1.21,1.54-1.72,2.25C76.44,322.6,76.52,321.2,76.34,320.89Z" id="el2drf6yi7mcx" style="transform-origin: 75.2756px 321.715px 0px;" class="animable"></path><path d="M121,322.86c3.45.19,3.58-1.62,3.38-2S122.49,319.75,121,322.86Z" id="elgn80vtav7yp" style="transform-origin: 122.719px 321.689px 0px;" class="animable"></path><path d="M97,334.86c3.46.19,3.58-1.62,3.38-2S98.49,331.75,97,334.86Z" id="el25349vxfovn" style="transform-origin: 98.7197px 333.689px 0px;" class="animable"></path><path d="M145,334.86c3.45.19,3.58-1.62,3.38-2S146.49,331.75,145,334.86Z" id="elkdot11jcy5d" style="transform-origin: 146.719px 333.689px 0px;" class="animable"></path><path d="M97,310.86c3.46.19,3.58-1.62,3.38-2S98.49,307.75,97,310.86Z" id="elizadea4lye" style="transform-origin: 98.7197px 309.689px 0px;" class="animable"></path><path d="M145,310.86c3.45.19,3.58-1.62,3.38-2S146.49,307.75,145,310.86Z" id="el379q9ofyzpu" style="transform-origin: 146.719px 309.689px 0px;" class="animable"></path><path d="M91.5,356.89c-.19.32-.09,1.84,2.54,2l.75-.17C93.29,355.79,91.71,356.54,91.5,356.89Z" id="eld8ad98p90g" style="transform-origin: 93.1142px 357.714px 0px;" class="animable"></path><path d="M163.5,344.89c-.21.35-.07,2.16,3.38,2C165.35,343.75,163.71,344.53,163.5,344.89Z" id="elnhqo7i66eid" style="transform-origin: 165.159px 345.717px 0px;" class="animable"></path><path d="M115.5,320.89c-.2.35-.07,2.16,3.38,2C117.35,319.75,115.71,320.53,115.5,320.89Z" id="eljzlo71wi4rs" style="transform-origin: 117.161px 321.717px 0px;" class="animable"></path><path d="M91.5,332.89c-.2.35-.07,2.16,3.38,2C93.35,331.75,91.71,332.53,91.5,332.89Z" id="elo1nmwkjyjnd" style="transform-origin: 93.1606px 333.717px 0px;" class="animable"></path><path d="M163.5,320.89c-.21.35-.07,2.16,3.38,2C165.35,319.75,163.71,320.53,163.5,320.89Z" id="else120stofg" style="transform-origin: 165.159px 321.717px 0px;" class="animable"></path><path d="M91.5,308.89c-.2.35-.07,2.16,3.38,2C93.35,307.75,91.71,308.53,91.5,308.89Z" id="elde0yvg0y8hu" style="transform-origin: 93.1606px 309.717px 0px;" class="animable"></path><path d="M139.5,308.89c-.21.35-.07,2.16,3.38,2C141.35,307.75,139.71,308.53,139.5,308.89Z" id="elv1zd880h4d" style="transform-origin: 141.159px 309.717px 0px;" class="animable"></path><path d="M123.82,298.26h0a1.24,1.24,0,0,0,.52-1.37c-.2-.34-1.63-1-3.06,1.37h0a5.57,5.57,0,0,0-.32.6A4.18,4.18,0,0,0,123.82,298.26Z" id="elw64juh75ym" style="transform-origin: 122.672px 297.724px 0px;" class="animable"></path><path d="M143.92,426.35c-.41,0-1.91,1,0,3.91C145.83,427.37,144.33,426.35,143.92,426.35Z" id="eluzongg5y50n" style="transform-origin: 143.92px 428.305px 0px;" class="animable"></path><path d="M144.69,404.74l-.84,1.41.07.11A6.38,6.38,0,0,0,144.69,404.74Z" id="elvh4t1p738ra" style="transform-origin: 144.27px 405.5px 0px;" class="animable"></path><path d="M145,430.86c3.45.19,3.58-1.62,3.38-2S146.49,427.75,145,430.86Z" id="elcjl4mrhm6oj" style="transform-origin: 146.719px 429.689px 0px;" class="animable"></path><path d="M145,406.86c3.45.19,3.58-1.62,3.38-2S146.49,403.75,145,406.86Z" id="el6q2rl2c7oj5" style="transform-origin: 146.719px 405.689px 0px;" class="animable"></path><path d="M163.5,416.89c-.21.35-.07,2.16,3.38,2C165.35,415.75,163.71,416.53,163.5,416.89Z" id="eleuuapkz9tnh" style="transform-origin: 165.159px 417.717px 0px;" class="animable"></path><path d="M166.56,442.26a4.62,4.62,0,0,0-1.1-1.31l-.26-.18a1.66,1.66,0,0,0-.73-.23h-.21a1,1,0,0,0-.76.36,1.24,1.24,0,0,0,.52,1.37h0a4.18,4.18,0,0,0,2.86.6,5.57,5.57,0,0,0-.32-.6Z" id="elv3uacfehjy" style="transform-origin: 165.168px 441.729px 0px;" class="animable"></path><path d="M139.5,428.89c-.21.35-.07,2.16,3.38,2C141.35,427.75,139.71,428.53,139.5,428.89Z" id="el3whnfjl7xzp" style="transform-origin: 141.159px 429.717px 0px;" class="animable"></path><path d="M163.5,392.89c-.21.35-.07,2.16,3.38,2C165.35,391.75,163.71,392.53,163.5,392.89Z" id="el0frlpldwhzzj" style="transform-origin: 165.159px 393.717px 0px;" class="animable"></path><path d="M166.56,370.26a5.7,5.7,0,0,0-.54-.77,4,4,0,0,0-.56-.54,1.82,1.82,0,0,0-1.2-.42,1,1,0,0,0-.76.36,1,1,0,0,0,.07.83,1.56,1.56,0,0,0,.25.36,1.8,1.8,0,0,0,.2.18h0a4.18,4.18,0,0,0,2.86.6c-.09-.2-.19-.38-.28-.54Z" id="eliic27ltq3od" style="transform-origin: 165.161px 369.718px 0px;" class="animable"></path><path d="M143.92,450.35c-.41,0-1.91,1,0,3.91C145.83,451.37,144.33,450.35,143.92,450.35Z" id="el2h4mlii3nfe" style="transform-origin: 143.92px 452.305px 0px;" class="animable"></path><path d="M145,454.86c3.45.19,3.58-1.62,3.38-2S146.49,451.75,145,454.86Z" id="el8nx65xzlweo" style="transform-origin: 146.719px 453.689px 0px;" class="animable"></path><path d="M139.5,452.89c-.21.35-.07,2.16,3.38,2C141.35,451.75,139.71,452.53,139.5,452.89Z" id="el3bm92kbjqrt" style="transform-origin: 141.159px 453.717px 0px;" class="animable"></path><path d="M69.57,345.05a18.93,18.93,0,0,0,.69,1.82h.62A5.37,5.37,0,0,0,69.57,345.05Z" id="eloyyofa1fztk" style="transform-origin: 70.225px 345.96px 0px;" class="animable"></path></g></g></g><path d="M303.22,455.26s1.79-24.55-9-49.11S281,379.82,281,372.63s7.22-15.58,8.42-31.75.6-24,.6-24,25.75,40.72,43.72,43.12,28.75-14.37,22.16-37.13-35.34-41.32-46.71-56.3-37.14-15-50.31-15-19.76-4.79-22.16-13.77-2.39-27-2.39-27-15.58,9.58-41.93-1.2c0,0,2.4,32.94-.6,37.73S184.64,257,166.67,257s-32.94,3.6-41.32,12-43.12,41.92-52.1,55.1-4.2,27.55,6.58,32.94,21.56.59,29.35-6.59,32.34-29.95,32.34-29.95,0,13.78,6.59,33.54,12,17.37,7.18,31.74-14.37,18.57-17.36,37.13a176.46,176.46,0,0,0-2.4,32.34" style="fill: none; stroke: rgb(38, 50, 56); stroke-linecap: round; stroke-linejoin: round; transform-origin: 213.195px 332.43px 0px;" id="el8ggwpfhwl23" class="animable"></path><path d="M141.52,320.51a75.26,75.26,0,0,1,3.95-19" style="fill: rgb(255, 255, 255); stroke: rgb(38, 50, 56); stroke-linecap: round; stroke-linejoin: round; transform-origin: 143.495px 311.01px 0px;" id="ell3j3l1kdjj" class="animable"></path><path d="M290,316.92a74,74,0,0,0-5.47-14.38" style="fill: none; stroke: rgb(38, 50, 56); stroke-linecap: round; stroke-linejoin: round; transform-origin: 287.265px 309.73px 0px;" id="elrppwraptbqf" class="animable"></path><line x1="202.03" y1="383.3" x2="239.75" y2="371.21" style="fill: none; stroke: rgb(38, 50, 56); stroke-linecap: round; stroke-linejoin: round; transform-origin: 220.89px 377.255px 0px;" id="elpi47bd9mpv" class="animable"></line><path d="M219.11,373.34a122.25,122.25,0,0,1,27.4-7.47" style="fill: none; stroke: rgb(38, 50, 56); stroke-linecap: round; stroke-linejoin: round; transform-origin: 232.81px 369.605px 0px;" id="elmeyuoqlydui" class="animable"></path><path d="M208.59,297.16c29.88,5.76,41.41-22.88,45.42-45.77-9.95-1.1-15.19-5.73-17.27-13.52-2.39-9-2.39-27-2.39-27s-15.58,9.58-41.93-1.2c0,0,2.4,32.94-.6,37.73-2.08,3.34-4.76,6.68-12.26,8.39C179.29,266.07,181.36,291.9,208.59,297.16Z" style="fill: rgb(178, 178, 178); transform-origin: 216.775px 253.789px 0px;" id="el9ujq0myffss" class="animable"></path><g style="clip-path: url(&quot;#freepik--clip-path-2--inject-2&quot;); transform-origin: 214.255px 224.496px 0px;" id="el1vkhiujc2si" class="animable"><g id="el3ttevotbh0y"><path d="M236.09,234.91c-1.74-9.46-1.74-24-1.74-24s-15.58,9.58-41.93-1.2c0,0,1,13.77.9,24.8C216,242.39,229.12,239.05,236.09,234.91Z" style="opacity: 0.2; transform-origin: 214.255px 224.496px 0px;" class="animable" id="el4wt38ed7912"></path></g></g><path d="M208.59,297.16c29.88,5.76,41.41-22.88,45.42-45.77-9.95-1.1-15.19-5.73-17.27-13.52-2.39-9-2.39-27-2.39-27s-15.58,9.58-41.93-1.2c0,0,2.4,32.94-.6,37.73-2.08,3.34-4.76,6.68-12.26,8.39C179.29,266.07,181.36,291.9,208.59,297.16Z" style="fill: none; stroke: rgb(38, 50, 56); stroke-linecap: round; stroke-linejoin: round; transform-origin: 216.775px 253.789px 0px;" id="el7ojro737qto" class="animable"></path><circle cx="253.77" cy="192.01" r="7.42" style="fill: #FFC100; stroke: rgb(38, 50, 56); stroke-linecap: round; stroke-linejoin: round; transform-origin: 253.77px 192.01px 0px;" id="eleq2mear922g" class="animable"></circle><circle cx="174.51" cy="192.01" r="7.42" style="fill: #FFC100; stroke: rgb(38, 50, 56); stroke-linecap: round; stroke-linejoin: round; transform-origin: 174.51px 192.01px 0px;" id="el3l9180gen12" class="animable"></circle><path d="M253.09,166.72s3.71-11.47,8.1-7.42-1.35,19.56-4.39,23.27-6.07,3.71-5.73-1.35S253.09,166.72,253.09,166.72Z" style="fill: rgb(178, 178, 178); stroke: rgb(38, 50, 56); stroke-linecap: round; stroke-linejoin: round; transform-origin: 256.915px 171.819px 0px;" id="elk0fg3dqf1zb" class="animable"></path><path d="M176.39,178.26s1,26.79,20.72,39.93,34.37,5.56,42.46-5.56,13.15-22.24,13.15-38.41,2-23.26-3.54-33.37-24.77-15.16-24.77-15.16A303.44,303.44,0,0,1,198.63,154C183.46,168.65,176.39,178.26,176.39,178.26Z" style="fill: rgb(178, 178, 178); transform-origin: 214.731px 175.414px 0px;" id="elvbqblk2o51" class="animable"></path><g style="clip-path: url(&quot;#freepik--clip-path-3--inject-2&quot;); transform-origin: 200.455px 159.64px 0px;" id="elgfxk4wlfr16" class="animable"><g id="elrr2uy77k02c"><path d="M224.41,125.69A303.44,303.44,0,0,1,198.63,154c-15.17,14.65-22.24,24.26-22.24,24.26a61.43,61.43,0,0,0,3.07,15.33c26.64-20.38,41.19-57,45.06-67.87Z" style="opacity: 0.2; transform-origin: 200.455px 159.64px 0px;" class="animable" id="elwds3e9q49s"></path></g></g><path d="M176.39,178.26s1,26.79,20.72,39.93,34.37,5.56,42.46-5.56,13.15-22.24,13.15-38.41,2-23.26-3.54-33.37-24.77-15.16-24.77-15.16A303.44,303.44,0,0,1,198.63,154C183.46,168.65,176.39,178.26,176.39,178.26Z" style="fill: none; stroke: rgb(38, 50, 56); stroke-linecap: round; stroke-linejoin: round; transform-origin: 214.731px 175.414px 0px;" id="els7jp5lhi7o" class="animable"></path><line x1="195.04" y1="175.11" x2="206.39" y2="176.17" style="fill: none; stroke: rgb(38, 50, 56); stroke-linecap: round; stroke-linejoin: round; transform-origin: 200.715px 175.64px 0px;" id="el3o0kj39yb97" class="animable"></line><path d="M229.44,174.75s7.45-1.42,11,0" style="fill: none; stroke: rgb(38, 50, 56); stroke-linecap: round; stroke-linejoin: round; transform-origin: 234.94px 174.434px 0px;" id="elgsr2o7en4ot" class="animable"></path><path d="M204.86,169.92c0,2.7-1.21,4.89-2.7,4.89s-2.69-2.19-2.69-4.89,1.2-4.89,2.69-4.89S204.86,167.22,204.86,169.92Z" style="fill: rgb(38, 50, 56); transform-origin: 202.165px 169.92px 0px;" id="elkkbpzn6p3i" class="animable"></path><path d="M210.93,187a9.86,9.86,0,0,0,11.81-1" style="fill: none; stroke: rgb(38, 50, 56); stroke-linecap: round; stroke-linejoin: round; transform-origin: 216.835px 187.254px 0px;" id="eljdq8ok6kd8b" class="animable"></path><path d="M214,198.42s10.45,4.39,16.52-9.78" style="fill: none; stroke: rgb(38, 50, 56); stroke-linecap: round; stroke-linejoin: round; transform-origin: 222.26px 193.851px 0px;" id="elqj38ag28cqs" class="animable"></path><path d="M227.46,170.09s6.41-4.39,12.82-1.69" style="fill: none; stroke: rgb(38, 50, 56); stroke-linecap: round; stroke-linejoin: round; stroke-width: 2px; transform-origin: 233.87px 168.806px 0px;" id="el8ao6zovdvwt" class="animable"></path><path d="M225.44,159s7.08-7.08,16.86-1.35" style="fill: none; stroke: rgb(38, 50, 56); stroke-linecap: round; stroke-linejoin: round; stroke-width: 2px; transform-origin: 233.87px 157.206px 0px;" id="eleynpnw63w6h" class="animable"></path><path d="M210.26,154.57s-6.07-6.07-14.51-.33" style="fill: none; stroke: rgb(38, 50, 56); stroke-linecap: round; stroke-linejoin: round; stroke-width: 2px; transform-origin: 203.005px 153.171px 0px;" id="el8s0ndtssvfq" class="animable"></path><path d="M73.25,324.11s-10.78,12-10.78,24.55,7.18,24,27,41.92,38.32,31.14,46.11,35.34,15.57-1.2,15.57-1.2,12.88,12.87,14.37,9.88-4.49-7.49-5.69-9.28a24.6,24.6,0,0,0-3.59-3.89s6.29.89,8.69,3,6.28,5.69,8.08,5.39,1.8-1.8-.9-5.39a32.06,32.06,0,0,0-7.78-7.19c-1.8-1.19-7.79-4.49-7.79-4.49s8.68-.6,11.68,1.2,11.08,7.19,11.68,4.79.6-3.89-2.4-6.59-9-6-12.57-6.59a37.13,37.13,0,0,1-7.19-2.09s6.89-2.4,9.28-2.4,12,4.79,14.67,4.2,1.2-3-.89-4.5-11.38-5.09-15.28-5.39-25.75,7.19-28.44,7.19-9.58-9.58-16.77-22.46-9.88-32.94-25.15-39.82" style="fill: #FFC100; transform-origin: 122.802px 379.58px 0px;" id="elvadc419w0je" class="animable"></path><g style="clip-path: url(&quot;#freepik--clip-path-4--inject-2&quot;); transform-origin: 116.984px 384.905px 0px;" id="elcl7gokraybk" class="animable"><g id="elxsbhw14y4e"><g style="opacity: 0.2; transform-origin: 116.984px 384.905px 0px;" class="animable" id="elyganekw691"><path d="M71.92,346.26c1.91-2.89.41-3.91,0-3.91C72.33,342.35,73.83,343.37,71.92,346.26Z" id="el4s1j0ctp157" style="transform-origin: 72.3938px 344.305px 0px;" class="animable"></path><path d="M71.92,366.35c.41,0,1.91,1,0,3.91C73.83,367.37,72.33,366.35,71.92,366.35Z" id="el52u5501atct" style="transform-origin: 72.3938px 368.305px 0px;" class="animable"></path><path d="M95.92,354.35c-.41,0-1.91,1,0,3.91C97.83,355.37,96.33,354.35,95.92,354.35Z" id="elsnikuimbbeo" style="transform-origin: 95.92px 356.305px 0px;" class="animable"></path><path d="M76.34,344.89c-.21-.36-1.85-1.14-3.38,2C76.42,347.05,76.55,345.24,76.34,344.89Z" id="el4lkxsbns1hd" style="transform-origin: 74.6815px 345.717px 0px;" class="animable"></path><path d="M76,370.08a1.56,1.56,0,0,0,.25-.36.73.73,0,0,0-.69-1.19,1.82,1.82,0,0,0-1.2.42,4,4,0,0,0-.56.54,5.7,5.7,0,0,0-.54.77h2.54A1.8,1.8,0,0,0,76,370.08Z" id="el2vfle58st2p" style="transform-origin: 74.8417px 369.389px 0px;" class="animable"></path><path d="M100.34,356.89c-.21-.36-1.85-1.14-3.38,2C100.42,359.05,100.54,357.24,100.34,356.89Z" id="el70kz36op44h" style="transform-origin: 98.6797px 357.717px 0px;" class="animable"></path><path d="M94.88,358.86c-1.53-3.11-3.17-2.33-3.38-2S91.43,359.05,94.88,358.86Z" id="el4buh5t0mvjj" style="transform-origin: 93.1589px 357.7px 0px;" class="animable"></path><path d="M71.92,342.35v3.91C73.83,343.37,72.33,342.35,71.92,342.35Z" id="el9d5uq166b5k" style="transform-origin: 72.3938px 344.305px 0px;" class="animable"></path><path d="M71.92,366.35v3.91C73.83,367.37,72.33,366.35,71.92,366.35Z" id="elwz52mljsbo" style="transform-origin: 72.3938px 368.305px 0px;" class="animable"></path><path d="M119.92,414.35a1.08,1.08,0,0,0-.79.67l1.69,1.24C121.07,414.88,120.22,414.35,119.92,414.35Z" id="elzspsi9j9ije" style="transform-origin: 119.998px 415.305px 0px;" class="animable"></path><path d="M143.92,426.35a1.21,1.21,0,0,0-.92,1.11,16.45,16.45,0,0,0,1.79-.24A1.15,1.15,0,0,0,143.92,426.35Z" id="elbspwy9eg3de" style="transform-origin: 143.895px 426.905px 0px;" class="animable"></path><path d="M119.92,390.35c-.41,0-1.91,1,0,3.91C121.83,391.37,120.33,390.35,119.92,390.35Z" id="elo27apgrvaeg" style="transform-origin: 119.92px 392.305px 0px;" class="animable"></path><path d="M143.92,406.26c1.91-2.89.41-3.91,0-3.91S142,403.37,143.92,406.26Z" id="elypb786tfmy" style="transform-origin: 143.918px 404.305px 0px;" class="animable"></path><path d="M95.92,382.26c1.91-2.89.41-3.91,0-3.91S94,379.37,95.92,382.26Z" id="elk57av1euyb8" style="transform-origin: 95.9178px 380.305px 0px;" class="animable"></path><path d="M124.34,416.89c-.16-.27-1.12-.78-2.23.29.54.4,1.08.78,1.61,1.15A1.26,1.26,0,0,0,124.34,416.89Z" id="el8vrgoiuyum3" style="transform-origin: 123.247px 417.43px 0px;" class="animable"></path><path d="M121,394.86c3.45.19,3.58-1.62,3.38-2S122.49,391.75,121,394.86Z" id="elmihtn2n2z9q" style="transform-origin: 122.719px 393.689px 0px;" class="animable"></path><path d="M145,406.86c3.45.19,3.58-1.62,3.38-2S146.49,403.75,145,406.86Z" id="elqp8ryshcgoq" style="transform-origin: 146.719px 405.689px 0px;" class="animable"></path><path d="M97,382.86c3.46.19,3.58-1.62,3.38-2S98.49,379.75,97,382.86Z" id="eljackihqclvg" style="transform-origin: 98.7197px 381.689px 0px;" class="animable"></path><path d="M166.53,418.87c-.86-.68-1.65-1.23-2.25-1.64l-.7-.44-.08.1C163.3,417.23,163.43,418.92,166.53,418.87Z" id="el8cgo44xd4oy" style="transform-origin: 164.985px 417.831px 0px;" class="animable"></path><path d="M118.88,394.86c-1.53-3.11-3.17-2.33-3.38-2S115.43,395.05,118.88,394.86Z" id="eldno63l8b79r" style="transform-origin: 117.159px 393.7px 0px;" class="animable"></path><path d="M139.5,404.89c-.21.35-.07,2.16,3.38,2C141.35,403.75,139.71,404.53,139.5,404.89Z" id="eljj38qj6h22" style="transform-origin: 141.159px 405.717px 0px;" class="animable"></path><path d="M91.5,380.89c-.2.35-.07,2.16,3.38,2C93.35,379.75,91.71,380.53,91.5,380.89Z" id="el7jh07ivpfof" style="transform-origin: 93.1606px 381.717px 0px;" class="animable"></path><path d="M75.82,370.26H73.28a.21.21,0,0,1,0,.06c-.09.16-.19.34-.28.54A4.18,4.18,0,0,0,75.82,370.26Z" id="elmfdteb7pj0m" style="transform-origin: 74.41px 370.581px 0px;" class="animable"></path><path d="M71.92,342.35c-.41,0-1.91,1,0,3.91Z" id="el7bwtbqw618r" style="transform-origin: 71.4462px 344.305px 0px;" class="animable"></path><path d="M71.92,370.26v-3.91C71.51,366.35,70,367.37,71.92,370.26Z" id="elxwa15rvjju" style="transform-origin: 71.444px 368.305px 0px;" class="animable"></path><path d="M70.88,346.86c-1.53-3.11-3.17-2.33-3.38-2S67.43,347.05,70.88,346.86Z" id="eltfr0ovormmm" style="transform-origin: 69.1589px 345.7px 0px;" class="animable"></path><path d="M70,369.49a4,4,0,0,0-.56-.54l-.07-.05c.31.45.62.91,1,1.36h.22A5.7,5.7,0,0,0,70,369.49Z" id="el59n4cuocu5n" style="transform-origin: 69.98px 369.58px 0px;" class="animable"></path><path d="M70.6,370.32a.21.21,0,0,1,0-.06h-.22l.44.6h.1C70.79,370.66,70.69,370.48,70.6,370.32Z" id="elgbjvfpv7gre" style="transform-origin: 70.65px 370.56px 0px;" class="animable"></path></g></g></g><path d="M73.25,324.11s-10.78,12-10.78,24.55,7.18,24,27,41.92,38.32,31.14,46.11,35.34,15.57-1.2,15.57-1.2,12.88,12.87,14.37,9.88-4.49-7.49-5.69-9.28a24.6,24.6,0,0,0-3.59-3.89s6.29.89,8.69,3,6.28,5.69,8.08,5.39,1.8-1.8-.9-5.39a32.06,32.06,0,0,0-7.78-7.19c-1.8-1.19-7.79-4.49-7.79-4.49s8.68-.6,11.68,1.2,11.08,7.19,11.68,4.79.6-3.89-2.4-6.59-9-6-12.57-6.59a37.13,37.13,0,0,1-7.19-2.09s6.89-2.4,9.28-2.4,12,4.79,14.67,4.2,1.2-3-.89-4.5-11.38-5.09-15.28-5.39-25.75,7.19-28.44,7.19-9.58-9.58-16.77-22.46-9.88-32.94-25.15-39.82" style="fill: none; stroke: rgb(38, 50, 56); stroke-linecap: round; stroke-linejoin: round; transform-origin: 122.802px 379.58px 0px;" id="el2ademqdvfj8" class="animable"></path><path d="M180.75,400.76c-2.1-1.49-11.38-5.09-15.28-5.39s-25.75,7.19-28.44,7.19-9.58-9.58-16.77-22.46c-4-7.15-6.6-16.52-10.75-24.61-22-3-31.43,9.86-35.79,19.11a160.66,160.66,0,0,0,15.7,16c19.76,18,38.32,31.14,46.11,35.34s15.57-1.2,15.57-1.2,12.88,12.87,14.37,9.88-4.49-7.49-5.69-9.28a24.6,24.6,0,0,0-3.59-3.89s6.29.89,8.69,3,6.28,5.69,8.08,5.39,1.8-1.8-.9-5.39a32.06,32.06,0,0,0-7.78-7.19c-1.8-1.19-7.79-4.49-7.79-4.49s8.68-.6,11.68,1.2,11.08,7.19,11.68,4.79.6-3.89-2.4-6.59-9-6-12.57-6.59a37.13,37.13,0,0,1-7.19-2.09s6.89-2.4,9.28-2.4,12,4.79,14.67,4.2S182.84,402.26,180.75,400.76Z" style="fill: rgb(178, 178, 178); stroke: rgb(38, 50, 56); stroke-linecap: round; stroke-linejoin: round; transform-origin: 128.402px 395.058px 0px;" id="elnb61hwj8iz9" class="animable"></path><path d="M310.76,335.35c-2.5-5.71-.36-18.21,2.14-36.06s5-36.06,5-45.7,1.59-23-1.55-27.31-14.57-16-15.42-21.42,6.85-13.71,6.85-13.71,2.29-4.29,4.29-2,1.14,5.14,0,9.14-2.29,7.14-2.29,7.14,10,3.14,12.57,1.43,2.34-11.49,2.16-16.28c-.37-9.34-4.11-5.35-6.7-.93-1.25,2.12-8.57.86-4.29-4.57s8.26-10.22,12.26-5.93,6.85,12.57,6.85,12.57,2.86-13.61,5.46-21.61,7.26-11.17,8.94-10.61,1.49,3.35-.19,7.26-5.4,14.7-6.33,18.24-1.11,7.63.75,7.26,8.37-11.73,10.24-16.57,4.65-9.3,7.81-11.35,5.77.56,4.47,3.91A170.27,170.27,0,0,1,355,185.93a76.4,76.4,0,0,0-5.21,11.54,131.25,131.25,0,0,1,9.68-9.31c4.47-3.72,9.31-4.46,10.79-3.16s.19,1.49-3.53,4.47S357.45,196,353,203.24a68.36,68.36,0,0,0-8,17.12,58.05,58.05,0,0,1-5.4,11.36s3.49,28.34,9.54,43.93,16.75,38.39,13.49,54.68-9.54,24.66-18.38,27.22a17.09,17.09,0,0,1-15.12-2.79" style="fill: #FFC100; transform-origin: 335.862px 258.836px 0px;" id="elpbx9ue9ytsn" class="animable"></path><g style="clip-path: url(&quot;#freepik--clip-path-5--inject-2&quot;); transform-origin: 335.315px 261.617px 0px;" id="eldb23pzt3ubs" class="animable"><g id="elvgbn596f1ic"><g style="opacity: 0.2; transform-origin: 335.315px 261.617px 0px;" class="animable" id="el9p8wmixhxtn"><path d="M359.92,174.35a1.11,1.11,0,0,1,.8.69h0A1.08,1.08,0,0,0,359.92,174.35Z" id="elwp598eh1too" style="transform-origin: 360.32px 174.695px 0px;" class="animable"></path><path d="M359.92,174.35v2.34l.8-1.65A1.11,1.11,0,0,0,359.92,174.35Z" id="el1ixn8f7uxez" style="transform-origin: 360.32px 175.52px 0px;" class="animable"></path><path d="M359.92,322.26c1.91-2.89.41-3.91,0-3.91C360.33,318.35,361.83,319.37,359.92,322.26Z" id="elca9csbr2ucw" style="transform-origin: 360.394px 320.305px 0px;" class="animable"></path><path d="M363.19,322.6q0-1-.09-2c-.62.16-1.4.75-2.14,2.27A5.44,5.44,0,0,0,363.19,322.6Z" id="el0369ce7lnmp7" style="transform-origin: 362.075px 321.745px 0px;" class="animable"></path><path d="M359.92,318.35v3.91C361.83,319.37,360.33,318.35,359.92,318.35Z" id="el21cy5mshvtv" style="transform-origin: 360.394px 320.305px 0px;" class="animable"></path><path d="M311.92,198.35c-.35,0-1.45.73-.67,2.66.25-.81.52-1.7.79-2.64Z" id="elkolxrc4rtrs" style="transform-origin: 311.508px 199.68px 0px;" class="animable"></path><path d="M335.92,214.26c1.91-2.89.41-3.91,0-3.91S334,211.37,335.92,214.26Z" id="elwo31paq0g5" style="transform-origin: 335.918px 212.305px 0px;" class="animable"></path><path d="M359.5,177.54l.42-.85v-2.34C359.54,174.35,358.27,175.21,359.5,177.54Z" id="el2mk5d964x1u" style="transform-origin: 359.448px 175.945px 0px;" class="animable"></path><path d="M335.92,186.35c-.41,0-1.91,1,0,3.91C337.83,187.37,336.33,186.35,335.92,186.35Z" id="elldoga5r9o6" style="transform-origin: 335.92px 188.305px 0px;" class="animable"></path><path d="M316.27,225.72a1,1,0,0,0,.07-.83,1,1,0,0,0-.76-.36,1.63,1.63,0,0,0-.55.08c.41.5.78.95,1.08,1.35A1.11,1.11,0,0,0,316.27,225.72Z" id="elrzccszk0p9h" style="transform-origin: 315.715px 225.245px 0px;" class="animable"></path><path d="M340.34,212.89c-.21-.36-1.85-1.14-3.38,2C340.41,215.05,340.54,213.24,340.34,212.89Z" id="elkixkkqb88np" style="transform-origin: 338.679px 213.717px 0px;" class="animable"></path><path d="M339.85,190.24a11.6,11.6,0,0,1,0-1.65c-.64-.2-1.81,0-2.92,2.27A4.13,4.13,0,0,0,339.85,190.24Z" id="el7fkw6y1eenk" style="transform-origin: 338.39px 189.722px 0px;" class="animable"></path><path d="M340.37,165c-.27.45-.52.94-.78,1.45A1.37,1.37,0,0,0,340.37,165Z" id="elcg4946npda" style="transform-origin: 339.988px 165.725px 0px;" class="animable"></path><path d="M307.5,200.89c-.2.34-.07,2.08,3.16,2l.09-.26C309.26,199.81,307.71,200.54,307.5,200.89Z" id="elkqo292mqjoh" style="transform-origin: 309.095px 201.716px 0px;" class="animable"></path><path d="M331.5,212.89c-.21.35-.07,2.16,3.38,2C333.35,211.75,331.71,212.53,331.5,212.89Z" id="eltisev0v2w9n" style="transform-origin: 333.159px 213.717px 0px;" class="animable"></path><path d="M355.5,176.89c-.2.35-.07,2.15,3.34,2l0,0C357.34,175.76,355.71,176.53,355.5,176.89Z" id="elloxls8jo78" style="transform-origin: 357.141px 177.718px 0px;" class="animable"></path><path d="M334.88,190.86a4.71,4.71,0,0,0-1.62-2c-.16.75-.3,1.38-.4,1.86A5.83,5.83,0,0,0,334.88,190.86Z" id="el0s3tzpiitmhn" style="transform-origin: 333.87px 189.876px 0px;" class="animable"></path><path d="M332.11,190.33c-.16-.42-.36-.91-.59-1.46l0,0A1.27,1.27,0,0,0,332.11,190.33Z" id="el5vdid1ur3g8" style="transform-origin: 331.789px 189.6px 0px;" class="animable"></path><path d="M335.92,286.26c1.91-2.89.41-3.91,0-3.91S334,283.37,335.92,286.26Z" id="elno2ug5ri3ne" style="transform-origin: 335.918px 284.305px 0px;" class="animable"></path><path d="M335.92,258.35c-.41,0-1.91,1,0,3.91C337.83,259.37,336.33,258.35,335.92,258.35Z" id="elap35d6y8edb" style="transform-origin: 335.92px 260.305px 0px;" class="animable"></path><path d="M335.92,234.35c-.41,0-1.91,1,0,3.91C337.83,235.37,336.33,234.35,335.92,234.35Z" id="elur6qm3jemq" style="transform-origin: 335.92px 236.305px 0px;" class="animable"></path><path d="M316.38,273c0,.21-.05.43-.08.64A1.1,1.1,0,0,0,316.38,273Z" id="el9dhtwn529du" style="transform-origin: 316.348px 273.32px 0px;" class="animable"></path><path d="M316.34,296.89c-.2-.34-1.63-1-3.06,1.37h2.54A1.24,1.24,0,0,0,316.34,296.89Z" id="eldwjeoraqwkt" style="transform-origin: 314.832px 297.4px 0px;" class="animable"></path><path d="M337,286.86c3.45.19,3.58-1.62,3.38-2S338.49,283.75,337,286.86Z" id="elyz6n7vzovjf" style="transform-origin: 338.719px 285.689px 0px;" class="animable"></path><path d="M340.34,260.89c-.21-.36-1.85-1.14-3.38,2C340.41,263.05,340.54,261.24,340.34,260.89Z" id="eleft3tnabyd7" style="transform-origin: 338.679px 261.717px 0px;" class="animable"></path><path d="M337,238.86c2.54.14,3.28-.8,3.41-1.45l-.09-.59C339.94,236.45,338.4,235.93,337,238.86Z" id="ele8pl24zm53s" style="transform-origin: 338.705px 237.702px 0px;" class="animable"></path><path d="M357.41,296.91c-1-.69-1.77-.27-1.91,0a1.24,1.24,0,0,0,.52,1.37h1.86Z" id="elyppy4pcgju" style="transform-origin: 356.668px 297.407px 0px;" class="animable"></path><path d="M331.5,284.89c-.21.35-.07,2.16,3.38,2C333.35,283.75,331.71,284.53,331.5,284.89Z" id="elnjfojehv7lc" style="transform-origin: 333.159px 285.717px 0px;" class="animable"></path><path d="M331.5,260.89c-.21.35-.07,2.16,3.38,2C333.35,259.75,331.71,260.53,331.5,260.89Z" id="el2ywzu616heq" style="transform-origin: 333.159px 261.717px 0px;" class="animable"></path><path d="M331.5,236.89c-.21.35-.07,2.16,3.38,2C333.35,235.75,331.71,236.53,331.5,236.89Z" id="elgjcgxqfq6r7" style="transform-origin: 333.159px 237.717px 0px;" class="animable"></path><path d="M335.92,354.35c-.39,0-1.75.92-.28,3.46l.5.1C337.7,355.29,336.31,354.35,335.92,354.35Z" id="elo9szv9ufda" style="transform-origin: 335.918px 356.13px 0px;" class="animable"></path><path d="M311.92,322.26c1.91-2.89.41-3.91,0-3.91S310,319.37,311.92,322.26Z" id="elpg2aacmzx3s" style="transform-origin: 311.918px 320.305px 0px;" class="animable"></path><path d="M359.92,318.35c-.41,0-1.91,1,0,3.91Z" id="el141ui9lohon" style="transform-origin: 359.446px 320.305px 0px;" class="animable"></path><path d="M335.92,334.26c1.91-2.89.41-3.91,0-3.91S334,331.37,335.92,334.26Z" id="el28q7mftsvce" style="transform-origin: 335.918px 332.305px 0px;" class="animable"></path><path d="M335.92,306.35c-.41,0-1.91,1,0,3.91C337.83,307.37,336.33,306.35,335.92,306.35Z" id="elbz9ks57jye" style="transform-origin: 335.92px 308.305px 0px;" class="animable"></path><path d="M340.34,356.89c-.19-.33-1.56-1-3,1.21a16.59,16.59,0,0,0,2.48.13A1.23,1.23,0,0,0,340.34,356.89Z" id="el8napcsn918" style="transform-origin: 338.86px 357.383px 0px;" class="animable"></path><path d="M313,322.86c3.45.19,3.58-1.62,3.38-2S314.49,319.75,313,322.86Z" id="elyohrxbdgpc" style="transform-origin: 314.719px 321.689px 0px;" class="animable"></path><path d="M337,334.86c3.45.19,3.58-1.62,3.38-2S338.49,331.75,337,334.86Z" id="el316kudbfdsw" style="transform-origin: 338.719px 333.689px 0px;" class="animable"></path><path d="M340.34,308.89c-.21-.36-1.85-1.14-3.38,2C340.41,311.05,340.54,309.24,340.34,308.89Z" id="elyrd0hlgqv28" style="transform-origin: 338.679px 309.717px 0px;" class="animable"></path><path d="M355.5,344.89c-.16.27-.11,1.4,1.49,1.82.27-.48.54-1,.79-1.47C356.65,344.1,355.66,344.61,355.5,344.89Z" id="elmww5eujb9s" style="transform-origin: 356.61px 345.62px 0px;" class="animable"></path><path d="M332.07,356.56a18.59,18.59,0,0,0,1.75.72A1.9,1.9,0,0,0,332.07,356.56Z" id="el8axl29qaqn" style="transform-origin: 332.945px 356.912px 0px;" class="animable"></path><path d="M310.88,322.86a6,6,0,0,0-.89-1.4c0,.47-.08.93-.11,1.39A8.18,8.18,0,0,0,310.88,322.86Z" id="elgio2fdcnjbh" style="transform-origin: 310.38px 322.165px 0px;" class="animable"></path><path d="M358.88,322.86c-1.53-3.11-3.17-2.33-3.38-2S355.43,323.05,358.88,322.86Z" id="eloj93bo6rbck" style="transform-origin: 357.159px 321.7px 0px;" class="animable"></path><path d="M331.5,332.89c-.21.35-.07,2.16,3.38,2C333.35,331.75,331.71,332.53,331.5,332.89Z" id="elbpg4nhmajgd" style="transform-origin: 333.159px 333.717px 0px;" class="animable"></path><path d="M331.5,308.89c-.21.35-.07,2.16,3.38,2C333.35,307.75,331.71,308.53,331.5,308.89Z" id="elr32my49ebj9" style="transform-origin: 333.159px 309.717px 0px;" class="animable"></path><path d="M313.28,298.26c-.11.18-.21.38-.32.59h0a4.18,4.18,0,0,0,2.86-.6h-2.54Z" id="eldelxit75j1d" style="transform-origin: 314.39px 298.574px 0px;" class="animable"></path><path d="M357.88,298.26H356a3.55,3.55,0,0,0,2.07.6Z" id="elcix5wb8wmx8" style="transform-origin: 357.035px 298.561px 0px;" class="animable"></path></g></g></g><path d="M310.76,335.35c-2.5-5.71-.36-18.21,2.14-36.06s5-36.06,5-45.7,1.59-23-1.55-27.31-14.57-16-15.42-21.42,6.85-13.71,6.85-13.71,2.29-4.29,4.29-2,1.14,5.14,0,9.14-2.29,7.14-2.29,7.14,10,3.14,12.57,1.43,2.34-11.49,2.16-16.28c-.37-9.34-4.11-5.35-6.7-.93-1.25,2.12-8.57.86-4.29-4.57s8.26-10.22,12.26-5.93,6.85,12.57,6.85,12.57,2.86-13.61,5.46-21.61,7.26-11.17,8.94-10.61,1.49,3.35-.19,7.26-5.4,14.7-6.33,18.24-1.11,7.63.75,7.26,8.37-11.73,10.24-16.57,4.65-9.3,7.81-11.35,5.77.56,4.47,3.91A170.27,170.27,0,0,1,355,185.93a76.4,76.4,0,0,0-5.21,11.54,131.25,131.25,0,0,1,9.68-9.31c4.47-3.72,9.31-4.46,10.79-3.16s.19,1.49-3.53,4.47S357.45,196,353,203.24a68.36,68.36,0,0,0-8,17.12,58.05,58.05,0,0,1-5.4,11.36s3.49,28.34,9.54,43.93,16.75,38.39,13.49,54.68-9.54,24.66-18.38,27.22a17.09,17.09,0,0,1-15.12-2.79" style="fill: none; stroke: rgb(38, 50, 56); stroke-linecap: round; stroke-linejoin: round; transform-origin: 335.862px 258.836px 0px;" id="eldiho6pqa6uj" class="animable"></path><path d="M353,203.24c4.47-7.26,10.06-10.8,13.78-13.77s5-3.17,3.53-4.47-6.32-.56-10.79,3.16a131.25,131.25,0,0,0-9.68,9.31A76.4,76.4,0,0,1,355,185.93a170.27,170.27,0,0,0,8.75-17.68c1.3-3.35-1.3-6-4.47-3.91s-5.95,6.51-7.81,11.35-8.38,16.2-10.24,16.57-1.68-3.73-.75-7.26,4.66-14.33,6.33-18.24,1.86-6.7.19-7.26-6.33,2.6-8.94,10.61-5.46,21.61-5.46,21.61-2.85-8.29-6.85-12.57-8,.5-12.26,5.93,3,6.69,4.29,4.57c2.59-4.42,6.33-8.41,6.7.93.18,4.79.41,14.56-2.16,16.28s-12.57-1.43-12.57-1.43,1.14-3.14,2.29-7.14,2-6.86,0-9.14-4.29,2-4.29,2-7.71,8.28-6.85,13.71,12.28,17.13,15.42,21.42,1.55,17.67,1.55,27.31-2.5,27.85-5,45.7c0,.24-.07.46-.1.69,3.95,4.15,12,10.1,25.61,9.64,9.12-.31,15.58-4.9,19.95-9.95-2.9-8.63-6.54-17-9.24-24-6.05-15.59-9.54-43.93-9.54-43.93a58.05,58.05,0,0,0,5.4-11.36A68.36,68.36,0,0,1,353,203.24Z" style="fill: rgb(178, 178, 178); stroke: rgb(38, 50, 56); stroke-linecap: round; stroke-linejoin: round; transform-origin: 335.869px 234.541px 0px;" id="elwbbddxv9go" class="animable"></path><path d="M325.62,230.6s-1.67-7.07.75-11.54a12.55,12.55,0,0,1,5.95-5.77" style="fill: none; stroke: rgb(38, 50, 56); stroke-linecap: round; stroke-linejoin: round; transform-origin: 328.689px 221.945px 0px;" id="elvir9ls144ye" class="animable"></path></g><defs><clipPath id="freepik--clip-path--inject-2"><path d="M303.22,455.26s1.79-24.55-9-49.11S281,379.82,281,372.63s7.22-15.58,8.42-31.75.6-24,.6-24,25.75,40.72,43.72,43.12,28.75-14.37,22.16-37.13-35.34-41.32-46.71-56.3-37.14-15-50.31-15-19.76-4.79-22.16-13.77-2.39-27-2.39-27-15.58,9.58-41.93-1.2c0,0,2.4,32.94-.6,37.73S184.64,257,166.67,257s-32.94,3.6-41.32,12-43.12,41.92-52.1,55.1-4.2,27.55,6.58,32.94,21.56.59,29.35-6.59,32.34-29.95,32.34-29.95,0,13.78,6.59,33.54,12,17.37,7.18,31.74-14.37,18.57-17.36,37.13a176.46,176.46,0,0,0-2.4,32.34" style="fill:#92E3A9;stroke:#263238;stroke-linecap:round;stroke-linejoin:round"></path></clipPath><clipPath id="freepik--clip-path-2--inject-2"><path d="M208.59,297.16c29.88,5.76,41.41-22.88,45.42-45.77-9.95-1.1-15.19-5.73-17.27-13.52-2.39-9-2.39-27-2.39-27s-15.58,9.58-41.93-1.2c0,0,2.4,32.94-.6,37.73-2.08,3.34-4.76,6.68-12.26,8.39C179.29,266.07,181.36,291.9,208.59,297.16Z" style="fill:#b2b2b2;stroke:#263238;stroke-linecap:round;stroke-linejoin:round"></path></clipPath><clipPath id="freepik--clip-path-3--inject-2"><path d="M176.39,178.26s1,26.79,20.72,39.93,34.37,5.56,42.46-5.56,13.15-22.24,13.15-38.41,2-23.26-3.54-33.37-24.77-15.16-24.77-15.16A303.44,303.44,0,0,1,198.63,154C183.46,168.65,176.39,178.26,176.39,178.26Z" style="fill:#b2b2b2;stroke:#263238;stroke-linecap:round;stroke-linejoin:round"></path></clipPath><clipPath id="freepik--clip-path-4--inject-2"><path d="M73.25,324.11s-10.78,12-10.78,24.55,7.18,24,27,41.92,38.32,31.14,46.11,35.34,15.57-1.2,15.57-1.2,12.88,12.87,14.37,9.88-4.49-7.49-5.69-9.28a24.6,24.6,0,0,0-3.59-3.89s6.29.89,8.69,3,6.28,5.69,8.08,5.39,1.8-1.8-.9-5.39a32.06,32.06,0,0,0-7.78-7.19c-1.8-1.19-7.79-4.49-7.79-4.49s8.68-.6,11.68,1.2,11.08,7.19,11.68,4.79.6-3.89-2.4-6.59-9-6-12.57-6.59a37.13,37.13,0,0,1-7.19-2.09s6.89-2.4,9.28-2.4,12,4.79,14.67,4.2,1.2-3-.89-4.5-11.38-5.09-15.28-5.39-25.75,7.19-28.44,7.19-9.58-9.58-16.77-22.46-9.88-32.94-25.15-39.82" style="fill:#92E3A9;stroke:#263238;stroke-linecap:round;stroke-linejoin:round"></path></clipPath><clipPath id="freepik--clip-path-5--inject-2"><path d="M310.76,335.35c-2.5-5.71-.36-18.21,2.14-36.06s5-36.06,5-45.7,1.59-23-1.55-27.31-14.57-16-15.42-21.42,6.85-13.71,6.85-13.71,2.29-4.29,4.29-2,1.14,5.14,0,9.14-2.29,7.14-2.29,7.14,10,3.14,12.57,1.43,2.34-11.49,2.16-16.28c-.37-9.34-4.11-5.35-6.7-.93-1.25,2.12-8.57.86-4.29-4.57s8.26-10.22,12.26-5.93,6.85,12.57,6.85,12.57,2.86-13.61,5.46-21.61,7.26-11.17,8.94-10.61,1.49,3.35-.19,7.26-5.4,14.7-6.33,18.24-1.11,7.63.75,7.26,8.37-11.73,10.24-16.57,4.65-9.3,7.81-11.35,5.77.56,4.47,3.91A170.27,170.27,0,0,1,355,185.93a76.4,76.4,0,0,0-5.21,11.54,131.25,131.25,0,0,1,9.68-9.31c4.47-3.72,9.31-4.46,10.79-3.16s.19,1.49-3.53,4.47S357.45,196,353,203.24a68.36,68.36,0,0,0-8,17.12,58.05,58.05,0,0,1-5.4,11.36s3.49,28.34,9.54,43.93,16.75,38.39,13.49,54.68-9.54,24.66-18.38,27.22a17.09,17.09,0,0,1-15.12-2.79" style="fill:#92E3A9;stroke:#263238;stroke-linecap:round;stroke-linejoin:round"></path></clipPath></defs><defs>     <filter id="active" height="200%">         <feMorphology in="SourceAlpha" result="DILATED" operator="dilate" radius="2"></feMorphology>                <feFlood flood-color="#32DFEC" flood-opacity="1" result="PINK"></feFlood>        <feComposite in="PINK" in2="DILATED" operator="in" result="OUTLINE"></feComposite>        <feMerge>            <feMergeNode in="OUTLINE"></feMergeNode>            <feMergeNode in="SourceGraphic"></feMergeNode>        </feMerge>    </filter>    <filter id="hover" height="200%">        <feMorphology in="SourceAlpha" result="DILATED" operator="dilate" radius="2"></feMorphology>                <feFlood flood-color="#ff0000" flood-opacity="0.5" result="PINK"></feFlood>        <feComposite in="PINK" in2="DILATED" operator="in" result="OUTLINE"></feComposite>        <feMerge>            <feMergeNode in="OUTLINE"></feMergeNode>            <feMergeNode in="SourceGraphic"></feMergeNode>        </feMerge>            <feColorMatrix type="matrix" values="0   0   0   0   0                0   1   0   0   0                0   0   0   0   0                0   0   0   1   0 "></feColorMatrix>    </filter></defs></svg>