<svg class="animated" id="freepik_stories-select" xmlns="http://www.w3.org/2000/svg" viewBox="0 0 500 500" version="1.1" xmlns:xlink="http://www.w3.org/1999/xlink" xmlns:svgjs="http://svgjs.com/svgjs"><style>svg#freepik_stories-select:not(.animated) .animable {opacity: 0;}svg#freepik_stories-select.animated #freepik--Buttons--inject-1 {animation: 3s Infinite  linear floating;animation-delay: 0s;}svg#freepik_stories-select.animated #freepik--Hand--inject-1 {animation: 3s Infinite  linear wind;animation-delay: 0s;}            @keyframes floating {                0% {                    opacity: 1;                    transform: translateY(0px);                }                50% {                    transform: translateY(-10px);                }                100% {                    opacity: 1;                    transform: translateY(0px);                }            }                    @keyframes wind {                0% {                    transform: rotate( 0deg );                }                25% {                    transform: rotate( 1deg );                }                75% {                    transform: rotate( -1deg );                }            }        </style><g id="freepik--background-complete--inject-1" style="transform-origin: 250px 224.755px 0px;" class="animable"><rect y="382.4" width="500" height="0.25" style="fill: rgb(230, 230, 230); transform-origin: 250px 382.525px 0px;" id="el3il8dtkl4yh" class="animable"></rect><rect x="51.65" y="394.26" width="54.34" height="0.25" style="fill: rgb(230, 230, 230); transform-origin: 78.82px 394.385px 0px;" id="elveq6t3p7u7" class="animable"></rect><rect x="230.54" y="388.83" width="20.46" height="0.25" style="fill: rgb(230, 230, 230); transform-origin: 240.77px 388.955px 0px;" id="eljsdrptkxi6f" class="animable"></rect><rect x="151.34" y="388.83" width="29.94" height="0.25" style="fill: rgb(230, 230, 230); transform-origin: 166.31px 388.955px 0px;" id="elp3ridlo6d4" class="animable"></rect><rect x="365.57" y="391.71" width="63.34" height="0.25" style="fill: rgb(230, 230, 230); transform-origin: 397.24px 391.835px 0px;" id="elfj24771xac6" class="animable"></rect><rect x="224.93" y="391.71" width="14.29" height="0.25" style="fill: rgb(230, 230, 230); transform-origin: 232.075px 391.835px 0px;" id="el50jkxeof04f" class="animable"></rect><rect x="115.67" y="394.26" width="13.33" height="0.25" style="fill: rgb(230, 230, 230); transform-origin: 122.335px 394.385px 0px;" id="eloe1m3dr0j8" class="animable"></rect><rect x="437.08" y="391.71" width="8.51" height="0.25" style="fill: rgb(230, 230, 230); transform-origin: 441.335px 391.835px 0px;" id="eln920wogxwqf" class="animable"></rect><path d="M237,337.8H43.91a5.71,5.71,0,0,1-5.7-5.71V60.66A5.71,5.71,0,0,1,43.91,55H237a5.71,5.71,0,0,1,5.71,5.71V332.09A5.71,5.71,0,0,1,237,337.8ZM43.91,55.2a5.46,5.46,0,0,0-5.45,5.46V332.09a5.46,5.46,0,0,0,5.45,5.46H237a5.47,5.47,0,0,0,5.46-5.46V60.66A5.47,5.47,0,0,0,237,55.2Z" style="fill: rgb(230, 230, 230); transform-origin: 140.46px 196.4px 0px;" id="eltb2oyjusmbm" class="animable"></path><path d="M453.31,337.8H260.21a5.72,5.72,0,0,1-5.71-5.71V60.66A5.72,5.72,0,0,1,260.21,55h193.1A5.71,5.71,0,0,1,459,60.66V332.09A5.71,5.71,0,0,1,453.31,337.8ZM260.21,55.2a5.47,5.47,0,0,0-5.46,5.46V332.09a5.47,5.47,0,0,0,5.46,5.46h193.1a5.47,5.47,0,0,0,5.46-5.46V60.66a5.47,5.47,0,0,0-5.46-5.46Z" style="fill: rgb(230, 230, 230); transform-origin: 356.75px 196.4px 0px;" id="el95gd7j1ocha" class="animable"></path><rect x="189.27" y="85.56" width="222.89" height="129.56" style="fill: rgb(230, 230, 230); transform-origin: 300.715px 150.34px 0px;" id="elatn3b2qphvc" class="animable"></rect><rect x="192.28" y="85.56" width="222.89" height="129.56" style="fill: rgb(245, 245, 245); transform-origin: 303.725px 150.34px 0px;" id="el8euony0d9nu" class="animable"></rect><g id="ellw2ez2l5yt8"><rect x="245.03" y="44.31" width="117.4" height="212.07" style="fill: rgb(255, 255, 255); transform-origin: 303.73px 150.345px 0px; transform: rotate(90deg);" class="animable" id="eldnqjstntg47"></rect></g><g id="el9jsvewhic0n"><rect x="349.92" y="149.2" width="117.4" height="2.28" style="fill: rgb(230, 230, 230); transform-origin: 408.62px 150.34px 0px; transform: rotate(90deg);" class="animable" id="el4h9tz9oje2s"></rect></g><rect x="194.52" y="172.55" width="218.42" height="8.16" style="fill: rgb(245, 245, 245); transform-origin: 303.73px 176.63px 0px;" id="elivkishu2yeq" class="animable"></rect><rect x="216.4" y="296.11" width="36.6" height="81.15" style="fill: rgb(230, 230, 230); transform-origin: 234.7px 336.685px 0px;" id="elx0p2cyrhtu" class="animable"></rect><rect x="223.42" y="377.26" width="161.12" height="5.14" style="fill: rgb(230, 230, 230); transform-origin: 303.98px 379.83px 0px;" id="eld6b2u8udw15" class="animable"></rect><g id="elg3pj1fnndf"><rect x="253" y="296.11" width="138.58" height="81.15" style="fill: rgb(245, 245, 245); transform-origin: 322.29px 336.685px 0px; transform: rotate(180deg);" class="animable" id="elwr00ite9j"></rect></g><g id="elojgpuws6ei"><rect x="267.38" y="306.1" width="109.8" height="26.61" style="fill: rgb(230, 230, 230); transform-origin: 322.28px 319.405px 0px; transform: rotate(180deg);" class="animable" id="el0kkr05wt44vh"></rect></g><g id="el1xqyq9szacih"><rect x="267.38" y="340.66" width="109.8" height="26.61" style="fill: rgb(230, 230, 230); transform-origin: 322.28px 353.965px 0px; transform: rotate(180deg);" class="animable" id="eldm3qmkm5q37"></rect></g><rect x="304.22" y="317.58" width="36.14" height="3.65" rx="1.61" style="fill: rgb(245, 245, 245); transform-origin: 322.29px 319.405px 0px;" id="el07itzqkfjsad" class="animable"></rect><rect x="304.22" y="352.14" width="36.14" height="3.65" rx="1.61" style="fill: rgb(245, 245, 245); transform-origin: 322.29px 353.965px 0px;" id="el2x7a81j15em" class="animable"></rect><polygon points="143.38 382.4 65.41 382.4 54.66 123.73 132.63 123.73 143.38 382.4" style="fill: rgb(230, 230, 230); transform-origin: 99.02px 253.065px 0px;" id="el1krm8xr998l" class="animable"></polygon><polygon points="154.67 382.4 67.41 382.4 56.66 123.73 143.92 123.73 154.67 382.4" style="fill: rgb(245, 245, 245); transform-origin: 105.665px 253.065px 0px;" id="elqu0vzkmg3n" class="animable"></polygon><polygon points="76.03 373.4 66.03 132.73 135.29 132.73 145.3 373.4 76.03 373.4" style="fill: rgb(255, 255, 255); transform-origin: 105.665px 253.065px 0px;" id="elcv6vmexpau7" class="animable"></polygon><path d="M284.93,283.59c1-27.32,2-65.17-.11-78.87l-3.45-2.67s.75,2.55,1.15,44.41.89,30.91.47,37.13Z" style="fill: rgb(224, 224, 224); transform-origin: 283.717px 242.82px 0px;" id="elgqsa82bonmc" class="animable"></path><path d="M291.35,193.09c6.38-8.65,19.81-14.8,33.72-14.77,5.46,0-16.26,10.06-25.05,21.15-6.83,8.61-14.36,23.1-16.82,31.14C284.38,213.69,285,201.73,291.35,193.09Z" style="fill: rgb(224, 224, 224); transform-origin: 304.569px 204.465px 0px;" id="elwyim0ungfa" class="animable"></path><path d="M278.55,215.62c-5.86-9-18.91-15.93-32.79-16.71-5.45-.31,15.64,11,23.77,22.57,6.31,9,13,23.9,15,32.08C284.31,236.6,284.42,224.63,278.55,215.62Z" style="fill: rgb(224, 224, 224); transform-origin: 264.701px 226.232px 0px;" id="el0r4j0lv3f3k" class="animable"></path><path d="M281.17,178.65c-5.34-10.5-17.8-20.63-31.35-24.75-5.33-1.62,16.74,16.86,23.05,31,4.9,11,10.84,24.82,12.4,33.55C285.85,201.23,286.5,189.16,281.17,178.65Z" style="fill: rgb(224, 224, 224); transform-origin: 267.324px 186.125px 0px;" id="elvatflnpkkz" class="animable"></path><path d="M283.64,296.11h0a12.7,12.7,0,0,0,12.68-12l1.12-19.5h-27.6l1.13,19.5A12.69,12.69,0,0,0,283.64,296.11Z" style="fill: rgb(240, 240, 240); transform-origin: 283.64px 280.36px 0px;" id="el9if0pwd7yn" class="animable"></path><polygon points="268.06 269.06 299.23 269.06 300.12 260.97 267.16 260.97 268.06 269.06" style="fill: rgb(235, 235, 235); transform-origin: 283.64px 265.015px 0px;" id="elw1qm930s9nj" class="animable"></polygon><g id="elmrpfh5x2d1"><rect x="400.58" y="79.17" width="20.64" height="56" style="fill: rgb(230, 230, 230); transform-origin: 410.9px 107.17px 0px; transform: rotate(180deg);" class="animable" id="elpybatgfuhde"></rect></g><rect x="390.34" y="79.17" width="10.23" height="51.5" style="fill: rgb(245, 245, 245); transform-origin: 395.455px 104.92px 0px;" id="elqpv183vqqe" class="animable"></rect><g id="eloxrrnlezf7"><rect x="369.7" y="79.17" width="20.64" height="56" style="fill: rgb(230, 230, 230); transform-origin: 380.02px 107.17px 0px; transform: rotate(180deg);" class="animable" id="elityhzwobk9"></rect></g><rect x="359.47" y="79.17" width="10.23" height="51.5" style="fill: rgb(245, 245, 245); transform-origin: 364.585px 104.92px 0px;" id="el84lj70ak57g" class="animable"></rect><g id="el3tnrziv1eqd"><rect x="338.83" y="79.17" width="20.64" height="56" style="fill: rgb(230, 230, 230); transform-origin: 349.15px 107.17px 0px; transform: rotate(180deg);" class="animable" id="el91qrlbnqo75"></rect></g><rect x="328.6" y="79.17" width="10.23" height="51.5" style="fill: rgb(245, 245, 245); transform-origin: 333.715px 104.92px 0px;" id="eld2c9v94r04j" class="animable"></rect><g id="el6gf5tzkhldk"><rect x="307.96" y="79.17" width="20.64" height="56" style="fill: rgb(230, 230, 230); transform-origin: 318.28px 107.17px 0px; transform: rotate(180deg);" class="animable" id="elpcbvwh87hbf"></rect></g><rect x="297.72" y="79.17" width="10.23" height="51.5" style="fill: rgb(245, 245, 245); transform-origin: 302.835px 104.92px 0px;" id="eln691wjz7zlf" class="animable"></rect><g id="ely0fqt2fy9uo"><rect x="277.08" y="79.17" width="20.64" height="56" style="fill: rgb(230, 230, 230); transform-origin: 287.4px 107.17px 0px; transform: rotate(180deg);" class="animable" id="elo2siwvrecn"></rect></g><rect x="266.85" y="79.17" width="10.23" height="51.5" style="fill: rgb(245, 245, 245); transform-origin: 271.965px 104.92px 0px;" id="el5ruw2qv6tkh" class="animable"></rect><g id="el5xe5jy2495r"><rect x="246.21" y="79.17" width="20.64" height="56" style="fill: rgb(230, 230, 230); transform-origin: 256.53px 107.17px 0px; transform: rotate(180deg);" class="animable" id="elkip4v0abqu"></rect></g><rect x="235.98" y="79.17" width="10.23" height="51.5" style="fill: rgb(245, 245, 245); transform-origin: 241.095px 104.92px 0px;" id="el3pprlwmba2f" class="animable"></rect><g id="el3qk896nfthq"><rect x="215.34" y="79.17" width="20.64" height="56" style="fill: rgb(230, 230, 230); transform-origin: 225.66px 107.17px 0px; transform: rotate(180deg);" class="animable" id="eldu171xqqdgl"></rect></g><rect x="205.11" y="79.17" width="10.23" height="51.5" style="fill: rgb(245, 245, 245); transform-origin: 210.225px 104.92px 0px;" id="el8m0t7ca5h5h" class="animable"></rect><g id="eltx75teexu1m"><rect x="184.46" y="79.17" width="20.64" height="56" style="fill: rgb(230, 230, 230); transform-origin: 194.78px 107.17px 0px; transform: rotate(180deg);" class="animable" id="elhclek8b6kp"></rect></g></g><g id="freepik--Shadow--inject-1" style="transform-origin: 250px 416.24px 0px;" class="animable"><ellipse cx="250" cy="416.24" rx="193.89" ry="11.32" style="fill: rgb(245, 245, 245); transform-origin: 250px 416.24px 0px;" id="elo1go3o0iq8k" class="animable"></ellipse></g><g id="freepik--Character--inject-1" style="transform-origin: 327.806px 262.925px 0px;" class="animable"><polygon points="352.42 219.53 356.67 226.03 362.99 224.72 358.22 216.64 352.42 219.53" style="fill: rgb(159, 91, 83); transform-origin: 357.705px 221.335px 0px;" id="el17namigtsho" class="animable"></polygon><path d="M364.47,163.82c.9,1.09,1.65,2.06,2.42,3.12s1.51,2.08,2.24,3.14c1.46,2.11,2.85,4.28,4.15,6.51s2.56,4.51,3.66,6.9c.59,1.17,1.09,2.41,1.63,3.62s1,2.48,1.39,3.79l.32,1,.16.49c.09.29.18.6.24.89a11.4,11.4,0,0,1,.22,3.16,18.1,18.1,0,0,1-1.07,4.85,39,39,0,0,1-3.74,7.42,73.31,73.31,0,0,1-9.72,12L362,217.29a142.33,142.33,0,0,0,6.58-12.64,35.39,35.39,0,0,0,2.17-6.13,9,9,0,0,0,.27-2.42,1.22,1.22,0,0,0-.11-.5s0,0,0,0l-.16-.38-.33-.76a86,86,0,0,0-6.6-12.11c-1.26-2-2.59-3.93-3.93-5.88s-2.8-3.9-4.12-5.67Z" style="fill: rgb(159, 91, 83); transform-origin: 368.349px 192.265px 0px;" id="el0s7o63npaur" class="animable"></path><path d="M362,158.9c6.89,1.58,14.79,20.35,14.79,20.35L363,188.73a116.61,116.61,0,0,1-9.14-15.53C349.77,164.61,355,157.29,362,158.9Z" style="fill: #FFC100; transform-origin: 364.606px 173.703px 0px;" id="el49h3mk64r19" class="animable"></path><g id="elpb8yky7m8lp"><path d="M362,158.9c6.89,1.58,14.79,20.35,14.79,20.35L363,188.73a116.61,116.61,0,0,1-9.14-15.53C349.77,164.61,355,157.29,362,158.9Z" style="fill: rgb(255, 255, 255); opacity: 0.8; transform-origin: 364.606px 173.703px 0px;" class="animable" id="elqo28vyhnvff"></path></g><path d="M357.1,170.87l6.54,17.41-.65.45s-2.83-4-5.89-9.33Z" style="fill: #FFC100; transform-origin: 360.37px 179.8px 0px;" id="el0twm6r6m3bs" class="animable"></path><g id="elcwo2l9uq4qp"><path d="M357.1,170.87l6.54,17.41-.65.45s-2.83-4-5.89-9.33Z" style="fill: rgb(255, 255, 255); opacity: 0.6; transform-origin: 360.37px 179.8px 0px;" class="animable" id="eldxjf9rs03td"></path></g><polygon points="339.64 409.64 332.29 409.64 331.56 392.63 338.91 392.63 339.64 409.64" style="fill: rgb(159, 91, 83); transform-origin: 335.6px 401.135px 0px;" id="el72dpjwbps0b" class="animable"></polygon><polygon points="383.75 409.64 376.4 409.64 372.71 392.63 380.05 392.63 383.75 409.64" style="fill: rgb(159, 91, 83); transform-origin: 378.23px 401.135px 0px;" id="elgj3a1ur8dp4" class="animable"></polygon><polygon points="331.56 392.64 331.94 401.4 339.29 401.4 338.91 392.64 331.56 392.64" style="fill: rgb(138, 71, 67); transform-origin: 335.425px 397.02px 0px;" id="ellemaqlzv3rc" class="animable"></polygon><polygon points="380.06 392.64 372.71 392.64 374.61 401.4 381.96 401.4 380.06 392.64" style="fill: rgb(138, 71, 67); transform-origin: 377.335px 397.02px 0px;" id="elxi7y2jsb67c" class="animable"></polygon><path d="M334.38,222.78s8.34,56.14,12.91,77.17c5,23,23.9,99.76,23.9,99.76h13.46S372.19,324.84,369.33,302c-3.1-24.75-9.59-79.26-9.59-79.26Z" style="fill: #FFC100; transform-origin: 359.515px 311.225px 0px;" id="elton6acb0ac8" class="animable"></path><g id="elejb7uxfk3hd"><path d="M334.38,222.78s8.34,56.14,12.91,77.17c5,23,23.9,99.76,23.9,99.76h13.46S372.19,324.84,369.33,302c-3.1-24.75-9.59-79.26-9.59-79.26Z" style="opacity: 0.5; transform-origin: 359.515px 311.225px 0px;" class="animable" id="elgq8t0l7eo1l"></path></g><g id="eljwbw7p8tew"><path d="M339.65,242.78c9.64,1.89,8.62,37.84,7.46,56.33-2.78-13.07-6.85-38.22-9.63-56.07A3.29,3.29,0,0,1,339.65,242.78Z" style="opacity: 0.4; transform-origin: 342.658px 270.906px 0px;" class="animable" id="elvrpp167ojw"></path></g><path d="M320.44,222.78s-1,54.92-.21,77.33c.83,23.3,9,99.6,9,99.6h12.44s.46-74.94,1-97.82c.6-24.95,3.61-79.11,3.61-79.11Z" style="fill: #FFC100; transform-origin: 333.103px 311.245px 0px;" id="elmfyzoqaha2r" class="animable"></path><g id="elqt7sc3m74i"><path d="M320.44,222.78s-1,54.92-.21,77.33c.83,23.3,9,99.6,9,99.6h12.44s.46-74.94,1-97.82c.6-24.95,3.61-79.11,3.61-79.11Z" style="opacity: 0.5; transform-origin: 333.103px 311.245px 0px;" class="animable" id="elx5md603rz2"></path></g><path d="M363.59,215.72l-5.37.92,4.77,8.08s3.74-1.8,4.42-5.29Z" style="fill: rgb(159, 91, 83); transform-origin: 362.815px 220.22px 0px;" id="eledsbflzpaio" class="animable"></path><path d="M328.1,131.6c0,.59-.31,1.07-.7,1.07s-.7-.48-.7-1.07.31-1.07.7-1.07S328.1,131,328.1,131.6Z" style="fill: rgb(38, 50, 56); transform-origin: 327.4px 131.6px 0px;" id="elxlncz3yy3eb" class="animable"></path><path d="M327.84,132.67a21.33,21.33,0,0,1-2.83,5.07,3.41,3.41,0,0,0,2.83.53Z" style="fill: rgb(137, 43, 41); transform-origin: 326.425px 135.523px 0px;" id="eldgs83kuh77l" class="animable"></path><path d="M330.2,128.32a.31.31,0,0,1-.2-.07,2.75,2.75,0,0,0-2.48-.45.34.34,0,0,1-.44-.2.34.34,0,0,1,.19-.45,3.42,3.42,0,0,1,3.13.54.33.33,0,0,1,.08.48A.32.32,0,0,1,330.2,128.32Z" style="fill: rgb(38, 50, 56); transform-origin: 328.802px 127.652px 0px;" id="elgq9qfspokxv" class="animable"></path><path d="M347.23,138.43c-1.06,5.38-2.11,15.22,1.65,18.81,0,0-1.47,5.45-11.46,5.45-11,0-5.24-5.45-5.24-5.45,6-1.43,5.84-5.88,4.79-10.05Z" style="fill: rgb(159, 91, 83); transform-origin: 339.776px 150.56px 0px;" id="elrwqzgxx6d8" class="animable"></path><path d="M350.32,159.11c.79-1.72,1.65-3.7-.14-4.32-2-.68-12.77-1.37-16.49-.1a3.85,3.85,0,0,0-2.67,4.78Z" style="fill: #FFC100; transform-origin: 341.052px 156.725px 0px;" id="eluie5rc5bi7" class="animable"></path><path d="M373.45,410a2.35,2.35,0,0,1-1.76-.48.7.7,0,0,1,0-.83.81.81,0,0,1,.54-.41c1.08-.24,3.1,1.14,3.19,1.2a.18.18,0,0,1,.07.18.16.16,0,0,1-.13.13A9.34,9.34,0,0,1,373.45,410Zm-.91-1.4-.22,0a.47.47,0,0,0-.32.24c-.16.28-.06.4,0,.44.31.42,1.81.42,2.91.24A5.74,5.74,0,0,0,372.54,408.62Z" style="fill: #FFC100; transform-origin: 373.524px 409.136px 0px;" id="el2icnq53zr04" class="animable"></path><path d="M375.33,409.82l-.08,0c-.76-.42-2.23-2-2.08-2.84a.57.57,0,0,1,.56-.46,1,1,0,0,1,.74.22c.85.7,1,2.82,1,2.91a.16.16,0,0,1-.08.16A.14.14,0,0,1,375.33,409.82Zm-1.48-3h-.08c-.23,0-.25.14-.26.18-.09.49.85,1.7,1.6,2.27a4.22,4.22,0,0,0-.86-2.3A.64.64,0,0,0,373.85,406.84Z" style="fill: #FFC100; transform-origin: 374.315px 408.167px 0px;" id="eldmy5w9r408m" class="animable"></path><path d="M329.34,410c-.94,0-1.85-.13-2.16-.55a.67.67,0,0,1,0-.76.84.84,0,0,1,.55-.41c1.21-.33,3.79,1.13,3.9,1.19a.18.18,0,0,1,.08.18.16.16,0,0,1-.14.14A12.08,12.08,0,0,1,329.34,410Zm-1.17-1.42a1.15,1.15,0,0,0-.33,0,.51.51,0,0,0-.34.24c-.12.22-.08.32,0,.38.34.46,2.19.49,3.57.3A7.87,7.87,0,0,0,328.17,408.6Z" style="fill: #FFC100; transform-origin: 329.387px 409.116px 0px;" id="ell336chopy1a" class="animable"></path><path d="M331.56,409.82l-.07,0c-.89-.39-2.64-2-2.51-2.81,0-.2.17-.44.65-.49a1.22,1.22,0,0,1,1,.3c.94.76,1.13,2.74,1.14,2.83a.17.17,0,0,1-.07.16A.17.17,0,0,1,331.56,409.82Zm-1.79-3h-.11c-.31,0-.33.16-.34.2-.08.5,1.12,1.75,2,2.29a4,4,0,0,0-1-2.26A.87.87,0,0,0,329.77,406.84Z" style="fill: #FFC100; transform-origin: 330.372px 408.168px 0px;" id="el4rqrv67yxff" class="animable"></path><path d="M375.88,408.79h8.25a.65.65,0,0,1,.63.51l1.45,6.53a1.08,1.08,0,0,1-1.08,1.3c-2.88-.05-4.28-.22-7.91-.22-2.23,0-6.83.24-9.92.24s-3.48-3-2.22-3.33c5.66-1.24,7.79-2.95,9.61-4.57A1.74,1.74,0,0,1,375.88,408.79Z" style="fill: rgb(38, 50, 56); transform-origin: 375.321px 412.97px 0px;" id="elxp79h6t68s" class="animable"></path><path d="M332.34,408.79h8a.65.65,0,0,1,.63.51l1.45,6.53a1.07,1.07,0,0,1-1.06,1.3c-2.89-.05-7.07-.22-10.71-.22-4.25,0-7.93.24-12.92.24-3,0-3.85-3-2.59-3.33,5.75-1.26,10.44-1.39,15.41-4.45A3.36,3.36,0,0,1,332.34,408.79Z" style="fill: rgb(38, 50, 56); transform-origin: 328.511px 412.97px 0px;" id="elxzwagy7gj1o" class="animable"></path><path d="M321.85,173.93c-2.91,4.3-5.92,8.31-9.17,12.29a136.25,136.25,0,0,1-10.4,11.48l-1.44,1.36-.37.34-.25.23-.37.32a11,11,0,0,1-1.51,1,13.43,13.43,0,0,1-5.45,1.52,30.28,30.28,0,0,1-8.66-.71,65.72,65.72,0,0,1-14.85-5.22l1.83-5.2a117.1,117.1,0,0,0,14.19,1.93,25.64,25.64,0,0,0,6.27-.26,4,4,0,0,0,1.66-.64s0-.07,0-.07h0l.07-.08.3-.33,1.18-1.3c3.13-3.57,6.16-7.36,9.1-11.25s5.88-7.85,8.69-11.74Z" style="fill: rgb(159, 91, 83); transform-origin: 295.615px 185.064px 0px;" id="ell78b3sbjtx" class="animable"></path><path d="M325.24,175.08a34.86,34.86,0,0,1-7.76,16.82c-.16-3.52-.22-6.68-.21-9.51Z" style="fill: rgb(190, 211, 252); transform-origin: 321.254px 183.49px 0px;" id="elfwy29lndmk" class="animable"></path><path d="M347.86,130.34c-.44,7.28-.33,11.56-4,15.3-5.53,5.62-14.51,2.28-16.25-5-1.56-6.54-.57-17.34,6.56-20.24A9.94,9.94,0,0,1,347.86,130.34Z" style="fill: rgb(159, 91, 83); transform-origin: 337.431px 134.059px 0px;" id="elp2zga3jwzx" class="animable"></path><path d="M333.72,125.5c.06,8.56,2.84,19.06,11.12,18.33,5.5-.48,9.68-10.51,10.25-14.76.87-6.5,1-7.74-2.66-8.49,1.6-.87,2.18-5-1.56-6-5.2-1.37-15-2.71-11.92-5.88-6.14,1.11-7.68,3.57-6.56,6.56-3.59-.28-5.8-2.16-5.69-5C320.75,112.67,316.89,126.3,333.72,125.5Z" style="fill: rgb(38, 50, 56); transform-origin: 338.613px 126.283px 0px;" id="el4cxlch0wrai" class="animable"></path><path d="M338,132.46a8.22,8.22,0,0,1-2.78,4.5c-1.85,1.5-3.33.16-3.29-2,0-1.95,1.06-5.08,3.14-5.74S338.51,130.33,338,132.46Z" style="fill: rgb(159, 91, 83); transform-origin: 335.018px 133.339px 0px;" id="elcqhcxbwbd8p" class="animable"></path><path d="M358,122.07a7,7,0,0,0-6.63-.48S355.53,116,358,122.07Z" style="fill: rgb(38, 50, 56); transform-origin: 354.685px 120.656px 0px;" id="eli2bunbdpgp" class="animable"></path><path d="M369,394.75c-.06,0,1.39,5.17,1.39,5.17h15.14l-.28-4.61Z" style="fill: #FFC100; transform-origin: 377.264px 397.335px 0px;" id="ele3yrm91avs6" class="animable"></path><path d="M326.81,394.75c-.06,0,.7,5.17.7,5.17h15.14l.41-4.61Z" style="fill: #FFC100; transform-origin: 334.933px 397.335px 0px;" id="el3x0tpciih9m" class="animable"></path><path d="M331.79,390.77a.12.12,0,0,1-.12-.11c-2.2-21.12-7.37-72.22-8-90.55-.67-18.71-.06-60.69.14-73.11,0-.07.06-.11.13-.12a.13.13,0,0,1,.12.12c-.2,12.42-.81,54.4-.14,73.1.65,18.33,5.82,69.41,8,90.53a.14.14,0,0,1-.12.14Z" style="fill: #FFC100; transform-origin: 327.642px 308.825px 0px;" id="el4y3mvumbd0v" class="animable"></path><g id="eluwd5qtq7opn"><path d="M331.79,390.77a.12.12,0,0,1-.12-.11c-2.2-21.12-7.37-72.22-8-90.55-.67-18.71-.06-60.69.14-73.11,0-.07.06-.11.13-.12a.13.13,0,0,1,.12.12c-.2,12.42-.81,54.4-.14,73.1.65,18.33,5.82,69.41,8,90.53a.14.14,0,0,1-.12.14Z" style="opacity: 0.3; transform-origin: 327.642px 308.825px 0px;" class="animable" id="elwqjmrej8t0j"></path></g><path d="M328.63,165.23c1,7-12.74,24.73-12.74,24.73l-13.77-9.48s3.82-9.79,10.25-16.21C319.71,157,327.57,157.66,328.63,165.23Z" style="fill: #FFC100; transform-origin: 315.401px 174.564px 0px;" id="elywwddw6xas" class="animable"></path><g id="ely4y3zvkgzir"><path d="M328.63,165.23c1,7-12.74,24.73-12.74,24.73l-13.77-9.48s3.82-9.79,10.25-16.21C319.71,157,327.57,157.66,328.63,165.23Z" style="fill: rgb(255, 255, 255); opacity: 0.8; transform-origin: 315.401px 174.564px 0px;" class="animable" id="els3304yfsbha"></path></g><path d="M320.88,159.28s-7.82,8.83-.44,63.5h39.3c.27-6-3.52-35.46,2.29-63.88a102.56,102.56,0,0,0-13.15-1.66,145.27,145.27,0,0,0-16.7,0A73.5,73.5,0,0,0,320.88,159.28Z" style="fill: #FFC100; transform-origin: 339.65px 189.89px 0px;" id="el96sbla2dpbi" class="animable"></path><g id="el95z22f3smw4"><path d="M320.88,159.28s-7.82,8.83-.44,63.5h39.3c.27-6-3.52-35.46,2.29-63.88a102.56,102.56,0,0,0-13.15-1.66,145.27,145.27,0,0,0-16.7,0A73.5,73.5,0,0,0,320.88,159.28Z" style="fill: rgb(255, 255, 255); opacity: 0.8; transform-origin: 339.65px 189.89px 0px;" class="animable" id="el2pf49gxbw75"></path></g></g><g id="freepik--Buttons--inject-1" style="transform-origin: 147.892px 215.938px 0px;" class="animable"><g id="el5o8y9614fut"><circle cx="180.24" cy="113.47" r="25.67" style="fill: #FFC100; transform-origin: 180.24px 113.47px 0px; transform: rotate(-77.21deg);" class="animable" id="el87gwq5l6tn"></circle></g><g id="eljv67s3letw"><circle cx="180.24" cy="113.47" r="25.67" style="fill: rgb(255, 255, 255); opacity: 0.2; transform-origin: 180.24px 113.47px 0px; transform: rotate(-77.21deg);" class="animable" id="elc44yln45b48"></circle></g><path d="M177.59,146.75a33.24,33.24,0,0,1-29.19-23.3l.95-.3a32.25,32.25,0,0,0,28.32,22.6Z" style="fill: #FFC100; transform-origin: 163.035px 134.95px 0px;" id="elwehcljeefcc" class="animable"></path><g id="elblr9k98wwd8"><path d="M177.59,146.75a33.24,33.24,0,0,1-29.19-23.3l.95-.3a32.25,32.25,0,0,0,28.32,22.6Z" style="fill: rgb(255, 255, 255); opacity: 0.2; transform-origin: 163.035px 134.95px 0px;" class="animable" id="el7a924ivj4w"></path></g><path d="M149.21,104.22l-1-.28a33.38,33.38,0,0,1,42.82-22l-.32.95a32.4,32.4,0,0,0-41.55,21.37Z" style="fill: #FFC100; transform-origin: 169.62px 92.1952px 0px;" id="el2p71c9dn0rg" class="animable"></path><g id="elemp6z72v6fq"><path d="M149.21,104.22l-1-.28a33.38,33.38,0,0,1,42.82-22l-.32.95a32.4,32.4,0,0,0-41.55,21.37Z" style="fill: rgb(255, 255, 255); opacity: 0.2; transform-origin: 169.62px 92.1952px 0px;" class="animable" id="elb39r7q52lsb"></path></g><path d="M211.14,103.79a32.3,32.3,0,0,0-14-17.93l.52-.86a33.35,33.35,0,0,1,14.42,18.49Z" style="fill: #FFC100; transform-origin: 204.61px 94.395px 0px;" id="elokllwebibt" class="animable"></path><g id="elpeoupapq0v9"><path d="M211.14,103.79a32.3,32.3,0,0,0-14-17.93l.52-.86a33.35,33.35,0,0,1,14.42,18.49Z" style="fill: rgb(255, 255, 255); opacity: 0.2; transform-origin: 204.61px 94.395px 0px;" class="animable" id="el2ffnyii2y59"></path></g><g id="elb46lvdgigh"><circle cx="180.24" cy="184.34" r="25.67" style="fill: #FFC100; transform-origin: 180.24px 184.34px 0px; transform: rotate(-77.21deg);" class="animable" id="elopjeo3dnlx"></circle></g><g id="elh4av00936l"><circle cx="180.24" cy="184.34" r="25.67" style="fill: rgb(255, 255, 255); opacity: 0.6; transform-origin: 180.24px 184.34px 0px; transform: rotate(-77.21deg);" class="animable" id="elcmnlr8dk3lp"></circle></g><g id="elhb5igi69nub"><circle cx="180.24" cy="255.2" r="25.67" style="fill: #FFC100; transform-origin: 180.24px 255.2px 0px; transform: rotate(-77.21deg);" class="animable" id="elms8tn2kib0a"></circle></g><g id="elfk33blkp91"><circle cx="180.24" cy="255.2" r="25.67" style="fill: rgb(255, 255, 255); opacity: 0.6; transform-origin: 180.24px 255.2px 0px; transform: rotate(-77.21deg);" class="animable" id="el550td5tm8v7"></circle></g><g id="elca0ctbwd3g"><circle cx="180.24" cy="326.07" r="25.67" style="fill: #FFC100; transform-origin: 180.24px 326.07px 0px; transform: rotate(-77.21deg);" class="animable" id="elt8qw5flzdua"></circle></g><g id="elsnqku45cq1"><circle cx="180.24" cy="326.07" r="25.67" style="fill: rgb(255, 255, 255); opacity: 0.6; transform-origin: 180.24px 326.07px 0px; transform: rotate(-77.21deg);" class="animable" id="el875tvjoq8x4"></circle></g><g id="el1dzcngprno6"><circle cx="109.38" cy="113.47" r="25.67" style="fill: #FFC100; transform-origin: 109.38px 113.47px 0px; transform: rotate(-77.21deg);" class="animable" id="eljyzpptn8cli"></circle></g><g id="elu0gyb8yqmvp"><circle cx="109.38" cy="113.47" r="25.67" style="fill: rgb(255, 255, 255); opacity: 0.6; transform-origin: 109.38px 113.47px 0px; transform: rotate(-77.21deg);" class="animable" id="el8ep9umxqeza"></circle></g><g id="elhsve9d2h6m5"><circle cx="109.38" cy="184.34" r="25.67" style="fill: #FFC100; transform-origin: 109.38px 184.34px 0px; transform: rotate(-77.21deg);" class="animable" id="elnyqfss3tjn"></circle></g><g id="elxqgbr8437ve"><circle cx="109.38" cy="184.34" r="25.67" style="fill: rgb(255, 255, 255); opacity: 0.6; transform-origin: 109.38px 184.34px 0px; transform: rotate(-77.21deg);" class="animable" id="elcmkgmbmmzc"></circle></g><g id="elxfuqbae3gto"><circle cx="109.38" cy="255.2" r="25.67" style="fill: #FFC100; transform-origin: 109.38px 255.2px 0px; transform: rotate(-77.21deg);" class="animable" id="eljch0x37idt"></circle></g><g id="elcre0elsa04p"><circle cx="109.38" cy="255.2" r="25.67" style="fill: rgb(255, 255, 255); opacity: 0.6; transform-origin: 109.38px 255.2px 0px; transform: rotate(-77.21deg);" class="animable" id="eleybli7ckdj"></circle></g><g id="elglcsa4abtff"><circle cx="109.38" cy="326.07" r="25.67" style="fill: #FFC100; transform-origin: 109.38px 326.07px 0px; transform: rotate(-77.21deg);" class="animable" id="elbzo9qb9lyc"></circle></g><g id="elm2jpb9vbkna"><circle cx="109.38" cy="326.07" r="25.67" style="fill: rgb(255, 255, 255); opacity: 0.6; transform-origin: 109.38px 326.07px 0px; transform: rotate(-77.21deg);" class="animable" id="elad1c1cy2vws"></circle></g></g><g id="freepik--Hand--inject-1" style="transform-origin: 232.192px 160.535px 0px;" class="animable"><path d="M272.2,191.88l-5.39-5.58-5.75,7.42s4.38,4.22,9.59,3Z" style="fill: rgb(159, 91, 83); transform-origin: 266.63px 191.621px 0px;" id="elpeirn19sfze" class="animable"></path><polygon points="259.4 183.24 256.94 191.02 261.06 193.72 266.81 186.3 259.4 183.24" style="fill: rgb(159, 91, 83); transform-origin: 261.875px 188.48px 0px;" id="ellcgq068d6la" class="animable"></polygon><path d="M186,183.66a9.68,9.68,0,0,1,13.64-5.5l-6-3.12a9.9,9.9,0,0,1-4.7-12.58,9.7,9.7,0,0,1,13.34-4.72l-6-3.11a9.9,9.9,0,0,1-4.7-12.59A9.69,9.69,0,0,1,205,137.33l-28.49-14.9a9.86,9.86,0,0,1-5-11.77,9.7,9.7,0,0,1,13.65-5.5l60,31.37L239,111.25a10.31,10.31,0,0,1,19.63-6.15l19.68,51.12a19.3,19.3,0,0,0,9.05,10.15l3.43,1.79a4.5,4.5,0,0,1,1.9,6.09l-24,45.85a4.52,4.52,0,0,1-6.09,1.91l-8.42-4.4a19.79,19.79,0,0,0-10.34-2.14,48,48,0,0,1-24.94-5.4l-28-14.64A9.86,9.86,0,0,1,186,183.66Z" style="fill: #FFC100; transform-origin: 232.133px 160.532px 0px;" id="el5w95zjgu418" class="animable"></path><path d="M264.74,224a6,6,0,0,1-2.78-.68l-8.42-4.4a18.51,18.51,0,0,0-9.56-2,49.52,49.52,0,0,1-25.72-5.56l-28-14.64a11.39,11.39,0,0,1-5.67-13.58,11.13,11.13,0,0,1,6.43-6.8,9.66,9.66,0,0,1,1.25-.42,11.37,11.37,0,0,1-4.66-14.1,11,11,0,0,1,6.53-6.07c.27-.09.54-.18.81-.25a11.36,11.36,0,0,1-4.66-14.1,11,11,0,0,1,6.53-6.06c.25-.09.51-.17.76-.24l-21.76-11.38a11.39,11.39,0,0,1-5.67-13.58,11.2,11.2,0,0,1,15.76-6.35L243,133.67l-5.39-22.07a11.8,11.8,0,0,1,22.48-7l19.68,51.12a17.79,17.79,0,0,0,8.35,9.36l3.42,1.79a6,6,0,0,1,2.54,8.11l-24,45.86A6,6,0,0,1,264.74,224Zm-19.63-10.09a21.21,21.21,0,0,1,9.82,2.35l8.42,4.4a3,3,0,0,0,4.07-1.27l24-45.86a3,3,0,0,0-1.28-4.06l-3.42-1.79A20.72,20.72,0,0,1,277,156.76l-19.69-51.12a8.8,8.8,0,0,0-16.77,5.25l6.18,25.29a1.49,1.49,0,0,1-.53,1.53,1.48,1.48,0,0,1-1.62.15l-60-31.37a8.17,8.17,0,0,0-6.82-.33,8,8,0,0,0-4.71,5,8.38,8.38,0,0,0,4.22,10l28.5,14.9a1.5,1.5,0,0,1-1.39,2.66,8.18,8.18,0,0,0-6.5-.45,8.07,8.07,0,0,0-4.78,4.43,8.39,8.39,0,0,0,4,10.66l6,3.12h0a1.5,1.5,0,0,1-1.39,2.65h0a8.19,8.19,0,0,0-6.49-.45,8.09,8.09,0,0,0-4.78,4.44,8.39,8.39,0,0,0,4,10.65l6,3.12h0a1.5,1.5,0,0,1-1.39,2.66h0a8.21,8.21,0,0,0-6.82-.32,8.06,8.06,0,0,0-4.7,5h0a8.37,8.37,0,0,0,4.22,10l28,14.64A46.62,46.62,0,0,0,243.81,214C244.25,214,244.68,213.93,245.11,213.93ZM186,183.66h0Z" style="fill: #FFC100; transform-origin: 232.192px 160.535px 0px;" id="elzfcpoouwvji" class="animable"></path><path d="M207.13,183.57a1.48,1.48,0,0,1-.7-.17L199,179.49a1.5,1.5,0,1,1,1.39-2.66l7.47,3.91a1.5,1.5,0,0,1-.69,2.83Z" style="fill: #FFC100; transform-origin: 203.43px 180.115px 0px;" id="el52sb0ggt5hn" class="animable"></path><path d="M209.81,163.15a1.45,1.45,0,0,1-.7-.17l-7.47-3.91a1.5,1.5,0,1,1,1.39-2.65l7.47,3.9a1.5,1.5,0,0,1-.69,2.83Z" style="fill: #FFC100; transform-origin: 206.024px 159.673px 0px;" id="elhodpxvxl7ao" class="animable"></path><path d="M212.48,142.74a1.56,1.56,0,0,1-.69-.17l-7.47-3.91a1.5,1.5,0,1,1,1.39-2.66l7.47,3.91a1.5,1.5,0,0,1-.7,2.83Z" style="fill: #FFC100; transform-origin: 208.75px 139.285px 0px;" id="el6y0by56h3fo" class="animable"></path><g id="eltw3or8r976"><path d="M264.74,224a6,6,0,0,1-2.78-.68l-8.42-4.4a18.51,18.51,0,0,0-9.56-2,49.52,49.52,0,0,1-25.72-5.56l-28-14.64a11.39,11.39,0,0,1-5.67-13.58,11.13,11.13,0,0,1,6.43-6.8,9.66,9.66,0,0,1,1.25-.42,11.37,11.37,0,0,1-4.66-14.1,11,11,0,0,1,6.53-6.07c.27-.09.54-.18.81-.25a11.36,11.36,0,0,1-4.66-14.1,11,11,0,0,1,6.53-6.06c.25-.09.51-.17.76-.24l-21.76-11.38a11.39,11.39,0,0,1-5.67-13.58,11.2,11.2,0,0,1,15.76-6.35L243,133.67l-5.39-22.07a11.8,11.8,0,0,1,22.48-7l19.68,51.12a17.79,17.79,0,0,0,8.35,9.36l3.42,1.79a6,6,0,0,1,2.54,8.11l-24,45.86A6,6,0,0,1,264.74,224Zm-19.63-10.09a21.21,21.21,0,0,1,9.82,2.35l8.42,4.4a3,3,0,0,0,4.07-1.27l24-45.86a3,3,0,0,0-1.28-4.06l-3.42-1.79A20.72,20.72,0,0,1,277,156.76l-19.69-51.12a8.8,8.8,0,0,0-16.77,5.25l6.18,25.29a1.49,1.49,0,0,1-.53,1.53,1.48,1.48,0,0,1-1.62.15l-60-31.37a8.17,8.17,0,0,0-6.82-.33,8,8,0,0,0-4.71,5,8.38,8.38,0,0,0,4.22,10l28.5,14.9a1.5,1.5,0,0,1-1.39,2.66,8.18,8.18,0,0,0-6.5-.45,8.07,8.07,0,0,0-4.78,4.43,8.39,8.39,0,0,0,4,10.66l6,3.12h0a1.5,1.5,0,0,1-1.39,2.65h0a8.19,8.19,0,0,0-6.49-.45,8.09,8.09,0,0,0-4.78,4.44,8.39,8.39,0,0,0,4,10.65l6,3.12h0a1.5,1.5,0,0,1-1.39,2.66h0a8.21,8.21,0,0,0-6.82-.32,8.06,8.06,0,0,0-4.7,5h0a8.37,8.37,0,0,0,4.22,10l28,14.64A46.62,46.62,0,0,0,243.81,214C244.25,214,244.68,213.93,245.11,213.93ZM186,183.66h0Z" style="opacity: 0.3; transform-origin: 232.192px 160.535px 0px;" class="animable" id="elwje98swsir"></path></g></g><defs>     <filter id="active" height="200%">         <feMorphology in="SourceAlpha" result="DILATED" operator="dilate" radius="2"></feMorphology>                <feFlood flood-color="#32DFEC" flood-opacity="1" result="PINK"></feFlood>        <feComposite in="PINK" in2="DILATED" operator="in" result="OUTLINE"></feComposite>        <feMerge>            <feMergeNode in="OUTLINE"></feMergeNode>            <feMergeNode in="SourceGraphic"></feMergeNode>        </feMerge>    </filter>    <filter id="hover" height="200%">        <feMorphology in="SourceAlpha" result="DILATED" operator="dilate" radius="2"></feMorphology>                <feFlood flood-color="#ff0000" flood-opacity="0.5" result="PINK"></feFlood>        <feComposite in="PINK" in2="DILATED" operator="in" result="OUTLINE"></feComposite>        <feMerge>            <feMergeNode in="OUTLINE"></feMergeNode>            <feMergeNode in="SourceGraphic"></feMergeNode>        </feMerge>            <feColorMatrix type="matrix" values="0   0   0   0   0                0   1   0   0   0                0   0   0   0   0                0   0   0   1   0 "></feColorMatrix>    </filter></defs></svg>