<svg xmlns="http://www.w3.org/2000/svg" xmlns:xlink="http://www.w3.org/1999/xlink" width="164" height="164" viewBox="0 0 164 164"><defs><style>.a{fill:url(#a);}.b{fill:#ecf4fa;}.c{fill:#fb8f27;}.c,.d{stroke:rgba(0,0,0,0);stroke-miterlimit:10;}.d{fill:#017efa;}.e{fill:#181c39;}</style><linearGradient id="a" x1="0.136" y1="0.5" x2="2.14" y2="0.5" gradientUnits="objectBoundingBox"><stop offset="0" stop-color="#f0f5f9"/><stop offset="1" stop-color="#c4dffe"/></linearGradient></defs><g transform="translate(-1045 -2626)"><g transform="translate(790 64.918)"><circle class="a" cx="82" cy="82" r="82" transform="translate(255 2561.082)"/><ellipse class="b" cx="53.602" cy="53" rx="53.602" ry="53" transform="translate(283 2590.082)"/></g><g transform="translate(-22 56.643)"><path class="c" d="M13.662,57.058H.094c-.012-.049-.027-.094-.041-.138A.791.791,0,0,1,0,56.672c.029-1.552.021-3.134.014-4.664a89.3,89.3,0,0,1,.347-10.3A57.4,57.4,0,0,1,1.428,35.34a15.975,15.975,0,0,0,4.921.83h.183A15.783,15.783,0,0,0,16.77,32.362a33.263,33.263,0,0,0-2.176,6.6,44.363,44.363,0,0,0-.931,9.622c0,1.978,0,3.995,0,5.945q0,1.256,0,2.526Zm7.873-31.883h0a16.367,16.367,0,0,0,.745-4.708A15.462,15.462,0,0,0,18.34,10.018,49.183,49.183,0,0,1,26.857,5.46l.031-.013c.108-.045.22-.092.327-.145a.613.613,0,0,0,.114-.087c.03-.026.066-.057.114-.1l-.955-2.254L25.273,0,42.381,3.114l5.345.973L35.153,23.093l-1.794-4.135-.012-.027L32.857,17.8c-.2.08-.4.157-.6.233-.424.163-.825.316-1.222.494A29,29,0,0,0,21.535,25.175Z" transform="translate(1142.015 2635.668)"/><path class="c" d="M32.793,37.623v0a32.482,32.482,0,0,0-1.45-4.374A15.662,15.662,0,0,0,33.6,34.589c-.171.7-.337,1.429-.494,2.177-.049.235-.1.452-.159.666a.282.282,0,0,1-.074.1c-.022.024-.049.052-.079.088ZM25.235,24.206l0,0A30.963,30.963,0,0,0,14.88,17.772L14.3,19.11l-.054.125-1.665,3.871L3.809,9.842l-.02-.03L0,4.086,11.106,2.065l.033-.006L22.452,0,20.27,5.178c.347.152.691.3,1.023.439.723.307,1.405.6,2.08.925a44.905,44.905,0,0,1,5.542,3.185,15.593,15.593,0,0,0-4.145,10.584,16.373,16.373,0,0,0,.464,3.891Z" transform="translate(1108 2635.664)"/><path class="d" d="M19.607,33.68h0a15.6,15.6,0,0,0-7.1-1.751h-.038a15.65,15.65,0,0,0-6.535,1.415c-.005-3.206,0-6.465,0-9.618q0-1.588,0-3.171V19.333H0L12.209.858,12.777,0l5.965,9.024.009.013,6.776,10.252H19.6v1.243q0,1.9,0,3.792v.1c0,3.034,0,6.171,0,9.256Z" transform="translate(1136.072 2608.357)"/><path class="e" d="M24.542,161.306a75.75,75.75,0,0,1-17.588-1.454,32.637,32.637,0,0,1-5.345-1.886,2.607,2.607,0,0,1-1.6-2.8A20.243,20.243,0,0,1,6.366,141.1a29.944,29.944,0,0,1,7.071-5.014,3.537,3.537,0,0,1,3.5.009,15.474,15.474,0,0,0,12.271.918,11.759,11.759,0,0,0,1.913-.908,3.282,3.282,0,0,1,3.148-.147c4.949,2.467,9.157,5.77,11.834,10.738a19.966,19.966,0,0,1,2.277,8.8,2.75,2.75,0,0,1-1.246,2.47,15.131,15.131,0,0,1-6.413,2.253,86.694,86.694,0,0,1-16.177,1.094" transform="translate(1124.431 2533.71)"/><path class="e" d="M57.19,12.8A12.863,12.863,0,1,1,69.916,25.748,12.861,12.861,0,0,1,57.19,12.8" transform="translate(1078.318 2643.06)"/></g></g></svg>