<svg xmlns="http://www.w3.org/2000/svg" xmlns:xlink="http://www.w3.org/1999/xlink" width="114" height="114" viewBox="0 0 114 114"><defs><style>.a{fill:#fff;}.b{fill:url(#a);}.c{clip-path:url(#b);}</style><linearGradient id="a" x1="1.515" y1="1.066" x2="0" gradientUnits="objectBoundingBox"><stop offset="0" stop-color="#181c39"/><stop offset="1" stop-color="#64677a"/></linearGradient><clipPath id="b"><rect class="a" width="53.333" height="50"/></clipPath></defs><g transform="translate(-904 -3649)"><circle class="b" cx="57" cy="57" r="57" transform="translate(904 3649)"/><g class="c" transform="translate(934 3681)"><path class="a" d="M0,240.264h20.2a6.575,6.575,0,0,0,1.861,6.459,6.312,6.312,0,0,0,4.9,1.844,6.648,6.648,0,0,0,6.134-8.3H53.328v.538q0,8.773,0,17.547a6.65,6.65,0,0,1-5.3,6.745,5.555,5.555,0,0,1-1.285.142q-20.069.011-40.138.005A6.625,6.625,0,0,1,.031,258.84C-.021,253.651.009,248.461,0,243.272c0-.986,0-1.973,0-3.008" transform="translate(0 -215.247)"/><path class="a" d="M53.326,21.643H.015v-1.78q0-3.2,0-6.406A6.706,6.706,0,0,1,5.312,6.8,5.92,5.92,0,0,1,6.6,6.674c3.159-.01,6.318-.006,9.477-.006h.607c0-1.071,0-2.09,0-3.11A3.343,3.343,0,0,1,20.215,0q6.509,0,13.018,0a3.342,3.342,0,0,1,3.446,3.432c0,1.056,0,2.112,0,3.234H46.43a6.629,6.629,0,0,1,6.754,5.279,5.834,5.834,0,0,1,.151,1.336c.015,2.691.011,5.381.012,8.072,0,.084-.011.168-.019.287M33.345,6.649c0-.626.025-1.2-.006-1.767a1.641,1.641,0,0,0-1.608-1.541q-5.049-.02-10.1,0a1.609,1.609,0,0,0-1.595,1.436c-.058.613-.012,1.235-.012,1.871Z" transform="translate(-0.013 -0.001)"/><path class="a" d="M224.118,241.585a2.337,2.337,0,0,1,.015-.268c.162-1.194.28-1.3,1.47-1.3,1.423,0,2.845.013,4.268-.01a.579.579,0,0,1,.647.415,3.319,3.319,0,0,1-4.38,4.321,3.38,3.38,0,0,1-2.02-3.161" transform="translate(-200.782 -215.02)"/></g></g></svg>