<svg xmlns="http://www.w3.org/2000/svg" xmlns:xlink="http://www.w3.org/1999/xlink" width="114" height="114" viewBox="0 0 114 114"><defs><style>.a{fill:#fff;stroke:rgba(0,0,0,0);stroke-miterlimit:10;}.b{fill:url(#a);}.c{clip-path:url(#b);}</style><linearGradient id="a" x1="0.148" y1="0.047" x2="0.824" y2="1.061" gradientUnits="objectBoundingBox"><stop offset="0" stop-color="#72b9ff"/><stop offset="1" stop-color="#017efa"/></linearGradient><clipPath id="b"><rect class="a" width="55.065" height="57.865"/></clipPath></defs><g transform="translate(-299 -3649)"><circle class="b" cx="57" cy="57" r="57" transform="translate(299 3649)"/><g transform="translate(328 3677)"><g class="c"><path class="a" d="M64.921,48.035c0-3.335-.011-6.6.025-9.869,0-.226.326-.488.553-.665q1.4-1.087,2.831-2.127a3.03,3.03,0,0,1,.993-.575,4.978,4.978,0,0,0,3.865-5.66,1.413,1.413,0,0,1,.468-1.073,4.932,4.932,0,0,0,.634-7.2,3.348,3.348,0,0,1-.479-1.261c-.062-.21.037-.479-.052-.669C72.728,16.71,71.5,14.464,69.4,13.261a26.11,26.11,0,0,1-3.854-2.151,3.386,3.386,0,0,0-5.379,3.048c.017,6.176.027,12.353,0,18.529a4.51,4.51,0,0,0,2.2,4.278,1.089,1.089,0,0,1,.459.781c.031,3.309.021,6.619.021,10.022h-5.73c-.021-.387-.056-.752-.056-1.117-.005-2.335.023-4.67-.012-7-.021-1.385-.147-2.644,1.523-3.4a3.028,3.028,0,0,0,1.383-2.93q.018-9.829,0-19.659a3.215,3.215,0,0,0-2.267-3.173,3.627,3.627,0,0,0-4.112,1.345,1.671,1.671,0,0,1-1.414.835,4.12,4.12,0,0,0-3.5,2.651,2.451,2.451,0,0,1-.687.951,3.665,3.665,0,0,0-1.569,3.2,1.739,1.739,0,0,1-.354,1.068,4.965,4.965,0,0,0,.512,7.234,1.564,1.564,0,0,1,.488,1.154,4.839,4.839,0,0,0,3.786,5.591,2.01,2.01,0,0,1,1.059.652,5.008,5.008,0,0,0,3.481,2.225V47.714c-2.613.492-3.84-.345-4.192-2.853a13.787,13.787,0,0,0-2.893-6.646c-.671-.861-1.342-1.727-2.073-2.535-6.146-6.795-4.96-18.388,2.086-24.487a17.971,17.971,0,0,1,25.335,25.4,17.207,17.207,0,0,0-4.313,7.8c-.031.147-.07.293-.1.441-.473,2.771-1.279,3.4-4.309,3.2" transform="translate(-32.693 -5.206)"/><path class="a" d="M87.655,203.685c-2.878-1.309-3.592-2.471-2.665-4.47h16.639c1.137,1.717.371,3.053-2.815,4.293a3.4,3.4,0,0,0,.684.355,2.586,2.586,0,0,1,2.291,2.94,2.776,2.776,0,0,1-2.68,2.687,3.136,3.136,0,0,1-.677.005,1.1,1.1,0,0,0-1.349.854,2.377,2.377,0,0,1-2.533,1.664,15.824,15.824,0,0,0-1.806.014c-1.768.174-3.111-.293-3.708-2.158-.077-.24-.541-.39-.854-.51a2.116,2.116,0,0,0-.673-.018c-1.758-.036-2.836-.925-2.966-2.444-.147-1.71.535-2.563,2.365-2.974.254-.057.5-.157.747-.237" transform="translate(-65.423 -154.196)"/><path class="a" d="M62.723,45.649a2.887,2.887,0,0,1-.073-4.9c.646-.465.913-.853.611-1.669a2.717,2.717,0,0,1,.2-1.611,4.6,4.6,0,0,0,4.429,2.55,10.656,10.656,0,0,0,1.077,2.267,5.132,5.132,0,0,0,1.876,1.327c.242.11.906-.235,1.053-.533.119-.239-.182-.773-.42-1.081-.288-.374-.795-.592-1.049-.98a1.707,1.707,0,0,1,.137-2.245,6.838,6.838,0,0,0,1.1-2.621c.069-.286-.522-.732-.811-1.1-.32.3-.823.55-.929.914-.487,1.672-1.093,2.271-2.472,2.213a2.252,2.252,0,1,1,.519-4.463c.969.273,1.348-.024,1.671-.9a2.726,2.726,0,0,1,1.112-1.327,1.5,1.5,0,0,1,2.365,1.366q.042,9.708,0,19.417a2.179,2.179,0,0,1-1.8,2.283,2.582,2.582,0,0,1-2.958-1.333,2.177,2.177,0,0,0-2.127-1.42,3.07,3.07,0,0,1-2.71-2.39,2.841,2.841,0,0,1,1.134-3.094,2.035,2.035,0,0,1,2.507-.275,2.061,2.061,0,0,1,1.041,2.3c-.037.222-.2.481-.131.651.166.408.367.989.686,1.091a1.308,1.308,0,0,0,1.088-.608A3.665,3.665,0,0,0,68.288,44.7a1.494,1.494,0,0,1-.884-1.368A3.583,3.583,0,0,0,65.5,40.2a1.621,1.621,0,0,0-1.479.1c-.515.487-.073.988.4,1.39A4.464,4.464,0,0,1,65.549,42.9c.31.6.347,1.146-.6,1.423a10.5,10.5,0,0,0-2.223,1.322" transform="translate(-47.466 -24.163)"/><path class="a" d="M134.582,40.173a4.257,4.257,0,0,0,4.392-2.6l.3.034c.052.534.293,1.143.116,1.584-.327.816-.082,1.206.567,1.671a2.868,2.868,0,0,1-.044,4.892l-2.954-1.794a2.143,2.143,0,0,1,1.178-2.118c.542-.342.917-.764.549-1.381-.405-.678-1.036-.505-1.584-.173a3.9,3.9,0,0,0-1.9,3.28,1.261,1.261,0,0,1-.76,1.2,3.812,3.812,0,0,0-1.808,4.543c.212.63.518,1.268,1.339,1.051s.626-.853.479-1.472a2.266,2.266,0,0,1,4.312-1.358c1.037,2.414-.066,4.33-2.68,4.563a1.413,1.413,0,0,0-1.349.943,2.867,2.867,0,0,1-3.179,1.778c-1.2-.295-1.839-1.281-1.84-2.873q0-9.2,0-18.4c0-.879.069-1.686,1.109-1.946a1.912,1.912,0,0,1,2.331,1.3c.338.911.774,1.256,1.77.957a2.015,2.015,0,0,1,2.614,2.364,2.414,2.414,0,0,1-2.388,2.141,2.217,2.217,0,0,1-2.377-1.935c-.124-.614-.191-1.308-1.034-1.153s-.855.918-.685,1.534a5.612,5.612,0,0,0,.891,1.907c1.01,1.31.916,2.288-.453,3.264-.211.151-.541.3-.581.491-.066.329-.068.844.131,1.011a1.286,1.286,0,0,0,1.1.184,4,4,0,0,0,2.29-2.892c.05-.175.087-.354.145-.589" transform="translate(-100.405 -24.403)"/><path class="a" d="M15.52,120.8a3.254,3.254,0,0,1-.795.711c-1.541.682-3.093,1.348-4.678,1.913-.315.113-.8-.239-1.2-.376.158-.406.2-1.044.491-1.18,1.587-.757,3.221-1.421,4.862-2.056.7-.272,1.148.083,1.321.989" transform="translate(-6.847 -92.67)"/><path class="a" d="M212.282,122.971c-.194.871-.529,1.314-1.3,1.006-1.6-.641-3.208-1.269-4.759-2.014-.324-.156-.418-.793-.617-1.209.445-.137.969-.5,1.322-.373,1.552.547,3.064,1.213,4.568,1.886a3.25,3.25,0,0,1,.784.7" transform="translate(-159.145 -93.157)"/><path class="a" d="M206.407,42.21c-.276-.256-.691-.461-.736-.729-.054-.323.11-.908.346-1.018q2.543-1.183,5.172-2.175c.237-.089.786.233.952.509a1,1,0,0,1-.2.96c-1.789.847-3.615,1.615-5.539,2.453" transform="translate(-159.185 -29.624)"/><path class="a" d="M3.556,84.08a20.006,20.006,0,0,1,2.471.033c.333.042.619.452.927.694-.253.316-.494.9-.76.907-1.834.078-3.674.072-5.508,0A1.075,1.075,0,0,1,0,84.9a1.088,1.088,0,0,1,.747-.759,26.67,26.67,0,0,1,2.808-.036Z" transform="translate(0 -65.062)"/><path class="a" d="M216.224,84.118a15.539,15.539,0,0,1,2.464.04c.354.057.637.555.952.852-.3.261-.6.733-.911.747-1.719.075-3.444.084-5.162,0-.327-.016-.629-.546-.943-.838.3-.266.581-.723.91-.763a22.7,22.7,0,0,1,2.69-.038" transform="translate(-164.575 -65.086)"/><path class="a" d="M39.9,152.108a7.442,7.442,0,0,1-.61.831c-1.1,1.125-2.226,2.232-3.336,3.351-.43.434-.906.788-1.442.241s-.187-1,.258-1.439c1.153-1.129,2.265-2.3,3.445-3.4a1.578,1.578,0,0,1,1.091-.3c.193.014.358.412.595.711" transform="translate(-26.504 -117.181)"/><path class="a" d="M190.491,155.874a.8.8,0,0,1-1.319.675c-1.371-1.277-2.686-2.618-3.968-3.985a.987.987,0,0,1-.008-.971c.245-.212.89-.355,1.058-.2,1.4,1.3,2.73,2.677,4.068,4.043a1.072,1.072,0,0,1,.168.438" transform="translate(-143.25 -117.13)"/><path class="a" d="M35.462,0a8.161,8.161,0,0,1,.778.576c1.136,1.089,2.3,2.156,3.364,3.312a1.432,1.432,0,0,1,.268,1.3c-.367.566-.975.405-1.439-.056-1.169-1.162-2.352-2.313-3.48-3.514a1.244,1.244,0,0,1-.241-.994c.058-.24.458-.4.75-.626" transform="translate(-26.85)"/><path class="a" d="M9.635,37.088c.382.15.766.295,1.144.452,1.316.544,2.654,1.045,3.928,1.675.312.154.413.735.612,1.119-.415.135-.908.486-1.232.369-1.655-.6-3.278-1.292-4.881-2.02a1.111,1.111,0,0,1-.467-.875,3.745,3.745,0,0,1,.408-1.143l.488.422" transform="translate(-6.764 -28.38)"/><path class="a" d="M185.68,5.883c-.205-.172-.543-.319-.615-.549a1.075,1.075,0,0,1,.131-.9c1.267-1.326,2.564-2.625,3.9-3.878a1.007,1.007,0,0,1,.965-.064c.212.265.373.909.215,1.079-1.323,1.425-2.721,2.781-4.107,4.147-.094.093-.274.1-.492.168" transform="translate(-143.211 -0.304)"/></g></g></g></svg>