<svg xmlns="http://www.w3.org/2000/svg" xmlns:xlink="http://www.w3.org/1999/xlink" width="114" height="114" viewBox="0 0 114 114"><defs><style>.a{fill:#fff;}.b{fill:url(#a);}.c{clip-path:url(#b);}</style><linearGradient id="a" x1="0.196" y1="0.05" x2="0.802" y2="1" gradientUnits="objectBoundingBox"><stop offset="0" stop-color="#ffbd7d"/><stop offset="1" stop-color="#fb912a"/></linearGradient><clipPath id="b"><rect class="a" width="60.857" height="35.569"/></clipPath></defs><g transform="translate(-601 -3649)"><circle class="b" cx="57" cy="57" r="57" transform="translate(601 3649)"/><g transform="translate(627 3688)"><g class="c"><path class="a" d="M30.4,20.068a33.3,33.3,0,0,1-3.332-.741Q14.474,15.186,1.9,10.97a5.8,5.8,0,0,1-1.375-.643c-.706-.47-.7-1.086.009-1.564A4.721,4.721,0,0,1,1.8,8.168Q14.7,4.281,27.61.419a9.745,9.745,0,0,1,5.722.02Q46,4.243,58.677,8.045a7.33,7.33,0,0,1,1.416.558c1.01.554,1.015,1.3.031,1.877a5.288,5.288,0,0,1-1,.444Q46.4,15.164,33.66,19.377a29.956,29.956,0,0,1-3.258.692" transform="translate(0 0)"/><path class="a" d="M78.129,110.342c1.9.629,3.689,1.222,5.482,1.818,3.189,1.06,6.384,2.1,9.564,3.189a10.525,10.525,0,0,0,7.007-.024c4.782-1.625,9.583-3.2,14.376-4.79.17-.057.346-.1.594-.165v.7c0,3.547-.025,7.095.017,10.641a2.586,2.586,0,0,1-.986,2.255,22.364,22.364,0,0,1-3.366,2.186,29.993,29.993,0,0,1-10.584,2.773A34.55,34.55,0,0,1,83.5,126.639a24.6,24.6,0,0,1-3.964-2.26A3.2,3.2,0,0,1,78.1,121.4c.077-3.4.026-6.808.026-10.213Z" transform="translate(-66.208 -93.538)"/><path class="a" d="M352.529,91.977v1.772c0,2.161-.009,4.321.01,6.482a2.594,2.594,0,0,0,.228.924c.447,1.091.967,2.154,1.371,3.26a3.719,3.719,0,0,1-1.114,4.329c-1.87,1.657-1.6,1.641-3.435.026a3.732,3.732,0,0,1-1.136-4.376c.409-1.1.929-2.167,1.377-3.258a2.581,2.581,0,0,0,.226-.926q.028-3.455,0-6.91a.588.588,0,0,1,.495-.689c.642-.176,1.27-.405,1.977-.636" transform="translate(-295.147 -77.97)"/></g></g></g></svg>