<svg xmlns="http://www.w3.org/2000/svg" xmlns:xlink="http://www.w3.org/1999/xlink" width="114" height="114" viewBox="0 0 114 114"><defs><style>.a{fill:#fff;}.b{fill:url(#a);}.c{clip-path:url(#b);}</style><linearGradient id="a" x1="0.196" y1="0.05" x2="0.802" y2="1" gradientUnits="objectBoundingBox"><stop offset="0" stop-color="#ffbd7d"/><stop offset="1" stop-color="#fb912a"/></linearGradient><clipPath id="b"><rect class="a" width="59.038" height="39.112"/></clipPath></defs><g transform="translate(-1206 -3649)"><circle class="b" cx="57" cy="57" r="57" transform="translate(1206 3649)"/><g transform="translate(1233 3686)"><g class="c"><path class="a" d="M59.038,26.881c-.289,2.377-.451,4.778-.895,7.125-.955,5.049-5,6.626-8.963,3.381a69.554,69.554,0,0,1-6.916-6.764,5.673,5.673,0,0,0-4.6-2.063c-5.585.086-11.172.063-16.758.013a5.208,5.208,0,0,0-4.092,1.851,79.175,79.175,0,0,1-7.363,7.138C5.776,40.548,1.8,39.071.868,34.406-1.19,24.133.349,14.431,6.176,5.609,9.6.42,15.184-1.225,20.992,1.025a16.551,16.551,0,0,1,2.891,1.427c3.726,2.37,7.339,2.3,11.128,0,4.129-2.514,8.532-3.453,13.11-1.072A14.278,14.278,0,0,1,53.609,6.96c3.713,6.118,5.225,12.811,5.429,19.921M18.253,17.245c1.139,0,2.112-.057,3.076.013,1.49.109,1.546-.965,1.566-1.924.021-.992-.128-2.01-1.552-1.961-.916.031-1.834.006-2.888.006,0-1.181.058-2.2-.014-3.211-.106-1.506-1.348-1.126-2.231-1.173-.811-.043-1.752-.071-1.714,1.215.03,1.013.006,2.027.006,3.167-1.125,0-2.1.043-3.06-.01-1.45-.08-1.38.972-1.4,1.876-.021.974-.082,2.065,1.427,2.023.958-.026,1.918,0,2.952,0,0,1.16.031,2.088-.007,3.013-.061,1.509,1.064,1.464,2.006,1.459.9-.005,1.932-.051,1.843-1.461-.058-.924-.011-1.855-.011-3.026M51.828,14.5a3.242,3.242,0,0,0-3.119-3.08,3.12,3.12,0,1,0,3.119,3.08M40.771,21.659A3.071,3.071,0,0,0,43.9,18.642,3.109,3.109,0,0,0,40.881,15.5a3.169,3.169,0,0,0-3.148,3.031,3.131,3.131,0,0,0,3.038,3.132m.079-8.728a3.148,3.148,0,0,0,3.058-3.113,3.088,3.088,0,0,0-6.176.043,3.175,3.175,0,0,0,3.119,3.07" transform="translate(0 0)"/></g></g></g></svg>