<svg xmlns="http://www.w3.org/2000/svg" width="86.736" height="91.648" viewBox="0 0 86.736 91.648"><defs><style>.a{fill:#017efa;}.b{fill:#fb8f27;}.c{fill:none;stroke:#181c39;stroke-linecap:round;stroke-width:2.5px;}</style></defs><g transform="translate(-698.873 -2588)"><path class="a" d="M201.66,145.158q0-9.373,0-18.746c0-2.389.4-2.849,2.417-2.854q7.6-.018,15.191,0c1.918,0,2.367.489,2.369,2.726q.024,19.04.016,38.079c0,1.793-.644,2.592-2.195,2.578-5.174-.046-10.348-.006-15.521-.022-1.87-.006-2.274-.51-2.278-2.82q-.017-9.471,0-18.942" transform="translate(557.106 2512.707)"/><path class="b" d="M194.142,30.246a66.864,66.864,0,0,1,1.19-6.6,4.185,4.185,0,0,0-1.649-4.859,40.964,40.964,0,0,1-4.353-4.179,3.052,3.052,0,0,1-.882-2.315c.178-.607,1.259-1.189,2.029-1.338,2.546-.5,5.145-.719,7.692-1.209a3.042,3.042,0,0,0,1.873-1.309c1.23-2.208,2.2-4.562,3.433-6.766.418-.745,1.352-1.682,2.03-1.667s1.572.978,1.99,1.735c1.19,2.156,2.106,4.464,3.309,6.611a3.293,3.293,0,0,0,2.009,1.4c2.542.512,5.141.741,7.687,1.237a2.723,2.723,0,0,1,1.882,1.294,2.721,2.721,0,0,1-.735,2.182c-1.782,1.887-3.773,3.578-5.543,5.475a3.256,3.256,0,0,0-.736,2.318c.305,2.641.883,5.249,1.219,7.888A2.48,2.48,0,0,1,216,32.181a2.861,2.861,0,0,1-2.314.009,63.293,63.293,0,0,1-6.56-3.41,3.069,3.069,0,0,0-3.567.067c-2.129,1.239-4.333,2.356-6.553,3.428-1.775.857-2.989-.005-2.865-2.028" transform="translate(563.179 2588)"/><path class="b" d="M113.513,174.932c0-3.9-.011-7.8,0-11.7.008-2.164.457-2.679,2.393-2.687,5.065-.019,10.13.027,15.194-.025,1.667-.017,2.406.742,2.4,2.545q-.025,12,0,23.993c0,1.6-.649,2.408-2.155,2.4q-7.865-.023-15.731,0c-1.532.005-2.12-.845-2.112-2.432.021-4.031.007-8.063.007-12.094" transform="translate(617.827 2490.179)"/><path class="a" d="M35.535,179.049c2.6,0,5.192.034,7.787-.013,1.48-.027,2.081.74,2.069,2.473q-.057,8.388,0,16.778c.014,1.768-.64,2.466-2.086,2.46q-7.87-.036-15.74,0c-1.529.009-2.191-.732-2.174-2.579q.075-8.29,0-16.582c-.015-1.842.645-2.588,2.186-2.555,2.65.057,5.3.016,7.952.016" transform="translate(678.524 2478.894)"/><g transform="translate(9 -1)"><path class="c" d="M56.057,2612.076v-14.928" transform="matrix(0.438, 0.899, -0.899, 0.438, 3020.854, 1426.978)"/><path class="c" d="M56.057,2637.648v-40.5" transform="matrix(0.438, 0.899, -0.899, 0.438, 3037.673, 1428.788)"/><path class="c" d="M56.057,2618.539v-21.391" transform="matrix(0.438, 0.899, -0.899, 0.438, 3028.744, 1443.156)"/><path class="c" d="M95.322,2654.935l5.117-5.117,5.117,5.117" transform="matrix(0.438, 0.899, -0.899, 0.438, 3067.81, 1364.633)"/></g></g></svg>