<svg xmlns="http://www.w3.org/2000/svg" xmlns:xlink="http://www.w3.org/1999/xlink" width="1185" height="48" viewBox="0 0 1185 48"><defs><style>.a{fill:#fff;}.b{fill:#198afb;}.c{fill:#fc9634;}.d{fill:#3a3d56;}.e{filter:url(#q);}.f{filter:url(#o);}.g{filter:url(#m);}.h{filter:url(#k);}.i{filter:url(#i);}.j{filter:url(#g);}.k{filter:url(#e);}.l{filter:url(#c);}.m{filter:url(#a);}</style><filter id="a" x="15" y="11" width="294.849" height="26" filterUnits="userSpaceOnUse"><feOffset input="SourceAlpha"/><feGaussianBlur stdDeviation="3" result="b"/><feFlood flood-color="#3e5470" flood-opacity="0.102"/><feComposite operator="in" in2="b"/><feComposite in="SourceGraphic"/></filter><filter id="c" x="299" y="11" width="312" height="26" filterUnits="userSpaceOnUse"><feOffset input="SourceAlpha"/><feGaussianBlur stdDeviation="3" result="d"/><feFlood flood-color="#3e5470" flood-opacity="0.102"/><feComposite operator="in" in2="d"/><feComposite in="SourceGraphic"/></filter><filter id="e" x="584" y="11" width="301.5" height="26" filterUnits="userSpaceOnUse"><feOffset input="SourceAlpha"/><feGaussianBlur stdDeviation="3" result="f"/><feFlood flood-color="#3e5470" flood-opacity="0.102"/><feComposite operator="in" in2="f"/><feComposite in="SourceGraphic"/></filter><filter id="g" x="869.995" y="11" width="300.005" height="26" filterUnits="userSpaceOnUse"><feOffset input="SourceAlpha"/><feGaussianBlur stdDeviation="3" result="h"/><feFlood flood-color="#3e5470" flood-opacity="0.102"/><feComposite operator="in" in2="h"/><feComposite in="SourceGraphic"/></filter><filter id="i" x="0" y="0" width="48" height="48" filterUnits="userSpaceOnUse"><feOffset input="SourceAlpha"/><feGaussianBlur stdDeviation="3" result="j"/><feFlood flood-color="#3e5470" flood-opacity="0.102"/><feComposite operator="in" in2="j"/><feComposite in="SourceGraphic"/></filter><filter id="k" x="1137" y="0" width="48" height="48" filterUnits="userSpaceOnUse"><feOffset input="SourceAlpha"/><feGaussianBlur stdDeviation="3" result="l"/><feFlood flood-color="#3e5470" flood-opacity="0.102"/><feComposite operator="in" in2="l"/><feComposite in="SourceGraphic"/></filter><filter id="m" x="284" y="0" width="48" height="48" filterUnits="userSpaceOnUse"><feOffset input="SourceAlpha"/><feGaussianBlur stdDeviation="3" result="n"/><feFlood flood-color="#3e5470" flood-opacity="0.102"/><feComposite operator="in" in2="n"/><feComposite in="SourceGraphic"/></filter><filter id="o" x="853" y="0" width="48" height="48" filterUnits="userSpaceOnUse"><feOffset input="SourceAlpha"/><feGaussianBlur stdDeviation="3" result="p"/><feFlood flood-color="#3e5470" flood-opacity="0.102"/><feComposite operator="in" in2="p"/><feComposite in="SourceGraphic"/></filter><filter id="q" x="569" y="0" width="48" height="48" filterUnits="userSpaceOnUse"><feOffset input="SourceAlpha"/><feGaussianBlur stdDeviation="3" result="r"/><feFlood flood-color="#3e5470" flood-opacity="0.102"/><feComposite operator="in" in2="r"/><feComposite in="SourceGraphic"/></filter></defs><g transform="translate(-368 -4090)"><g class="m" transform="matrix(1, 0, 0, 1, 368, 4090)"><path class="a" d="M4.451,0H272.4a4.244,4.244,0,0,1,4.451,4A4.244,4.244,0,0,1,272.4,8H4.451A4.244,4.244,0,0,1,0,4,4.244,4.244,0,0,1,4.451,0Z" transform="translate(24 20)"/></g><g class="l" transform="matrix(1, 0, 0, 1, 368, 4090)"><path class="a" d="M4.727,0H289.273C291.884,0,294,1.791,294,4s-2.116,4-4.727,4H4.727C2.116,8,0,6.209,0,4S2.116,0,4.727,0Z" transform="translate(308 20)"/></g><g class="k" transform="matrix(1, 0, 0, 1, 368, 4090)"><path class="a" d="M4.558,0H278.942A4.306,4.306,0,0,1,283.5,4a4.306,4.306,0,0,1-4.558,4H4.558A4.306,4.306,0,0,1,0,4,4.306,4.306,0,0,1,4.558,0Z" transform="translate(593 20)"/></g><g class="j" transform="matrix(1, 0, 0, 1, 368, 4090)"><path class="a" d="M4.534,0H277.471A4.292,4.292,0,0,1,282,4a4.292,4.292,0,0,1-4.534,4H4.534A4.292,4.292,0,0,1,0,4,4.292,4.292,0,0,1,4.534,0Z" transform="translate(879 20)"/></g><g transform="translate(40)"><g class="i" transform="matrix(1, 0, 0, 1, 328, 4090)"><circle class="a" cx="15" cy="15" r="15" transform="translate(9 9)"/></g><circle class="b" cx="5" cy="5" r="5" transform="translate(347 4109)"/></g><g transform="translate(-36)"><g class="h" transform="matrix(1, 0, 0, 1, 404, 4090)"><circle class="a" cx="15" cy="15" r="15" transform="translate(1146 9)"/></g><circle class="b" cx="5" cy="5" r="5" transform="translate(1560 4109)"/></g><g transform="translate(18)"><g class="g" transform="matrix(1, 0, 0, 1, 350, 4090)"><circle class="a" cx="15" cy="15" r="15" transform="translate(293 9)"/></g><circle class="c" cx="5" cy="5" r="5" transform="translate(653 4109)"/></g><g transform="translate(-18)"><g class="f" transform="matrix(1, 0, 0, 1, 386, 4090)"><circle class="a" cx="15" cy="15" r="15" transform="translate(862 9)"/></g><circle class="c" cx="5" cy="5" r="5" transform="translate(1258 4109)"/></g><g class="e" transform="matrix(1, 0, 0, 1, 368, 4090)"><circle class="a" cx="15" cy="15" r="15" transform="translate(578 9)"/></g><circle class="d" cx="5" cy="5" r="5" transform="translate(956 4109)"/></g></svg>