<svg xmlns="http://www.w3.org/2000/svg" xmlns:xlink="http://www.w3.org/1999/xlink" width="271.661" height="261.896" viewBox="0 0 271.661 261.896"><defs><style>.a{fill:#fff;}.b{fill:#f9f9f9;}.c{fill:#d7d8dc;}.d{fill:#181c39;}.e{opacity:0.2;}.f{fill:#f6f7f9;}.g{fill:#dce0ed;}.h{fill:url(#c);}.i{fill:#505368;}.j{fill:#fb8f27;}.k{fill:#e6e6e6;}.l{fill:#f8f8f8;}.m{filter:url(#d);}.n{filter:url(#a);}</style><filter id="a" x="0" y="58.278" width="157.64" height="203.617" filterUnits="userSpaceOnUse"><feOffset input="SourceAlpha"/><feGaussianBlur stdDeviation="3" result="b"/><feFlood flood-opacity="0.251"/><feComposite operator="in" in2="b"/><feComposite in="SourceGraphic"/></filter><linearGradient id="c" x1="0.5" x2="0.5" y2="1" gradientUnits="objectBoundingBox"><stop offset="0" stop-color="#ff7d00"/><stop offset="1" stop-color="#fff"/></linearGradient><filter id="d" x="86.963" y="72.05" width="184.697" height="92.68" filterUnits="userSpaceOnUse"><feOffset input="SourceAlpha"/><feGaussianBlur stdDeviation="3" result="e"/><feFlood flood-opacity="0.251"/><feComposite operator="in" in2="e"/><feComposite in="SourceGraphic"/></filter></defs><g transform="translate(-100.789 -167.224)"><g transform="translate(109.789 234.502)"><g class="n" transform="matrix(1, 0, 0, 1, -9, -67.28)"><rect class="a" width="139.64" height="185.617" rx="7" transform="translate(9 67.28)"/></g><rect class="b" width="125.45" height="150.502" transform="translate(7.095 17.557)"/><circle class="c" cx="1.704" cy="1.704" r="1.704" transform="translate(67.549 6.809)"/><circle class="d" cx="5.11" cy="5.11" r="5.11" transform="translate(64.143 171.425)"/><g class="e" transform="translate(7.095 17.557)"><rect class="d" width="125.45" height="7.501" transform="translate(0 0)"/></g><circle class="f" cx="1.6" cy="1.6" r="1.6" transform="translate(9.418 19.708)"/><circle class="f" cx="1.6" cy="1.6" r="1.6" transform="translate(13.495 19.708)"/><circle class="f" cx="1.6" cy="1.6" r="1.6" transform="translate(17.569 19.708)"/><rect class="g" width="116.82" height="0.39" transform="translate(10.841 61.799)"/><rect class="g" width="116.82" height="0.39" transform="translate(10.841 70.86)"/><rect class="g" width="116.82" height="0.39" transform="translate(10.841 79.925)"/><rect class="g" width="116.82" height="0.39" transform="translate(10.841 88.987)"/><rect class="g" width="116.82" height="0.39" transform="translate(10.841 98.049)"/><g class="e" transform="translate(10.698 67.328)"><path class="h" d="M352.873,334.291H235.91V316.47l10.727,5.287,11.1,1.506,9.741-2.937,11.752-9.114,5.911-3.413,4.321-.833,4.134.221,6.8,3.359,9.244,5.888,7.254.931,5.75-1.983,12.192-9.983,6.223-2.219,6.512,1.007,5.3,3.062Z" transform="translate(-235.91 -303.18)"/></g><path class="i" d="M315.81,354.72c-10.534,0-20.267-6.442-20.39-6.525l.291-.432c.151.1,15.132,10.011,27.862,5.047,4.642-1.821,7.946-4.626,11.143-7.35,3.338-2.844,6.489-5.529,10.787-6.694A16.135,16.135,0,0,1,359.909,342c3.5,2.875,10.467,7.49,17.827,6.111,3.752-.705,6.913-3.445,10.261-6.346,6.418-5.563,13.058-11.315,24.542-3.062l-.3.422c-11.151-8.013-17.629-2.4-23.9,3.034-3.4,2.948-6.616,5.724-10.506,6.463-7.571,1.421-14.684-3.289-18.254-6.221a15.628,15.628,0,0,0-13.94-3.135c-4.184,1.134-7.285,3.783-10.586,6.588-3.229,2.753-6.567,5.6-11.289,7.438A21.784,21.784,0,0,1,315.81,354.72Z" transform="translate(-284.724 -267.314)"/><circle class="j" cx="2.896" cy="2.896" r="2.896" transform="translate(64.158 68.191)"/><g class="e" transform="translate(67.705 32.769)"><path class="d" d="M551.661,202H515.133a.593.593,0,0,0-.593.593v24.7a.593.593,0,0,0,1.025.406l6.33-6.751a.59.59,0,0,1,.432-.187h29.334a.593.593,0,0,0,.593-.593V202.588A.593.593,0,0,0,551.661,202Z" transform="translate(-514.54 -202)"/></g><rect class="f" width="20.801" height="2.602" transform="translate(76.16 37.342)"/><rect class="f" width="5.711" height="2.602" transform="translate(76.16 43.108)"/><g class="e" transform="translate(20.707 117.057)"><rect class="d" width="5.711" height="2.602" transform="translate(0 0)"/></g><g class="e" transform="translate(20.707 122.086)"><rect class="d" width="5.711" height="2.602" transform="translate(0 0)"/></g><g class="e" transform="translate(20.707 127.115)"><rect class="d" width="5.711" height="2.602" transform="translate(0 0)"/></g><g class="e" transform="translate(20.707 132.147)"><rect class="d" width="5.711" height="2.602" transform="translate(0 0)"/></g><g class="e" transform="translate(20.707 137.176)"><rect class="d" width="5.711" height="2.602" transform="translate(0 0)"/></g><g class="e" transform="translate(20.707 142.205)"><rect class="d" width="5.711" height="2.602"/></g><g class="e" transform="translate(20.707 147.237)"><rect class="d" width="5.711" height="2.602" transform="translate(0 0)"/></g><g class="e" transform="translate(20.707 152.266)"><rect class="d" width="5.711" height="2.602" transform="translate(0 0)"/></g><g class="e" transform="translate(31.46 154.868)"><rect class="d" width="5.711" height="2.602" transform="translate(0 0)"/></g><g class="e" transform="translate(41.521 154.868)"><rect class="d" width="5.711" height="2.602" transform="translate(0 0)"/></g><g class="e" transform="translate(51.582 154.868)"><rect class="d" width="5.711" height="2.602" transform="translate(0 0)"/></g><g class="e" transform="translate(61.64 154.868)"><rect class="d" width="5.711" height="2.602" transform="translate(0 0)"/></g><g class="e" transform="translate(71.701 154.868)"><rect class="d" width="5.711" height="2.602" transform="translate(0 0)"/></g><g class="e" transform="translate(81.762 154.868)"><rect class="d" width="5.711" height="2.602" transform="translate(0 0)"/></g><g class="e" transform="translate(91.82 154.868)"><rect class="d" width="5.711" height="2.602" transform="translate(0 0)"/></g><g class="e" transform="translate(101.881 154.868)"><rect class="d" width="5.711" height="2.602" transform="translate(0 0)"/></g><g class="e" transform="translate(111.942 154.868)"><rect class="d" width="5.711" height="2.602" transform="translate(0 0)"/></g><rect class="f" width="8.672" height="2.602" transform="translate(88.289 43.108)"/><rect class="j" width="5.711" height="16.305" transform="translate(31.46 135.961)"/><rect class="j" width="5.711" height="23.85" transform="translate(41.521 128.416)"/><rect class="j" width="5.711" height="30.18" transform="translate(51.582 122.086)"/><rect class="j" width="5.711" height="26.897" transform="translate(61.64 125.367)"/><rect class="j" width="5.711" height="32.607" transform="translate(71.701 119.658)"/><g class="e" transform="translate(81.762 132.147)"><rect class="d" width="5.711" height="20.119" transform="translate(0 0)"/></g><g class="e" transform="translate(91.82 132.147)"><rect class="d" width="5.711" height="20.119" transform="translate(0 0)"/></g><g class="e" transform="translate(101.881 132.147)"><rect class="d" width="5.711" height="20.119" transform="translate(0 0)"/></g><g class="e" transform="translate(111.942 132.147)"><rect class="d" width="5.711" height="20.119" transform="translate(0 0)"/></g></g><g transform="translate(196.086 167.224)"><g class="m" transform="matrix(1, 0, 0, 1, -95.3, 0)"><rect class="a" width="166.697" height="74.68" rx="1" transform="translate(95.96 81.05)"/></g><g transform="translate(0 0)"><path class="k" d="M685.558,493.788H523.306a2.559,2.559,0,0,1-2.557-2.556V420.672a2.559,2.559,0,0,1,2.557-2.556H685.558a2.559,2.559,0,0,1,2.556,2.556v70.559A2.559,2.559,0,0,1,685.558,493.788ZM523.306,419.139a1.536,1.536,0,0,0-1.534,1.534v70.559a1.536,1.536,0,0,0,1.534,1.534H685.558a1.536,1.536,0,0,0,1.534-1.534V420.672a1.536,1.536,0,0,0-1.534-1.534Z" transform="translate(-520.75 -337.082)"/><path class="k" d="M544.784,443.616a1.534,1.534,0,0,0,0,3.068h21.474a1.534,1.534,0,1,0,0-3.068Z" transform="translate(-535.581 -353.89)"/><path class="l" d="M699.019,473.727v28.445H554.21V487.2c1-.644,2.011-1.285,3.029-1.9,4.347-2.66,9-5.148,14.072-6.071a21.243,21.243,0,0,1,7.265-.091,41.465,41.465,0,0,1,7.392,2.177,50.486,50.486,0,0,0,7.25,2.273,21.226,21.226,0,0,0,7.353.145c4.656-.7,9.031-2.57,13.387-4.263,4.384-1.7,8.9-3.31,13.645-3.522a40.732,40.732,0,0,1,13.754,2.267c9.061,2.8,18.313,6.944,27.908,4.1,9.743-2.884,18.7-11.21,29.5-8.74A.406.406,0,0,1,699.019,473.727Z" transform="translate(-542.805 -373.334)"/><path class="d" d="M698.818,474.223a.437.437,0,0,1-.5.218,16.146,16.146,0,0,0-3.924-.405c-10.62.187-18.786,8.737-29.17,10.016-9.363,1.152-18.175-3.4-26.979-5.78a31.95,31.95,0,0,0-14-1.052c-4.671.831-9.055,2.742-13.456,4.438-4.238,1.633-8.643,3.15-13.232,3.226-5.046.085-9.589-2-14.269-3.58a25.411,25.411,0,0,0-7.51-1.542,22.715,22.715,0,0,0-7.4,1.146c-4.973,1.581-9.453,4.4-13.816,7.2a.387.387,0,0,1-.257.07.468.468,0,0,1-.2-.853l.2-.127c1-.644,2.007-1.285,3.023-1.9,4.338-2.66,8.982-5.148,14.042-6.07a21.155,21.155,0,0,1,7.25-.091A41.311,41.311,0,0,1,586,481.306a50.306,50.306,0,0,0,7.235,2.273,21.138,21.138,0,0,0,7.337.145c4.647-.7,9.012-2.57,13.359-4.263,4.375-1.7,8.882-3.31,13.616-3.522a40.573,40.573,0,0,1,13.725,2.267c9.042,2.8,18.275,6.944,27.849,4.1,9.722-2.884,18.665-11.21,29.44-8.74a.406.406,0,0,1,.254.16A.466.466,0,0,1,698.818,474.223Z" transform="translate(-542.603 -373.334)"/><circle class="j" cx="2.116" cy="2.116" r="2.116" transform="translate(29.242 104.049)"/><circle class="j" cx="2.116" cy="2.116" r="2.116" transform="translate(82.752 101.328)"/><circle class="j" cx="2.116" cy="2.116" r="2.116" transform="translate(148.052 98.607)"/><path class="d" d="M606.284,593.616a1.534,1.534,0,1,0,0,3.068h21.474a1.534,1.534,0,1,0,0-3.068Z" transform="translate(-576.117 -452.76)"/><circle class="j" cx="5.795" cy="5.795" r="5.795" transform="translate(10.567 136.425)"/><path class="d" d="M758.284,593.616a1.534,1.534,0,0,0,0,3.068h21.474a1.534,1.534,0,0,0,0-3.068Z" transform="translate(-676.306 -452.76)"/><circle class="j" cx="5.795" cy="5.795" r="5.795" transform="translate(62.378 136.425)"/><path class="d" d="M910.284,593.616a1.534,1.534,0,0,0,0,3.068h21.474a1.534,1.534,0,0,0,0-3.068Z" transform="translate(-776.495 -452.76)"/><circle class="j" cx="5.795" cy="5.795" r="5.795" transform="translate(114.189 136.425)"/><path class="k" d="M811.412,320.8H731.365c-1.56,0-2.825-.9-2.827-2.011V301.4c0-1.11,1.266-2.011,2.827-2.011h80.048c1.56,0,2.825.9,2.827,2.011v17.4C814.238,319.9,812.973,320.8,811.412,320.8Zm-80.048-20.617c-.936,0-1.7.541-1.7,1.207v17.4c0,.666.76,1.206,1.7,1.207h80.048c.936,0,1.7-.541,1.7-1.207V301.4c0-.666-.76-1.206-1.7-1.207Z" transform="translate(-657.711 -258.821)"/><path class="j" d="M786.633,328.391a1.706,1.706,0,0,0-1.7,1.7v11.93a1.706,1.706,0,0,0,1.7,1.7h61.014a1.706,1.706,0,0,0,1.7-1.7V330.1a1.707,1.707,0,0,0-1.7-1.7Z" transform="translate(-694.88 -277.941)"/><circle class="a" cx="3.75" cy="3.75" r="3.75" transform="translate(96.526 54.541)"/><path class="a" d="M862.095,346.616a1.534,1.534,0,0,0,0,3.068h21.474a1.534,1.534,0,0,0,0-3.068Z" transform="translate(-744.732 -289.953)"/><path class="k" d="M635.413,201.8H555.365c-1.56,0-2.825-.9-2.827-2.011V182.4c0-1.11,1.266-2.011,2.827-2.011h80.048c1.56,0,2.825.9,2.827,2.011v17.4C638.238,200.9,636.973,201.8,635.413,201.8Zm-80.048-20.617c-.936,0-1.7.541-1.7,1.207v17.4c0,.666.76,1.206,1.7,1.207h80.048c.936,0,1.7-.541,1.7-1.207V182.4c0-.666-.76-1.206-1.7-1.207Z" transform="translate(-541.703 -180.384)"/><path class="j" d="M610.633,209.391a1.706,1.706,0,0,0-1.7,1.7v11.93a1.706,1.706,0,0,0,1.7,1.7h61.015a1.706,1.706,0,0,0,1.7-1.7V211.1a1.706,1.706,0,0,0-1.7-1.7Z" transform="translate(-578.872 -199.504)"/><circle class="a" cx="3.75" cy="3.75" r="3.75" transform="translate(36.533 13.978)"/><path class="a" d="M686.095,227.616a1.534,1.534,0,1,0,0,3.068h21.474a1.534,1.534,0,1,0,0-3.068Z" transform="translate(-628.724 -211.516)"/></g></g></g></svg>