<svg xmlns="http://www.w3.org/2000/svg" width="331" height="230.747" viewBox="0 0 331 230.747"><defs><style>.a{fill:#f2f2f2;}.b,.e{fill:#181c39;}.b{opacity:0.06;}.c{fill:#3f3d56;}.d{fill:#fb8f27;}.f{fill:#2f2e41;}.g{fill:#ffb9b9;}.h{opacity:0.1;}</style></defs><g transform="translate(0)"><circle class="a" cx="6.584" cy="6.584" r="6.584" transform="translate(76.779 110.887)"/><circle class="a" cx="4.08" cy="4.08" r="4.08" transform="translate(56.751 189.212)"/><rect class="a" width="50.07" height="0.715" transform="translate(135.904 7.689)"/><rect class="a" width="0.715" height="6.616" transform="translate(149.495 1.252)"/><rect class="a" width="0.715" height="6.616" transform="translate(171.311 1.252)"/><rect class="a" width="50.07" height="0.715" transform="translate(216.732 180.79)"/><rect class="a" width="0.715" height="6.616" transform="translate(230.323 174.352)"/><rect class="a" width="0.715" height="6.616" transform="translate(252.139 174.352)"/><rect class="a" width="50.07" height="0.715" transform="translate(219.236 71.708)"/><rect class="a" width="0.715" height="6.616" transform="translate(232.826 65.27)"/><rect class="a" width="0.715" height="6.616" transform="translate(254.643 65.27)"/><rect class="a" width="50.07" height="0.715" transform="translate(219.236 45.957)"/><rect class="a" width="0.715" height="6.616" transform="translate(232.826 39.52)"/><rect class="a" width="0.715" height="6.616" transform="translate(254.643 39.52)"/><rect class="a" width="50.07" height="0.715" transform="translate(109.438 49.534)"/><rect class="a" width="0.715" height="6.616" transform="translate(123.029 43.096)"/><rect class="a" width="0.715" height="6.616" transform="translate(144.845 43.096)"/><rect class="a" width="50.07" height="0.715" transform="translate(72.959 32.725)"/><rect class="a" width="0.715" height="6.616" transform="translate(86.549 26.287)"/><rect class="a" width="0.715" height="6.616" transform="translate(108.366 26.287)"/><rect class="a" width="50.07" height="0.715" transform="translate(50.427 98.889)"/><rect class="a" width="0.715" height="6.616" transform="translate(64.017 92.451)"/><rect class="a" width="0.715" height="6.616" transform="translate(85.834 92.451)"/><rect class="a" width="50.07" height="0.715" transform="translate(25.392 171.849)"/><rect class="a" width="0.715" height="6.616" transform="translate(38.982 165.411)"/><rect class="a" width="0.715" height="6.616" transform="translate(60.799 165.411)"/><rect class="a" width="50.07" height="0.715" transform="translate(262.153 141.807)"/><rect class="a" width="0.715" height="6.616" transform="translate(275.744 135.369)"/><rect class="a" width="0.715" height="6.616" transform="translate(297.56 135.369)"/><rect class="a" width="50.07" height="0.715" transform="translate(247.49 96.028)"/><rect class="a" width="0.715" height="6.616" transform="translate(283.254 96.564)"/><rect class="a" width="0.715" height="6.616" transform="translate(261.438 96.564)"/><rect class="a" width="50.07" height="0.715" transform="translate(5.006 42.381)"/><rect class="a" width="0.715" height="6.616" transform="translate(40.77 42.917)"/><rect class="a" width="0.715" height="6.616" transform="translate(18.954 42.917)"/><rect class="a" width="50.07" height="0.715" transform="translate(8.225 136.084)"/><rect class="a" width="0.715" height="6.616" transform="translate(43.989 136.621)"/><rect class="a" width="0.715" height="6.616" transform="translate(22.173 136.621)"/><rect class="a" width="50.07" height="0.715" transform="translate(165.946 19.134)"/><rect class="a" width="0.715" height="6.616" transform="translate(201.711 19.671)"/><rect class="a" width="0.715" height="6.616" transform="translate(179.895 19.671)"/><rect class="a" width="50.07" height="0.715" transform="translate(25.392 68.847)"/><rect class="a" width="0.715" height="6.616" transform="translate(38.982 62.409)"/><rect class="a" width="0.715" height="6.616" transform="translate(60.799 62.409)"/><path class="b" d="M370.749,300.408V468.859H526.683V300.408Zm77.967,12.16a5.365,5.365,0,1,1,5.365-5.365,5.365,5.365,0,0,1-5.365,5.365Z" transform="translate(-287.24 -238.535)"/><path class="c" d="M173.165,698.337c2.473,9.141,10.942,14.8,10.942,14.8s4.461-9.159,1.988-18.3-10.942-14.8-10.942-14.8S170.692,689.2,173.165,698.337Z" transform="translate(-159.841 -482.392)"/><path class="d" d="M154.209,712.851c6.785,6.605,7.614,16.759,7.614,16.759s-10.172-.555-16.958-7.161-7.614-16.759-7.614-16.759S147.424,706.246,154.209,712.851Z" transform="translate(-137.251 -498.87)"/><rect class="c" width="325.1" height="0.715" transform="translate(5.9 229.966)"/><path class="c" d="M300.984,668.274a7.88,7.88,0,0,0-5.018-7.332,7.868,7.868,0,1,0-5.7,0,7.865,7.865,0,0,0,0,14.664,7.868,7.868,0,1,0,5.7,0,7.879,7.879,0,0,0,5.018-7.332ZM285.963,653.61a7.153,7.153,0,1,1,8.767,6.962,7.875,7.875,0,0,0-3.228,0A7.16,7.16,0,0,1,285.963,653.61Zm14.306,29.327a7.153,7.153,0,1,1-8.767-6.962,7.877,7.877,0,0,0,3.228,0A7.16,7.16,0,0,1,300.269,682.937Zm-5.539-7.7a7.879,7.879,0,0,0-3.228,0,7.145,7.145,0,0,1,0-13.925,7.875,7.875,0,0,0,3.228,0,7.145,7.145,0,0,1,0,13.925Z" transform="translate(-232.317 -460.361)"/><path class="a" d="M496.652,389.915h-81.9a2.5,2.5,0,0,1,0-5.007h81.9a2.5,2.5,0,0,1,0,5.007Z" transform="translate(-313.897 -292.814)"/><path class="a" d="M496.652,461.915h-81.9a2.5,2.5,0,0,1,0-5.007h81.9a2.5,2.5,0,1,1,0,5.007Z" transform="translate(-313.897 -339.064)"/><path class="a" d="M496.652,533.915h-81.9a2.5,2.5,0,0,1,0-5.007h81.9a2.5,2.5,0,0,1,0,5.007Z" transform="translate(-313.897 -385.313)"/><path class="a" d="M496.652,605.915h-81.9a2.5,2.5,0,0,1,0-5.007h81.9a2.5,2.5,0,0,1,0,5.007Z" transform="translate(-313.897 -431.563)"/><path class="a" d="M496.652,677.915h-81.9a2.5,2.5,0,1,1,0-5.007h81.9a2.5,2.5,0,1,1,0,5.007Z" transform="translate(-313.897 -477.812)"/><path class="e" d="M481.7,389.915H413.751a2.5,2.5,0,0,1,0-5.007H481.7a2.5,2.5,0,1,1,0,5.007Z" transform="translate(-313.254 -292.814)"/><path class="e" d="M460.6,461.915H413.751a2.5,2.5,0,1,1,0-5.007H460.6a2.5,2.5,0,1,1,0,5.007Z" transform="translate(-313.254 -339.064)"/><path class="e" d="M434.854,533.915h-21.1a2.5,2.5,0,1,1,0-5.007h21.1a2.5,2.5,0,0,1,0,5.007Z" transform="translate(-313.255 -385.313)"/><path class="e" d="M488.142,605.915h-74.39a2.5,2.5,0,1,1,0-5.007h74.39a2.5,2.5,0,0,1,0,5.007Z" transform="translate(-313.254 -431.563)"/><path class="e" d="M471.69,677.915H413.751a2.5,2.5,0,1,1,0-5.007H471.69a2.5,2.5,0,1,1,0,5.007Z" transform="translate(-313.254 -477.812)"/><rect class="d" width="0.715" height="5.007" transform="translate(216.017 92.094)"/><path class="d" d="M753.109,389.63a2.861,2.861,0,1,1,2.861-2.861A2.861,2.861,0,0,1,753.109,389.63Zm0-5.007a2.146,2.146,0,1,0,2.146,2.146,2.146,2.146,0,0,0-2.146-2.146Z" transform="translate(-531.012 -292.172)"/><rect class="d" width="0.715" height="5.007" transform="translate(216.017 117.844)"/><path class="d" d="M753.109,461.63a2.861,2.861,0,1,1,2.861-2.861A2.861,2.861,0,0,1,753.109,461.63Zm0-5.007a2.146,2.146,0,1,0,2.146,2.146A2.146,2.146,0,0,0,753.109,456.623Z" transform="translate(-531.012 -338.421)"/><rect class="d" width="0.715" height="5.007" transform="translate(216.017 143.595)"/><path class="d" d="M753.109,533.63a2.861,2.861,0,1,1,2.861-2.861A2.861,2.861,0,0,1,753.109,533.63Zm0-5.007a2.146,2.146,0,1,0,2.146,2.146A2.146,2.146,0,0,0,753.109,528.623Z" transform="translate(-531.012 -384.671)"/><rect class="d" width="0.715" height="5.007" transform="translate(216.017 169.345)"/><path class="d" d="M753.109,605.63a2.861,2.861,0,1,1,2.861-2.861A2.861,2.861,0,0,1,753.109,605.63Zm0-5.007a2.146,2.146,0,1,0,2.146,2.146A2.146,2.146,0,0,0,753.109,600.623Z" transform="translate(-531.012 -430.92)"/><rect class="d" width="0.715" height="5.007" transform="translate(216.017 195.096)"/><path class="d" d="M753.109,677.63a2.861,2.861,0,1,1,2.861-2.861A2.861,2.861,0,0,1,753.109,677.63Zm0-5.007a2.146,2.146,0,1,0,2.146,2.146A2.146,2.146,0,0,0,753.109,672.623Z" transform="translate(-531.012 -477.17)"/><circle class="d" cx="1.431" cy="1.431" r="1.431" transform="translate(220.666 93.167)"/><circle class="d" cx="1.431" cy="1.431" r="1.431" transform="translate(220.666 170.418)"/><circle class="d" cx="1.431" cy="1.431" r="1.431" transform="translate(220.666 196.169)"/><circle class="c" cx="2.504" cy="2.504" r="2.504" transform="translate(158.972 66.164)"/><circle class="c" cx="2.504" cy="2.504" r="2.504" transform="translate(158.972)"/><rect class="c" width="0.715" height="66.164" transform="translate(161.118 2.503)"/><path class="f" d="M934.584,505.118v8.861a213.057,213.057,0,0,1,2.133,26.746c0,12.471-3.446,41.514-3.446,41.514s-6.892,2.461-7.384-1.313-1.8-23.792-1.8-26.746-5.743-25.433-5.743-25.433l-3.61,24.941s1.149,29.535,0,30.356-6.727,2.3-7.384.821-4.1-33.145-4.1-33.145-2.79-41.35-1.149-43.811,3.118-4.43,3.118-4.43S928.677,497.734,934.584,505.118Z" transform="translate(-628.22 -367.611)"/><path class="f" d="M975.09,724.767l.411,2.675a26.285,26.285,0,0,1,.269,2.754c.064,1.344.288,3.414,1.053,3.742,1.148.492,8.6,6.779,3.353,7.108s-7.878.9-9.433-.312c-1.839-1.427.244-.781-.576-.781s-1.8,0-2.133-1.313a8.324,8.324,0,0,1,.492-3.61V724.767Z" transform="translate(-670.858 -511.124)"/><path class="f" d="M906.932,724.408l-.412,2.675a26.318,26.318,0,0,0-.269,2.753c-.064,1.344-.288,3.414-1.053,3.742-1.149.492-8.6,6.78-3.353,7.108s7.878.9,9.433-.312c1.839-1.428-.244-.781.576-.781s1.8,0,2.133-1.313a8.325,8.325,0,0,0-.492-3.61V724.408Z" transform="translate(-627.201 -510.893)"/><path class="g" d="M915.763,312.77s2.79,6.892,4.759,8.04.984,6.4.984,6.4l-4.922,6.892h-3.938l-4.758-8.2s-.328-5.415-1.313-6.728S915.763,312.77,915.763,312.77Z" transform="translate(-631.386 -246.476)"/><path class="h" d="M915.763,312.77s2.79,6.892,4.759,8.04.984,6.4.984,6.4l-4.922,6.892h-3.938l-4.758-8.2s-.328-5.415-1.313-6.728S915.763,312.77,915.763,312.77Z" transform="translate(-631.386 -246.476)"/><path class="d" d="M917.038,352.226l7.384,1.641,5.415,54.477s-2.953.492-5.907,4.43-6.563,3.282-8.368,2.3-9.025-3.774-9.189-4.923.328-21.331.328-21.331l-4.595-31.5,2.3-3.446h4.1l3.282,2.789Z" transform="translate(-628.559 -271.821)"/><circle class="g" cx="8.532" cy="8.532" r="8.532" transform="translate(268.788 57.761)"/><path class="e" d="M942.23,344.427s16.08,1.641,17.557,5.087-.985,18.706-.985,18.706,5.907,13.291,5.743,16.409,5.579,24.449-.656,21.987-4.266-8.861-7.384-4.266-4.43,3.938-4.43,3.938-3.118,5.087-4.1,4.594-1.641-4.266.492-6.071,1.8-4.923-2.3-10.83-8.368-36.919-5.907-41.678S942.23,344.427,942.23,344.427Z" transform="translate(-652.602 -266.811)"/><path class="g" d="M845.415,387.6l-2.79,2.625-3.446-2.3,1.477-3.446Z" transform="translate(-539.051 -246.972)"/><path class="e" d="M891.637,352.226s-12.471,4.594-12.471,9.517,7.548,26.418,7.548,26.418a58.589,58.589,0,0,1-.328,6.892c-.328,1.313-5.491,12.762-.984,13.783,2.813.638,5.124,2.313,5.333,4.676.248,2.807-1.9,6.35-1.723,6.974.328,1.149,2.3,2.789,2.133,1.969s1.313-12.635,3.61-17.885-.984-40.529-1.641-45.124A50.812,50.812,0,0,0,891.637,352.226Z" transform="translate(-613.824 -271.821)"/><path class="g" d="M758.432,386.679l2.953,7.056,2.215-4.512-2.544-5.661Z" transform="translate(-487.182 -246.382)"/><path class="d" d="M935.3,327.551a15.287,15.287,0,0,0,4.335,1.113c1.641,0,8.368,3.446,6.071,5.579s-5.743,2.625-7.384,5.743-2.461,3.61-2.461,3.61l-2.921-3.924s4.07-4.608,3.906-6.085A60.455,60.455,0,0,0,935.3,327.551Z" transform="translate(-648.363 -255.971)"/><path class="d" d="M899.916,338.582s-2.018.778-2.511,2.09-3.61,3.774-2.3,4.43,7.056,3.282,8.2,3.774,3.289-1.4,3.289-1.4-2.879-1.639-2.879-2.788S899.916,338.582,899.916,338.582Z" transform="translate(-623.858 -263.056)"/><path class="e" d="M875.77,372.413l-3.938.984s-5.415,24.285-3.774,30.356,9.353,24.285,9.353,24.285l4.923-5.743s-2.147-13.06-3.371-13.914-.4-2.659-.4-3.151.492-.164-.656-1.313,4.266-7.548,2.79-9.353S875.77,372.413,875.77,372.413Z" transform="translate(-606.49 -284.788)"/><path class="h" d="M981.733,368.969l-2.379-8.943s6.4,4.594,7.712,11.322,6.4,20.183,3.118,26.09-9.025,22.972-10.994,22.644-6.727-4.43-6.891-5.087,8.532-15.752,7.22-16.9-.984-4.1,0-4.758,2.133-3.774,1.313-3.61-3.282-1.477-2.789-3.282-2.461-13.947-2.461-13.947Z" transform="translate(-673.646 -276.831)"/><path class="e" d="M981.185,356.814l2.3.656s6.4,4.594,7.712,11.322,6.4,20.183,3.118,26.09-9.025,22.972-10.994,22.644-6.727-4.43-6.891-5.087,8.532-15.752,7.22-16.9-.984-4.1,0-4.759,2.133-3.774,1.313-3.61-3.282-1.477-2.789-3.282-2.461-13.947-2.461-13.947Z" transform="translate(-676.298 -274.768)"/><path class="f" d="M896.855,281.96l1.6-.582a11.379,11.379,0,0,0-8-3.055l1.309-1.309a5.939,5.939,0,0,0-6.11,1.891,25.986,25.986,0,0,0-4.4,5.62h-1.714l.715,1.431-2.5,1.431,2.57-.257a7.218,7.218,0,0,0,.243,3.705l.582,1.6a46.151,46.151,0,0,0,2.328-5.237v1.455s1.6-1.309,1.6-2.182l.873,1.018.436-1.6,5.383,1.6-.873-1.309,3.346.436-1.309-1.6s3.783,1.891,3.928,3.492,2.037,3.637,2.037,3.637l.873-1.455S901.074,284.142,896.855,281.96Z" transform="translate(-612.913 -223.368)"/><ellipse class="g" cx="1.252" cy="1.967" rx="1.252" ry="1.967" transform="translate(282.36 63.303)"/></g></svg>