<svg xmlns="http://www.w3.org/2000/svg" xmlns:xlink="http://www.w3.org/1999/xlink" width="435.054" height="214" viewBox="0 0 435.054 214"><defs><style>.a{fill:#fff;}.b{fill:#f1f1f3;}.c{clip-path:url(#c);}.d{fill:#fb8f27;}.e{fill:#83c52c;}.f{fill:none;stroke:#fff;stroke-linecap:round;stroke-width:2px;}.g{fill:#e83f3f;}.h{filter:url(#d);}.i{filter:url(#a);}</style><filter id="a" x="0" y="0" width="215.054" height="214" filterUnits="userSpaceOnUse"><feOffset input="SourceAlpha"/><feGaussianBlur stdDeviation="3" result="b"/><feFlood flood-opacity="0.251"/><feComposite operator="in" in2="b"/><feComposite in="SourceGraphic"/></filter><clipPath id="c"><rect class="a" width="178.38" height="119.711" rx="8.85"/></clipPath><filter id="d" x="220" y="0" width="215.054" height="214" filterUnits="userSpaceOnUse"><feOffset input="SourceAlpha"/><feGaussianBlur stdDeviation="3" result="e"/><feFlood flood-opacity="0.251"/><feComposite operator="in" in2="e"/><feComposite in="SourceGraphic"/></filter></defs><g transform="translate(-39 -225.831)"><g class="i" transform="matrix(1, 0, 0, 1, 39, 225.83)"><rect class="a" width="197.054" height="196" rx="13" transform="translate(9 9)"/></g><g transform="translate(53.502 240.618)"><rect class="b" width="184.069" height="124.541" rx="10" transform="translate(1 2)"/><rect class="a" width="178.38" height="118.647" rx="8.85" transform="translate(3.748 4.371)"/><g class="c" transform="translate(3.748 4.371)"><path class="b" d="M147,513.054l49.813-57.577a9.853,9.853,0,0,1,14.013-.924l13.943,12.414a9.848,9.848,0,0,0,12.938.157l42.636-36.148a9.852,9.852,0,0,1,13.715.93l52.3,58.087a10.047,10.047,0,0,1,2.536,5.828l2.022,22.913a10.059,10.059,0,0,1-2.562,7.637,9.875,9.875,0,0,1-7.312,3.25H154.476a9.956,9.956,0,0,1-9.909-9.674h0A10.058,10.058,0,0,1,147,513.054Z" transform="translate(-156.928 -394.441)"/></g><circle class="d" cx="11.047" cy="11.047" r="11.047" transform="translate(14.182 12.351)"/></g><g class="h" transform="matrix(1, 0, 0, 1, 39, 225.83)"><rect class="a" width="197.054" height="196" rx="13" transform="translate(229 9)"/></g><g transform="translate(130.194 378.143)"><circle class="e" cx="17.387" cy="17.387" r="17.387" transform="translate(0 0)"/><path class="f" d="M562.661,4280.543l4.181,4.181,8.859-8.858" transform="translate(-551.926 -4262.752)"/></g><g transform="translate(348.322 378.143)"><circle class="g" cx="17.387" cy="17.387" r="17.387" transform="translate(0 0)"/><g transform="translate(12.097 12.328)"><path class="f" d="M565.458,4287.021l11.156-11.155" transform="translate(-565.458 -4275.866)"/><path class="f" d="M0,11.155,11.156,0" transform="translate(0 11.156) rotate(-90)"/></g></g><g transform="translate(274.001 240.618)"><rect class="b" width="184.069" height="124.541" rx="10" transform="translate(1 2)"/><rect class="a" width="178.38" height="118.647" rx="8.85" transform="translate(3.748 4.371)"/><g class="c" transform="translate(3.748 4.371)"><path class="b" d="M147,513.054l49.813-57.577a9.853,9.853,0,0,1,14.013-.924l13.943,12.414a9.848,9.848,0,0,0,12.938.157l42.636-36.148a9.852,9.852,0,0,1,13.715.93l52.3,58.087a10.047,10.047,0,0,1,2.536,5.828l2.022,22.913a10.059,10.059,0,0,1-2.562,7.637,9.875,9.875,0,0,1-7.312,3.25H154.476a9.956,9.956,0,0,1-9.909-9.674h0A10.058,10.058,0,0,1,147,513.054Z" transform="translate(-156.928 -394.441)"/></g><circle class="d" cx="11.047" cy="11.047" r="11.047" transform="translate(14.182 12.351)"/></g></g></svg>