<svg xmlns="http://www.w3.org/2000/svg" xmlns:xlink="http://www.w3.org/1999/xlink" width="114" height="114" viewBox="0 0 114 114"><defs><style>.a{fill:#fff;}.b{fill:url(#a);}.c{clip-path:url(#b);}</style><linearGradient id="a" x1="0.148" y1="0.047" x2="0.824" y2="1.061" gradientUnits="objectBoundingBox"><stop offset="0" stop-color="#72b9ff"/><stop offset="1" stop-color="#017efa"/></linearGradient><clipPath id="b"><rect class="a" width="60.86" height="52.538"/></clipPath></defs><g transform="translate(-1508 -3649)"><circle class="b" cx="57" cy="57" r="57" transform="translate(1508 3649)"/><g transform="translate(1535 3680)"><g class="c"><path class="a" d="M21.847,33.974q-1.459,1.528-2.915,3.051c-.232.242-.476.473-.711.712-.371.378-.82.672-.516,1.376a1.3,1.3,0,0,1-.378,1.056c-1.862,1.923-3.764,3.808-5.655,5.7Q8.687,48.862,5.7,51.849c-.91.909-1.427.918-2.328.025Q1.942,50.457.527,49.027a1.253,1.253,0,0,1,0-2.045q4.891-4.889,9.787-9.774.943-.942,1.885-1.885a1.326,1.326,0,0,1,1.823-.334l4.431-4.417a18.831,18.831,0,0,1-3.312-16.211A18.37,18.37,0,0,1,22.6,3.494,18.968,18.968,0,0,1,48.485,30.658,18.371,18.371,0,0,1,35.92,37.794a18.7,18.7,0,0,1-14.074-3.821M17.9,18.95A15.621,15.621,0,1,0,33.531,3.37,15.565,15.565,0,0,0,17.9,18.95" transform="translate(0 0.001)"/><path class="a" d="M480.363,198.851h1.4q1.685,0,3.37,0a1.9,1.9,0,0,1,2.118,2.066c.029,1.491.017,2.983.016,4.474,0,2.043.006,4.086-.02,6.129-.02,1.645-.461,2.146-2.123,2.452,0,.343,0,.7,0,1.066,0,1.425.018,2.85,0,4.275a4.515,4.515,0,0,1-8.9,1,6.36,6.36,0,0,1-.126-1.4c-.014-1.641-.006-3.281-.006-4.772a9.325,9.325,0,0,1-1.581-.86c-.549-.457-.495-.641,0-1.16a20.235,20.235,0,0,0,5.763-12.794c.008-.1.014-.2.024-.3a1.424,1.424,0,0,1,.058-.179" transform="translate(-426.415 -178.841)"/><path class="a" d="M70.435,209.311c-.944.922-1.862,1.827-2.8,2.716a.689.689,0,0,1-.45.138,2.87,2.87,0,0,0-2.157.911c-1,.994-2,1.976-3.045,3v-2.02c-.084-.071-.11-.11-.135-.11a2.088,2.088,0,0,1-2.034-2.349c.055-3.467.008-6.935,0-10.4a4.975,4.975,0,0,1,.05-.752,1.836,1.836,0,0,1,1.665-1.567c1.774-.033,3.55-.01,5.4-.01a20.379,20.379,0,0,0,3.5,10.443" transform="translate(-53.8 -178.849)"/><path class="a" d="M284.127,385.308a20.823,20.823,0,0,0,10.039-.052c.029.054.069.094.069.134,0,2.161.082,4.325-.015,6.482a5.057,5.057,0,0,1-10.092-.475q0-2.74,0-5.48v-.609" transform="translate(-255.536 -346.488)"/><path class="a" d="M87.795,88.248a19.923,19.923,0,0,0-2.205,8.132,4.384,4.384,0,0,1-4.519-2.339,4.547,4.547,0,0,1,6.724-5.793" transform="translate(-72.434 -78.554)"/><path class="a" d="M513.131,88.138a4.546,4.546,0,0,1,6.764,5.557,4.451,4.451,0,0,1-4.5,2.694,20.1,20.1,0,0,0-2.265-8.252" transform="translate(-461.495 -78.523)"/><path class="a" d="M267.829,212.117c1.709,0,3.419-.03,5.128.009a2.123,2.123,0,0,1,2.263,2.33c0,.2.011.4.011.6,0,2.078-.015,4.156,0,6.234a.749.749,0,0,1-.435.754,14.4,14.4,0,0,1-14.044.136.688.688,0,0,1-.43-.7c.019-2.4,0-4.793.015-7.19a2.054,2.054,0,0,1,1.863-2.135,12.609,12.609,0,0,1,1.605-.053c1.341-.006,2.681,0,4.022,0v.009" transform="translate(-234.128 -190.762)"/><path class="a" d="M288.628,97.429a5.083,5.083,0,0,1-5.124-5.3,5.124,5.124,0,0,1,10.246.146,5.088,5.088,0,0,1-5.122,5.155" transform="translate(-254.975 -78.404)"/></g></g></g></svg>