<svg xmlns="http://www.w3.org/2000/svg" width="110.825" height="96.778" viewBox="0 0 110.825 96.778"><defs><style>.a,.f{fill:none;}.b{fill:#017efa;}.c,.d{fill:#181c39;}.c{stroke:#ecf4fa;}.c,.f{stroke-width:2px;}.e{fill:#fb8f27;}.f{stroke:#bccad9;stroke-linecap:round;}.g{stroke:none;}</style></defs><g transform="translate(-274.967 -2588)"><path class="a" d="M74.894,1.5H19.327C9.482,1.5,1.5,7.19,1.5,14.207v10.2C1.5,31.43,9.482,37.12,19.327,37.12H57.065c9.847,0,17.828,5.69,17.828,12.707V60.363c0,7.019-7.982,12.708-17.828,12.708H1.5" transform="translate(288.409 2596.287)"/><g transform="translate(308.509 2588)"><path class="b" d="M0,0H36.809l7.832,7.342L36.809,14.88H0Z" transform="translate(44.641 36.659) rotate(180)"/><g class="c" transform="translate(33.273 10.302)"><rect class="g" width="6.181" height="84.476" rx="3.091"/><rect class="a" x="-1" y="-1" width="8.181" height="86.476" rx="4.091"/></g><circle class="d" cx="7.211" cy="7.211" r="7.211" transform="translate(29.152)"/><path class="e" d="M0,0H35.677l7.591,7.116-7.591,7.306H0Z" transform="translate(28.853 39.784)"/></g><g transform="translate(290.4 2643.451)"><g transform="translate(0 0)"><path class="d" d="M26.237,150.832c2.807,0,5.536.046,8.262-.018a35.725,35.725,0,0,0,4.673-.407,7.326,7.326,0,0,0,4.547-2.473,2.084,2.084,0,0,1,.064.339q0,8.09-.014,16.18a4.166,4.166,0,0,1-.079.793,2.572,2.572,0,0,1-2.581,2.345c-1.312.089-2.631.078-3.948.078q-15.333,0-30.666-.006c-1.081,0-2.166.022-3.243-.058a2.71,2.71,0,0,1-2.788-2.966C.42,162.193.432,159.747.43,157.3q0-4.421.006-8.842c0-.15,0-.3,0-.488.518.428.956.851,1.452,1.189a8.674,8.674,0,0,0,4.551,1.478c3.114.136,6.234.141,9.352.194.7.012,1.41,0,2.2,0v.462q0,2.869,0,5.738a4.486,4.486,0,0,0,.062.747.86.86,0,0,0,.819.779c.639.05,1.282.056,1.924.06q2,.012,4,0c1.078,0,1.441-.367,1.444-1.446.005-1.85,0-3.7,0-5.55v-.792" transform="translate(-0.373 -128.579)"/><path class="e" d="M21.75,55.86q8.795,0,17.59.007a10.648,10.648,0,0,1,1.867.153A2.346,2.346,0,0,1,43.283,58.2a18.709,18.709,0,0,1-.141,6.125,5.366,5.366,0,0,1-4.818,4.306,28.9,28.9,0,0,1-4.442.34c-8.465.025-16.93.006-25.4-.007A15.051,15.051,0,0,1,4.169,68.4,5.23,5.23,0,0,1,.327,64.3a17.9,17.9,0,0,1-.141-6.032,2.4,2.4,0,0,1,2.428-2.312,30.832,30.832,0,0,1,3.145-.092q8-.012,15.991,0" transform="translate(0 -48.551)"/><path class="d" d="M120.293,5.934h-3.138c-.013-.242-.022-.484-.041-.725A11.819,11.819,0,0,0,117,3.994a1.428,1.428,0,0,0-1.468-1.379c-1.373-.089-2.753-.093-4.13-.1a22.292,22.292,0,0,0-2.439.083c-1.142.118-1.562.578-1.669,1.718-.05.527-.057,1.058-.086,1.618h-3.155a14.424,14.424,0,0,1,.357-4.208A2.051,2.051,0,0,1,106.2.258,30.9,30.9,0,0,1,109.71.006c2.334-.022,4.668.024,7,.054a6.962,6.962,0,0,1,1.12.114A2.34,2.34,0,0,1,120.111,2.4a16.867,16.867,0,0,1,.178,2.149c.025.449,0,.9,0,1.383" transform="translate(-90.442 0)"/><path class="d" d="M153.09,173.022c0,.8-.01,1.6,0,2.395.008.418-.154.586-.583.579-1.142-.019-2.285-.022-3.428,0-.459.009-.6-.179-.6-.612q.016-2.395-.006-4.789c0-.421.164-.583.589-.576q1.737.027,3.474,0c.411-.006.561.17.556.56-.01.814,0,1.628,0,2.442Z" transform="translate(-129.052 -147.774)"/></g></g><path class="f" d="M-168.04,2680H-59.215" transform="translate(444.007 2.732)"/></g></svg>